  0
SECTION
  2
HEADER
  9
$ACADVER
  1
AC1014
  9
$HANDSEED
  5
FFFF
  9
$MEASUREMENT
 70
     1
  0
ENDSEC
  0
SECTION
  2
TABLES
  0
TABLE
  2
VPORT
  5
8
330
0
100
AcDbSymbolTable
 70
     4
  0
VPORT
  5
2E
330
8
100
AcDbSymbolTableRecord
100
AcDbViewportTableRecord
  2
*ACTIVE
 70
     0
 10
0.0
 20
0.0
 11
1.0
 21
1.0
 12
210.0
 22
148.5
 13
0.0
 23
0.0
 14
10.0
 24
10.0
 15
10.0
 25
10.0
 16
0.0
 26
0.0
 36
1.0
 17
0.0
 27
0.0
 37
0.0
 40
341.0
 41
1.24
 42
50.0
 43
0.0
 44
0.0
 50
0.0
 51
0.0
 71
     0
 72
   100
 73
     1
 74
     3
 75
     0
 76
     0
 77
     0
 78
     0
  0
ENDTAB
  0
TABLE
  2
LTYPE
  5
5
330
0
100
AcDbSymbolTable
 70
     1
  0
LTYPE
  5
14
330
5
100
AcDbSymbolTableRecord
100
AcDbLinetypeTableRecord
  2
BYBLOCK
 70
     0
  3

 72
    65
 73
     0
 40
0.0
  0
LTYPE
  5
15
330
5
100
AcDbSymbolTableRecord
100
AcDbLinetypeTableRecord
  2
BYLAYER
 70
     0
  3

 72
    65
 73
     0
 40
0.0
  0
LTYPE
  5
16
330
5
100
AcDbSymbolTableRecord
100
AcDbLinetypeTableRecord
  2
CONTINUOUS
 70
     0
  3
Solid line
 72
    65
 73
     0
 40
0.0
  0
ENDTAB
  0
TABLE
  2
LAYER
  5
2
100
AcDbSymbolTable
 70
36
  0
LAYER
  5
50
100
AcDbSymbolTableRecord
100
AcDbLayerTableRecord
  2
0
 70
0
  6
CONTINUOUS
  0
LAYER
  5
51
100
AcDbSymbolTableRecord
100
AcDbLayerTableRecord
  2
SECTION_CUTTING_LINE
 70
0
  6
CONTINUOUS
  0
LAYER
  5
52
100
AcDbSymbolTableRecord
100
AcDbLayerTableRecord
  2
DETAIL_VIEW_BORDER
 70
0
  6
CONTINUOUS
  0
LAYER
  5
53
100
AcDbSymbolTableRecord
100
AcDbLayerTableRecord
  2
DETAIL_VIEW_PARENT_BORDER
 70
0
  6
CONTINUOUS
  0
LAYER
  5
54
100
AcDbSymbolTableRecord
100
AcDbLayerTableRecord
  2
TEXT
 70
0
  6
CONTINUOUS
  0
LAYER
  5
55
100
AcDbSymbolTableRecord
100
AcDbLayerTableRecord
  2
SKETCHED_GEOMETRY
 70
0
  6
CONTINUOUS
  0
LAYER
  5
56
100
AcDbSymbolTableRecord
100
AcDbLayerTableRecord
  2
CENTERLINES
 70
0
  6
CONTINUOUS
  0
LAYER
  5
57
100
AcDbSymbolTableRecord
100
AcDbLayerTableRecord
  2
CENTERMARKS
 70
0
  6
CONTINUOUS
  0
LAYER
  5
58
100
AcDbSymbolTableRecord
100
AcDbLayerTableRecord
  2
TABLES
 70
0
  6
CONTINUOUS
  0
LAYER
  5
59
100
AcDbSymbolTableRecord
100
AcDbLayerTableRecord
  2
IMAGES
 70
0
  6
CONTINUOUS
  0
LAYER
  5
5a
100
AcDbSymbolTableRecord
100
AcDbLayerTableRecord
  2
ANNOTATION_LINES
 70
0
  6
CONTINUOUS
  0
LAYER
  5
5b
100
AcDbSymbolTableRecord
100
AcDbLayerTableRecord
  2
ANNOTATION_TEXT
 70
0
  6
CONTINUOUS
  0
LAYER
  5
5c
100
AcDbSymbolTableRecord
100
AcDbLayerTableRecord
  2
SIDE_THREAD_SYMBOLS
 70
0
  6
CONTINUOUS
  0
LAYER
  5
5d
100
AcDbSymbolTableRecord
100
AcDbLayerTableRecord
  2
SIDE_THREAD_SYMBOLS_HIDDEN
 70
0
  6
CONTINUOUS
  0
LAYER
  5
5e
100
AcDbSymbolTableRecord
100
AcDbLayerTableRecord
  2
SURFACE_THREAD_SYMBOLS
 70
0
  6
CONTINUOUS
  0
LAYER
  5
5f
100
AcDbSymbolTableRecord
100
AcDbLayerTableRecord
  2
SURFACE_THREAD_SYMBOLS_ON_
 70
0
  6
CONTINUOUS
  0
LAYER
  5
60
100
AcDbSymbolTableRecord
100
AcDbLayerTableRecord
  2
SURFACE_THREAD_SYMBOLS_HID
 70
0
  6
CONTINUOUS
  0
LAYER
  5
61
100
AcDbSymbolTableRecord
100
AcDbLayerTableRecord
  2
BLIND_THREAD_SYMBOLS
 70
0
  6
CONTINUOUS
  0
LAYER
  5
62
100
AcDbSymbolTableRecord
100
AcDbLayerTableRecord
  2
BLIND_THREAD_SYMBOLS_HIDDE
 70
0
  6
CONTINUOUS
  0
LAYER
  5
63
100
AcDbSymbolTableRecord
100
AcDbLayerTableRecord
  2
EXPLODE_LINES
 70
0
  6
CONTINUOUS
  0
LAYER
  5
64
100
AcDbSymbolTableRecord
100
AcDbLayerTableRecord
  2
BREAK_LINES
 70
0
  6
CONTINUOUS
  0
LAYER
  5
65
100
AcDbSymbolTableRecord
100
AcDbLayerTableRecord
  2
SHEETMETAL_BEND_LINES_UP
 70
0
  6
CONTINUOUS
  0
LAYER
  5
66
100
AcDbSymbolTableRecord
100
AcDbLayerTableRecord
  2
SHEETMETAL_BEND_LINES_DOWN
 70
0
  6
CONTINUOUS
  0
LAYER
  5
67
100
AcDbSymbolTableRecord
100
AcDbLayerTableRecord
  2
SHEETMETAL_BEND_TANGENT_LI
 70
0
  6
CONTINUOUS
  0
LAYER
  5
68
100
AcDbSymbolTableRecord
100
AcDbLayerTableRecord
  2
SHEETMETAL_CUT_LINES
 70
0
  6
CONTINUOUS
  0
LAYER
  5
69
100
AcDbSymbolTableRecord
100
AcDbLayerTableRecord
  2
HIDDEN
 70
0
  6
CONTINUOUS
  0
LAYER
  5
6a
100
AcDbSymbolTableRecord
100
AcDbLayerTableRecord
  2
VISIBLE
 70
0
  6
CONTINUOUS
  0
LAYER
  5
6b
100
AcDbSymbolTableRecord
100
AcDbLayerTableRecord
  2
etch
 70
0
  6
CONTINUOUS
  0
LAYER
  5
6c
100
AcDbSymbolTableRecord
100
AcDbLayerTableRecord
  2
cut
 70
0
  6
CONTINUOUS
  0
LAYER
  5
6d
100
AcDbSymbolTableRecord
100
AcDbLayerTableRecord
  2
MODELSKETCH_VISIBLE
 70
0
  6
CONTINUOUS
  0
LAYER
  5
6e
100
AcDbSymbolTableRecord
100
AcDbLayerTableRecord
  2
MODELSKETCH_CONSTRUCTION
 70
0
  6
CONTINUOUS
  0
LAYER
  5
6f
100
AcDbSymbolTableRecord
100
AcDbLayerTableRecord
  2
TANGENT_LINES
 70
0
  6
CONTINUOUS
  0
LAYER
  5
70
100
AcDbSymbolTableRecord
100
AcDbLayerTableRecord
  2
TANGENT_HIDDEN
 70
0
  6
CONTINUOUS
  0
LAYER
  5
71
100
AcDbSymbolTableRecord
100
AcDbLayerTableRecord
  2
INVISIBLE_LINES
 70
0
  6
CONTINUOUS
  0
LAYER
  5
72
100
AcDbSymbolTableRecord
100
AcDbLayerTableRecord
  2
VIEW_HATCHES
 70
0
  6
CONTINUOUS
  0
LAYER
  5
73
100
AcDbSymbolTableRecord
100
AcDbLayerTableRecord
  2
SECTION_JOG_LINES
 70
0
  6
CONTINUOUS
  0
ENDTAB
  0
TABLE
  2
STYLE
  5
3
330
0
100
AcDbSymbolTable
 70
     1
  0
STYLE
  5
11
330
3
100
AcDbSymbolTableRecord
100
AcDbTextStyleTableRecord
  2
STANDARD
 70
     0
 40
0.0
 41
1.0
 50
0.0
 71
     0
 42
2.5
  3
txt
  4

  0
ENDTAB
  0
TABLE
  2
VIEW
  5
6
330
0
100
AcDbSymbolTable
 70
     0
  0
ENDTAB
  0
TABLE
  2
UCS
  5
7
330
0
100
AcDbSymbolTable
 70
     0
  0
ENDTAB
  0
TABLE
  2
APPID
  5
9
330
0
100
AcDbSymbolTable
 70
     2
  0
APPID
  5
12
330
9
100
AcDbSymbolTableRecord
100
AcDbRegAppTableRecord
  2
ACAD
 70
     0
  0
ENDTAB
  0
TABLE
  2
DIMSTYLE
  5
A
330
0
100
AcDbSymbolTable
 70
     1
  0
DIMSTYLE
105
27
330
A
100
AcDbSymbolTableRecord
100
AcDbDimStyleTableRecord
  2
ISO-25
 70
     0
  3

  4

  5

  6

  7

 40
1.0
 41
2.5
 42
0.625
 43
3.75
 44
1.25
 45
0.0
 46
0.0
 47
0.0
 48
0.0
140
2.5
141
2.5
142
0.0
143
0.03937007874016
144
1.0
145
0.0
146
1.0
147
0.625
 71
     0
 72
     0
 73
     0
 74
     0
 75
     0
 76
     0
 77
     1
 78
     8
170
     0
171
     3
172
     1
173
     0
174
     0
175
     0
176
     0
177
     0
178
     0
270
     2
271
     2
272
     2
273
     2
274
     3
340
11
275
     0
280
     0
281
     0
282
     0
283
     0
284
     8
285
     0
286
     0
287
     3
288
     0
  0
ENDTAB
  0
TABLE
  2
BLOCK_RECORD
  5
1
330
0
100
AcDbSymbolTable
 70
     1
  0
BLOCK_RECORD
  5
1F
330
1
100
AcDbSymbolTableRecord
100
AcDbBlockTableRecord
  2
*MODEL_SPACE
  0
BLOCK_RECORD
  5
1B
330
1
100
AcDbSymbolTableRecord
100
AcDbBlockTableRecord
  2
*PAPER_SPACE
  0
ENDTAB
  0
ENDSEC
  0
SECTION
  2
BLOCKS
  0
BLOCK
  5
20
330
1F
100
AcDbEntity
  8
0
100
AcDbBlockBegin
  2
*MODEL_SPACE
 70
     0
 10
0.0
 20
0.0
 30
0.0
  3
*MODEL_SPACE
  1

  0
ENDBLK
  5
21
330
1F
100
AcDbEntity
  8
0
100
AcDbBlockEnd
  0
BLOCK
  5
1C
330
1B
100
AcDbEntity
 67
     1
  8
0
100
AcDbBlockBegin
  2
*PAPER_SPACE
  1

  0
ENDBLK
  5
1D
330
1B
100
AcDbEntity
 67
     1
  8
0
100
AcDbBlockEnd
  0
ENDSEC
  0
SECTION
  2
ENTITIES
  0
SPLINE
  5
100
100
AcDbEntity
  8
etch
 62
7
100
AcDbSpline
 70
8
 71
3
 72
8
 73
4
 74
0
 40
0
 40
0
 40
0
 40
0
 40
1
 40
1
 40
1
 40
1
 10
95.370256
 20
461.366372
 30
0.0
 10
93.876923
 20
461.366372
 30
0.0
 10
92.596923
 20
461.899708
 30
0.0
 10
91.530256
 20
462.966380
 30
0.0
  0
SPLINE
  5
101
100
AcDbEntity
  8
etch
 62
7
100
AcDbSpline
 70
8
 71
3
 72
8
 73
4
 74
0
 40
0
 40
0
 40
0
 40
0
 40
1
 40
1
 40
1
 40
1
 10
91.530256
 20
462.966380
 30
0.0
 10
90.463589
 20
464.033046
 30
0.0
 10
89.930256
 20
465.313044
 30
0.0
 10
89.930256
 20
466.806372
 30
0.0
  0
SPLINE
  5
102
100
AcDbEntity
  8
etch
 62
7
100
AcDbSpline
 70
8
 71
3
 72
8
 73
4
 74
0
 40
0
 40
0
 40
0
 40
0
 40
1
 40
1
 40
1
 40
1
 10
89.930256
 20
466.806372
 30
0.0
 10
89.930256
 20
468.299705
 30
0.0
 10
90.463589
 20
469.558369
 30
0.0
 10
91.530256
 20
470.582364
 30
0.0
  0
SPLINE
  5
103
100
AcDbEntity
  8
etch
 62
7
100
AcDbSpline
 70
8
 71
3
 72
8
 73
4
 74
0
 40
0
 40
0
 40
0
 40
0
 40
1
 40
1
 40
1
 40
1
 10
91.530256
 20
470.582364
 30
0.0
 10
92.596923
 20
471.649036
 30
0.0
 10
93.876923
 20
472.182372
 30
0.0
 10
95.370256
 20
472.182372
 30
0.0
  0
SPLINE
  5
104
100
AcDbEntity
  8
etch
 62
7
100
AcDbSpline
 70
8
 71
3
 72
8
 73
4
 74
0
 40
0
 40
0
 40
0
 40
0
 40
1
 40
1
 40
1
 40
1
 10
95.370256
 20
472.182372
 30
0.0
 10
96.863589
 20
472.182372
 30
0.0
 10
98.122256
 20
471.649036
 30
0.0
 10
99.146256
 20
470.582364
 30
0.0
  0
SPLINE
  5
105
100
AcDbEntity
  8
etch
 62
7
100
AcDbSpline
 70
8
 71
3
 72
8
 73
4
 74
0
 40
0
 40
0
 40
0
 40
0
 40
1
 40
1
 40
1
 40
1
 10
99.146256
 20
470.582364
 30
0.0
 10
100.212923
 20
469.558369
 30
0.0
 10
100.746256
 20
468.299705
 30
0.0
 10
100.746256
 20
466.806372
 30
0.0
  0
SPLINE
  5
106
100
AcDbEntity
  8
etch
 62
7
100
AcDbSpline
 70
8
 71
3
 72
8
 73
4
 74
0
 40
0
 40
0
 40
0
 40
0
 40
1
 40
1
 40
1
 40
1
 10
100.746256
 20
466.806372
 30
0.0
 10
100.746256
 20
465.313044
 30
0.0
 10
100.212923
 20
464.033046
 30
0.0
 10
99.146256
 20
462.966380
 30
0.0
  0
SPLINE
  5
107
100
AcDbEntity
  8
etch
 62
7
100
AcDbSpline
 70
8
 71
3
 72
8
 73
4
 74
0
 40
0
 40
0
 40
0
 40
0
 40
1
 40
1
 40
1
 40
1
 10
99.146256
 20
462.966380
 30
0.0
 10
98.122256
 20
461.899708
 30
0.0
 10
96.863589
 20
461.366372
 30
0.0
 10
95.370256
 20
461.366372
 30
0.0
  0
LWPOLYLINE
  5
108
100
AcDbEntity
  8
etch
 62
7
100
AcDbPolyline
 90
20
 70
1
 10
34.036258
 20
470.966372
 30
0.0
 10
45.172258
 20
470.966372
 30
0.0
 10
57.332258
 20
438.774372
 30
0.0
 10
57.844258
 20
438.774372
 30
0.0
 10
70.004258
 20
470.966372
 30
0.0
 10
81.204256
 20
470.966372
 30
0.0
 10
81.204256
 20
425.142380
 30
0.0
 10
72.628258
 20
425.142380
 30
0.0
 10
72.628258
 20
447.734380
 30
0.0
 10
73.140258
 20
455.350372
 30
0.0
 10
72.628258
 20
455.350372
 30
0.0
 10
60.980258
 20
425.142380
 30
0.0
 10
54.260259
 20
425.142380
 30
0.0
 10
42.548258
 20
455.350372
 30
0.0
 10
42.036258
 20
455.350372
 30
0.0
 10
42.548258
 20
447.734380
 30
0.0
 10
42.548258
 20
425.142380
 30
0.0
 10
34.036258
 20
425.142380
 30
0.0
 10
34.036258
 20
470.966372
 30
0.0
 10
34.036258
 20
470.966372
 30
0.0
  0
LWPOLYLINE
  5
109
100
AcDbEntity
  8
etch
 62
7
100
AcDbPolyline
 90
2
 70
1
 10
95.370256
 20
461.366372
 30
0.0
 10
95.370256
 20
461.366372
 30
0.0
  0
SPLINE
  5
10a
100
AcDbEntity
  8
etch
 62
7
100
AcDbSpline
 70
8
 71
3
 72
8
 73
4
 74
0
 40
0
 40
0
 40
0
 40
0
 40
1
 40
1
 40
1
 40
1
 10
123.369256
 20
424.118380
 30
0.0
 10
120.083923
 20
424.118380
 30
0.0
 10
117.139923
 20
424.843710
 30
0.0
 10
114.537256
 20
426.294372
 30
0.0
  0
SPLINE
  5
10b
100
AcDbEntity
  8
etch
 62
7
100
AcDbSpline
 70
8
 71
3
 72
8
 73
4
 74
0
 40
0
 40
0
 40
0
 40
0
 40
1
 40
1
 40
1
 40
1
 10
114.537256
 20
426.294372
 30
0.0
 10
111.934589
 20
427.787710
 30
0.0
 10
109.886589
 20
429.857044
 30
0.0
 10
108.393256
 20
432.502372
 30
0.0
  0
SPLINE
  5
10c
100
AcDbEntity
  8
etch
 62
7
100
AcDbSpline
 70
8
 71
3
 72
8
 73
4
 74
0
 40
0
 40
0
 40
0
 40
0
 40
1
 40
1
 40
1
 40
1
 10
108.393256
 20
432.502372
 30
0.0
 10
106.942589
 20
435.147705
 30
0.0
 10
106.217256
 20
438.134374
 30
0.0
 10
106.217256
 20
441.462380
 30
0.0
  0
SPLINE
  5
10d
100
AcDbEntity
  8
etch
 62
7
100
AcDbSpline
 70
8
 71
3
 72
8
 73
4
 74
0
 40
0
 40
0
 40
0
 40
0
 40
1
 40
1
 40
1
 40
1
 10
106.217256
 20
441.462380
 30
0.0
 10
106.217256
 20
444.790369
 30
0.0
 10
106.942589
 20
447.755697
 30
0.0
 10
108.393256
 20
450.358364
 30
0.0
  0
SPLINE
  5
10e
100
AcDbEntity
  8
etch
 62
7
100
AcDbSpline
 70
8
 71
3
 72
8
 73
4
 74
0
 40
0
 40
0
 40
0
 40
0
 40
1
 40
1
 40
1
 40
1
 10
108.393256
 20
450.358364
 30
0.0
 10
109.886589
 20
453.003702
 30
0.0
 10
111.934589
 20
455.073036
 30
0.0
 10
114.537256
 20
456.566364
 30
0.0
  0
SPLINE
  5
10f
100
AcDbEntity
  8
etch
 62
7
100
AcDbSpline
 70
8
 71
3
 72
8
 73
4
 74
0
 40
0
 40
0
 40
0
 40
0
 40
1
 40
1
 40
1
 40
1
 10
114.537256
 20
456.566364
 30
0.0
 10
117.139923
 20
458.059708
 30
0.0
 10
120.083923
 20
458.806380
 30
0.0
 10
123.369256
 20
458.806380
 30
0.0
  0
SPLINE
  5
110
100
AcDbEntity
  8
etch
 62
7
100
AcDbSpline
 70
8
 71
3
 72
8
 73
4
 74
0
 40
0
 40
0
 40
0
 40
0
 40
1
 40
1
 40
1
 40
1
 10
123.369256
 20
458.806380
 30
0.0
 10
126.995923
 20
458.806380
 30
0.0
 10
130.110589
 20
458.017044
 30
0.0
 10
132.713256
 20
456.438372
 30
0.0
  0
SPLINE
  5
111
100
AcDbEntity
  8
etch
 62
7
100
AcDbSpline
 70
8
 71
3
 72
8
 73
4
 74
0
 40
0
 40
0
 40
0
 40
0
 40
1
 40
1
 40
1
 40
1
 10
132.713256
 20
456.438372
 30
0.0
 10
135.315923
 20
454.902372
 30
0.0
 10
137.193256
 20
452.705036
 30
0.0
 10
138.345256
 20
449.846364
 30
0.0
  0
LWPOLYLINE
  5
112
100
AcDbEntity
  8
etch
 62
7
100
AcDbPolyline
 90
6
 70
1
 10
91.146256
 20
457.782380
 30
0.0
 10
99.530256
 20
457.782380
 30
0.0
 10
99.530256
 20
425.142380
 30
0.0
 10
91.146256
 20
425.142380
 30
0.0
 10
91.146256
 20
457.782380
 30
0.0
 10
91.146256
 20
457.782380
 30
0.0
  0
SPLINE
  5
113
100
AcDbEntity
  8
etch
 62
7
100
AcDbSpline
 70
8
 71
3
 72
8
 73
4
 74
0
 40
0
 40
0
 40
0
 40
0
 40
1
 40
1
 40
1
 40
1
 10
130.665256
 20
446.646380
 30
0.0
 10
129.299923
 20
449.547708
 30
0.0
 10
126.867923
 20
450.998372
 30
0.0
 10
123.369256
 20
450.998372
 30
0.0
  0
SPLINE
  5
114
100
AcDbEntity
  8
etch
 62
7
100
AcDbSpline
 70
8
 71
3
 72
8
 73
4
 74
0
 40
0
 40
0
 40
0
 40
0
 40
1
 40
1
 40
1
 40
1
 10
123.369256
 20
450.998372
 30
0.0
 10
120.809256
 20
450.998372
 30
0.0
 10
118.697256
 20
450.123705
 30
0.0
 10
117.033256
 20
448.374372
 30
0.0
  0
SPLINE
  5
115
100
AcDbEntity
  8
etch
 62
7
100
AcDbSpline
 70
8
 71
3
 72
8
 73
4
 74
0
 40
0
 40
0
 40
0
 40
0
 40
1
 40
1
 40
1
 40
1
 10
117.033256
 20
448.374372
 30
0.0
 10
115.411923
 20
446.625038
 30
0.0
 10
114.601256
 20
444.321041
 30
0.0
 10
114.601256
 20
441.462380
 30
0.0
  0
SPLINE
  5
116
100
AcDbEntity
  8
etch
 62
7
100
AcDbSpline
 70
8
 71
3
 72
8
 73
4
 74
0
 40
0
 40
0
 40
0
 40
0
 40
1
 40
1
 40
1
 40
1
 10
114.601256
 20
441.462380
 30
0.0
 10
114.601256
 20
438.561046
 30
0.0
 10
115.411923
 20
436.235713
 30
0.0
 10
117.033256
 20
434.486380
 30
0.0
  0
SPLINE
  5
117
100
AcDbEntity
  8
etch
 62
7
100
AcDbSpline
 70
8
 71
3
 72
8
 73
4
 74
0
 40
0
 40
0
 40
0
 40
0
 40
1
 40
1
 40
1
 40
1
 10
117.033256
 20
434.486380
 30
0.0
 10
118.697256
 20
432.737046
 30
0.0
 10
120.809256
 20
431.862380
 30
0.0
 10
123.369256
 20
431.862380
 30
0.0
  0
SPLINE
  5
118
100
AcDbEntity
  8
etch
 62
7
100
AcDbSpline
 70
8
 71
3
 72
8
 73
4
 74
0
 40
0
 40
0
 40
0
 40
0
 40
1
 40
1
 40
1
 40
1
 10
123.369256
 20
431.862380
 30
0.0
 10
126.910589
 20
431.862380
 30
0.0
 10
129.470592
 20
433.398377
 30
0.0
 10
131.049264
 20
436.470372
 30
0.0
  0
LWPOLYLINE
  5
119
100
AcDbEntity
  8
etch
 62
7
100
AcDbPolyline
 90
2
 70
1
 10
138.345256
 20
449.846364
 30
0.0
 10
130.665256
 20
446.646380
 30
0.0
  0
SPLINE
  5
11a
100
AcDbEntity
  8
etch
 62
7
100
AcDbSpline
 70
8
 71
3
 72
8
 73
4
 74
0
 40
0
 40
0
 40
0
 40
0
 40
1
 40
1
 40
1
 40
1
 10
138.665256
 20
433.142372
 30
0.0
 10
137.257256
 20
430.283700
 30
0.0
 10
135.251923
 20
428.065036
 30
0.0
 10
132.649256
 20
426.486380
 30
0.0
  0
SPLINE
  5
11b
100
AcDbEntity
  8
etch
 62
7
100
AcDbSpline
 70
8
 71
3
 72
8
 73
4
 74
0
 40
0
 40
0
 40
0
 40
0
 40
1
 40
1
 40
1
 40
1
 10
132.649256
 20
426.486380
 30
0.0
 10
130.046589
 20
424.907713
 30
0.0
 10
126.953256
 20
424.118380
 30
0.0
 10
123.369256
 20
424.118380
 30
0.0
  0
LWPOLYLINE
  5
11c
100
AcDbEntity
  8
etch
 62
7
100
AcDbPolyline
 90
2
 70
1
 10
131.049264
 20
436.470372
 30
0.0
 10
138.665256
 20
433.142372
 30
0.0
  0
LWPOLYLINE
  5
11d
100
AcDbEntity
  8
etch
 62
7
100
AcDbPolyline
 90
2
 70
1
 10
123.369256
 20
424.118380
 30
0.0
 10
123.369256
 20
424.118380
 30
0.0
  0
SPLINE
  5
11e
100
AcDbEntity
  8
etch
 62
7
100
AcDbSpline
 70
8
 71
3
 72
8
 73
4
 74
0
 40
0
 40
0
 40
0
 40
0
 40
1
 40
1
 40
1
 40
1
 10
152.643248
 20
453.430380
 30
0.0
 10
153.453925
 20
454.966380
 30
0.0
 10
154.712595
 20
456.225044
 30
0.0
 10
156.419256
 20
457.206372
 30
0.0
  0
SPLINE
  5
11f
100
AcDbEntity
  8
etch
 62
7
100
AcDbSpline
 70
8
 71
3
 72
8
 73
4
 74
0
 40
0
 40
0
 40
0
 40
0
 40
1
 40
1
 40
1
 40
1
 10
156.419256
 20
457.206372
 30
0.0
 10
158.125923
 20
458.230372
 30
0.0
 10
160.003256
 20
458.742372
 30
0.0
 10
162.051256
 20
458.742372
 30
0.0
  0
SPLINE
  5
120
100
AcDbEntity
  8
etch
 62
7
100
AcDbSpline
 70
8
 71
3
 72
8
 73
4
 74
0
 40
0
 40
0
 40
0
 40
0
 40
1
 40
1
 40
1
 40
1
 10
162.051256
 20
458.742372
 30
0.0
 10
163.544584
 20
458.742372
 30
0.0
 10
164.909915
 20
458.507708
 30
0.0
 10
166.147248
 20
458.038380
 30
0.0
  0
LWPOLYLINE
  5
121
100
AcDbEntity
  8
etch
 62
7
100
AcDbPolyline
 90
4
 70
1
 10
144.259264
 20
457.782380
 30
0.0
 10
152.131248
 20
457.782380
 30
0.0
 10
152.131248
 20
453.430380
 30
0.0
 10
152.643248
 20
453.430380
 30
0.0
  0
SPLINE
  5
122
100
AcDbEntity
  8
etch
 62
7
100
AcDbSpline
 70
8
 71
3
 72
8
 73
4
 74
0
 40
0
 40
0
 40
0
 40
0
 40
1
 40
1
 40
1
 40
1
 10
166.147248
 20
449.654372
 30
0.0
 10
164.995253
 20
450.081044
 30
0.0
 10
164.013925
 20
450.379713
 30
0.0
 10
163.203264
 20
450.550380
 30
0.0
  0
SPLINE
  5
123
100
AcDbEntity
  8
etch
 62
7
100
AcDbSpline
 70
8
 71
3
 72
8
 73
4
 74
0
 40
0
 40
0
 40
0
 40
0
 40
1
 40
1
 40
1
 40
1
 10
163.203264
 20
450.550380
 30
0.0
 10
162.435259
 20
450.763702
 30
0.0
 10
161.603253
 20
450.870364
 30
0.0
 10
160.707248
 20
450.870364
 30
0.0
  0
SPLINE
  5
124
100
AcDbEntity
  8
etch
 62
7
100
AcDbSpline
 70
8
 71
3
 72
8
 73
4
 74
0
 40
0
 40
0
 40
0
 40
0
 40
1
 40
1
 40
1
 40
1
 10
160.707248
 20
450.870364
 30
0.0
 10
158.232592
 20
450.870364
 30
0.0
 10
156.269928
 20
449.974369
 30
0.0
 10
154.819256
 20
448.182380
 30
0.0
  0
SPLINE
  5
125
100
AcDbEntity
  8
etch
 62
7
100
AcDbSpline
 70
8
 71
3
 72
8
 73
4
 74
0
 40
0
 40
0
 40
0
 40
0
 40
1
 40
1
 40
1
 40
1
 10
154.819256
 20
448.182380
 30
0.0
 10
153.368584
 20
446.390374
 30
0.0
 10
152.643248
 20
444.129038
 30
0.0
 10
152.643248
 20
441.398372
 30
0.0
  0
LWPOLYLINE
  5
126
100
AcDbEntity
  8
etch
 62
7
100
AcDbPolyline
 90
2
 70
1
 10
166.147248
 20
458.038380
 30
0.0
 10
166.147248
 20
449.654372
 30
0.0
  0
SPLINE
  5
127
100
AcDbEntity
  8
etch
 62
7
100
AcDbSpline
 70
8
 71
3
 72
8
 73
4
 74
0
 40
0
 40
0
 40
0
 40
0
 40
1
 40
1
 40
1
 40
1
 10
185.375248
 20
424.118380
 30
0.0
 10
182.004587
 20
424.118380
 30
0.0
 10
178.996589
 20
424.865044
 30
0.0
 10
176.351256
 20
426.358372
 30
0.0
  0
SPLINE
  5
128
100
AcDbEntity
  8
etch
 62
7
100
AcDbSpline
 70
8
 71
3
 72
8
 73
4
 74
0
 40
0
 40
0
 40
0
 40
0
 40
1
 40
1
 40
1
 40
1
 10
176.351256
 20
426.358372
 30
0.0
 10
173.705917
 20
427.894372
 30
0.0
 10
171.636584
 20
429.963705
 30
0.0
 10
170.143256
 20
432.566372
 30
0.0
  0
SPLINE
  5
129
100
AcDbEntity
  8
etch
 62
7
100
AcDbSpline
 70
8
 71
3
 72
8
 73
4
 74
0
 40
0
 40
0
 40
0
 40
0
 40
1
 40
1
 40
1
 40
1
 10
170.143256
 20
432.566372
 30
0.0
 10
168.692584
 20
435.211710
 30
0.0
 10
167.967248
 20
438.177046
 30
0.0
 10
167.967248
 20
441.462380
 30
0.0
  0
SPLINE
  5
12a
100
AcDbEntity
  8
etch
 62
7
100
AcDbSpline
 70
8
 71
3
 72
8
 73
4
 74
0
 40
0
 40
0
 40
0
 40
0
 40
1
 40
1
 40
1
 40
1
 10
167.967248
 20
441.462380
 30
0.0
 10
167.967248
 20
444.705041
 30
0.0
 10
168.692584
 20
447.649041
 30
0.0
 10
170.143256
 20
450.294380
 30
0.0
  0
SPLINE
  5
12b
100
AcDbEntity
  8
etch
 62
7
100
AcDbSpline
 70
8
 71
3
 72
8
 73
4
 74
0
 40
0
 40
0
 40
0
 40
0
 40
1
 40
1
 40
1
 40
1
 10
170.143256
 20
450.294380
 30
0.0
 10
171.636584
 20
452.939702
 30
0.0
 10
173.705917
 20
455.009036
 30
0.0
 10
176.351256
 20
456.502380
 30
0.0
  0
SPLINE
  5
12c
100
AcDbEntity
  8
etch
 62
7
100
AcDbSpline
 70
8
 71
3
 72
8
 73
4
 74
0
 40
0
 40
0
 40
0
 40
0
 40
1
 40
1
 40
1
 40
1
 10
176.351256
 20
456.502380
 30
0.0
 10
178.996589
 20
458.038380
 30
0.0
 10
182.004587
 20
458.806380
 30
0.0
 10
185.375248
 20
458.806380
 30
0.0
  0
SPLINE
  5
12d
100
AcDbEntity
  8
etch
 62
7
100
AcDbSpline
 70
8
 71
3
 72
8
 73
4
 74
0
 40
0
 40
0
 40
0
 40
0
 40
1
 40
1
 40
1
 40
1
 10
185.375248
 20
458.806380
 30
0.0
 10
188.703253
 20
458.806380
 30
0.0
 10
191.689917
 20
458.038380
 30
0.0
 10
194.335240
 20
456.502380
 30
0.0
  0
SPLINE
  5
12e
100
AcDbEntity
  8
etch
 62
7
100
AcDbSpline
 70
8
 71
3
 72
8
 73
4
 74
0
 40
0
 40
0
 40
0
 40
0
 40
1
 40
1
 40
1
 40
1
 10
194.335240
 20
456.502380
 30
0.0
 10
196.980579
 20
455.009036
 30
0.0
 10
199.028584
 20
452.939702
 30
0.0
 10
200.479256
 20
450.294380
 30
0.0
  0
SPLINE
  5
12f
100
AcDbEntity
  8
etch
 62
7
100
AcDbSpline
 70
8
 71
3
 72
8
 73
4
 74
0
 40
0
 40
0
 40
0
 40
0
 40
1
 40
1
 40
1
 40
1
 10
200.479256
 20
450.294380
 30
0.0
 10
201.972584
 20
447.649041
 30
0.0
 10
202.719248
 20
444.705041
 30
0.0
 10
202.719248
 20
441.462380
 30
0.0
  0
SPLINE
  5
130
100
AcDbEntity
  8
etch
 62
7
100
AcDbSpline
 70
8
 71
3
 72
8
 73
4
 74
0
 40
0
 40
0
 40
0
 40
0
 40
1
 40
1
 40
1
 40
1
 10
202.719248
 20
441.462380
 30
0.0
 10
202.719248
 20
438.177046
 30
0.0
 10
201.972584
 20
435.211710
 30
0.0
 10
200.479256
 20
432.566372
 30
0.0
  0
SPLINE
  5
131
100
AcDbEntity
  8
etch
 62
7
100
AcDbSpline
 70
8
 71
3
 72
8
 73
4
 74
0
 40
0
 40
0
 40
0
 40
0
 40
1
 40
1
 40
1
 40
1
 10
200.479256
 20
432.566372
 30
0.0
 10
199.028584
 20
429.963705
 30
0.0
 10
196.980579
 20
427.894372
 30
0.0
 10
194.335240
 20
426.358372
 30
0.0
  0
SPLINE
  5
132
100
AcDbEntity
  8
etch
 62
7
100
AcDbSpline
 70
8
 71
3
 72
8
 73
4
 74
0
 40
0
 40
0
 40
0
 40
0
 40
1
 40
1
 40
1
 40
1
 10
194.335240
 20
426.358372
 30
0.0
 10
191.689917
 20
424.865044
 30
0.0
 10
188.703253
 20
424.118380
 30
0.0
 10
185.375248
 20
424.118380
 30
0.0
  0
LWPOLYLINE
  5
133
100
AcDbEntity
  8
etch
 62
7
100
AcDbPolyline
 90
5
 70
1
 10
152.643248
 20
441.398372
 30
0.0
 10
152.643248
 20
425.142380
 30
0.0
 10
144.259264
 20
425.142380
 30
0.0
 10
144.259264
 20
457.782380
 30
0.0
 10
144.259264
 20
457.782380
 30
0.0
  0
SPLINE
  5
134
100
AcDbEntity
  8
etch
 62
7
100
AcDbSpline
 70
8
 71
3
 72
8
 73
4
 74
0
 40
0
 40
0
 40
0
 40
0
 40
1
 40
1
 40
1
 40
1
 10
185.375248
 20
431.862380
 30
0.0
 10
186.996587
 20
431.862380
 30
0.0
 10
188.489923
 20
432.246374
 30
0.0
 10
189.855256
 20
433.014364
 30
0.0
  0
SPLINE
  5
135
100
AcDbEntity
  8
etch
 62
7
100
AcDbSpline
 70
8
 71
3
 72
8
 73
4
 74
0
 40
0
 40
0
 40
0
 40
0
 40
1
 40
1
 40
1
 40
1
 10
189.855256
 20
433.014364
 30
0.0
 10
191.220589
 20
433.782369
 30
0.0
 10
192.308587
 20
434.891702
 30
0.0
 10
193.119248
 20
436.342364
 30
0.0
  0
SPLINE
  5
136
100
AcDbEntity
  8
etch
 62
7
100
AcDbSpline
 70
8
 71
3
 72
8
 73
4
 74
0
 40
0
 40
0
 40
0
 40
0
 40
1
 40
1
 40
1
 40
1
 10
193.119248
 20
436.342364
 30
0.0
 10
193.929909
 20
437.793036
 30
0.0
 10
194.335240
 20
439.499708
 30
0.0
 10
194.335240
 20
441.462380
 30
0.0
  0
SPLINE
  5
137
100
AcDbEntity
  8
etch
 62
7
100
AcDbSpline
 70
8
 71
3
 72
8
 73
4
 74
0
 40
0
 40
0
 40
0
 40
0
 40
1
 40
1
 40
1
 40
1
 10
194.335240
 20
441.462380
 30
0.0
 10
194.335240
 20
443.382380
 30
0.0
 10
193.929909
 20
445.067710
 30
0.0
 10
193.119248
 20
446.518372
 30
0.0
  0
SPLINE
  5
138
100
AcDbEntity
  8
etch
 62
7
100
AcDbSpline
 70
8
 71
3
 72
8
 73
4
 74
0
 40
0
 40
0
 40
0
 40
0
 40
1
 40
1
 40
1
 40
1
 10
193.119248
 20
446.518372
 30
0.0
 10
192.308587
 20
447.969038
 30
0.0
 10
191.220589
 20
449.078369
 30
0.0
 10
189.855256
 20
449.846364
 30
0.0
  0
SPLINE
  5
139
100
AcDbEntity
  8
etch
 62
7
100
AcDbSpline
 70
8
 71
3
 72
8
 73
4
 74
0
 40
0
 40
0
 40
0
 40
0
 40
1
 40
1
 40
1
 40
1
 10
189.855256
 20
449.846364
 30
0.0
 10
188.489923
 20
450.614369
 30
0.0
 10
186.996587
 20
450.998372
 30
0.0
 10
185.375248
 20
450.998372
 30
0.0
  0
SPLINE
  5
13a
100
AcDbEntity
  8
etch
 62
7
100
AcDbSpline
 70
8
 71
3
 72
8
 73
4
 74
0
 40
0
 40
0
 40
0
 40
0
 40
1
 40
1
 40
1
 40
1
 10
185.375248
 20
450.998372
 30
0.0
 10
183.753915
 20
450.998372
 30
0.0
 10
182.260581
 20
450.614369
 30
0.0
 10
180.895248
 20
449.846364
 30
0.0
  0
SPLINE
  5
13b
100
AcDbEntity
  8
etch
 62
7
100
AcDbSpline
 70
8
 71
3
 72
8
 73
4
 74
0
 40
0
 40
0
 40
0
 40
0
 40
1
 40
1
 40
1
 40
1
 10
180.895248
 20
449.846364
 30
0.0
 10
179.529915
 20
449.078369
 30
0.0
 10
178.420581
 20
447.969038
 30
0.0
 10
177.567248
 20
446.518372
 30
0.0
  0
SPLINE
  5
13c
100
AcDbEntity
  8
etch
 62
7
100
AcDbSpline
 70
8
 71
3
 72
8
 73
4
 74
0
 40
0
 40
0
 40
0
 40
0
 40
1
 40
1
 40
1
 40
1
 10
177.567248
 20
446.518372
 30
0.0
 10
176.756587
 20
445.067710
 30
0.0
 10
176.351256
 20
443.382380
 30
0.0
 10
176.351256
 20
441.462380
 30
0.0
  0
SPLINE
  5
13d
100
AcDbEntity
  8
etch
 62
7
100
AcDbSpline
 70
8
 71
3
 72
8
 73
4
 74
0
 40
0
 40
0
 40
0
 40
0
 40
1
 40
1
 40
1
 40
1
 10
176.351256
 20
441.462380
 30
0.0
 10
176.351256
 20
439.542374
 30
0.0
 10
176.756587
 20
437.835702
 30
0.0
 10
177.567248
 20
436.342364
 30
0.0
  0
SPLINE
  5
13e
100
AcDbEntity
  8
etch
 62
7
100
AcDbSpline
 70
8
 71
3
 72
8
 73
4
 74
0
 40
0
 40
0
 40
0
 40
0
 40
1
 40
1
 40
1
 40
1
 10
177.567248
 20
436.342364
 30
0.0
 10
178.420581
 20
434.891702
 30
0.0
 10
179.529915
 20
433.782369
 30
0.0
 10
180.895248
 20
433.014364
 30
0.0
  0
SPLINE
  5
13f
100
AcDbEntity
  8
etch
 62
7
100
AcDbSpline
 70
8
 71
3
 72
8
 73
4
 74
0
 40
0
 40
0
 40
0
 40
0
 40
1
 40
1
 40
1
 40
1
 10
180.895248
 20
433.014364
 30
0.0
 10
182.260581
 20
432.246374
 30
0.0
 10
183.753915
 20
431.862380
 30
0.0
 10
185.375248
 20
431.862380
 30
0.0
  0
LWPOLYLINE
  5
140
100
AcDbEntity
  8
etch
 62
7
100
AcDbPolyline
 90
2
 70
1
 10
185.375248
 20
424.118380
 30
0.0
 10
185.375248
 20
424.118380
 30
0.0
  0
LWPOLYLINE
  5
141
100
AcDbEntity
  8
etch
 62
7
100
AcDbPolyline
 90
2
 70
1
 10
185.375248
 20
431.862380
 30
0.0
 10
185.375248
 20
431.862380
 30
0.0
  0
SPLINE
  5
142
100
AcDbEntity
  8
etch
 62
7
100
AcDbSpline
 70
8
 71
3
 72
8
 73
4
 74
0
 40
0
 40
0
 40
0
 40
0
 40
1
 40
1
 40
1
 40
1
 10
261.607264
 20
424.118380
 30
0.0
 10
257.169920
 20
424.118380
 30
0.0
 10
253.116587
 20
425.163713
 30
0.0
 10
249.447264
 20
427.254380
 30
0.0
  0
SPLINE
  5
143
100
AcDbEntity
  8
etch
 62
7
100
AcDbSpline
 70
8
 71
3
 72
8
 73
4
 74
0
 40
0
 40
0
 40
0
 40
0
 40
1
 40
1
 40
1
 40
1
 10
249.447264
 20
427.254380
 30
0.0
 10
245.777925
 20
429.387708
 30
0.0
 10
242.876589
 20
432.267705
 30
0.0
 10
240.743256
 20
435.894372
 30
0.0
  0
SPLINE
  5
144
100
AcDbEntity
  8
etch
 62
7
100
AcDbSpline
 70
8
 71
3
 72
8
 73
4
 74
0
 40
0
 40
0
 40
0
 40
0
 40
1
 40
1
 40
1
 40
1
 10
240.743256
 20
435.894372
 30
0.0
 10
238.652584
 20
439.563705
 30
0.0
 10
237.607248
 20
443.617038
 30
0.0
 10
237.607248
 20
448.054372
 30
0.0
  0
SPLINE
  5
145
100
AcDbEntity
  8
etch
 62
7
100
AcDbSpline
 70
8
 71
3
 72
8
 73
4
 74
0
 40
0
 40
0
 40
0
 40
0
 40
1
 40
1
 40
1
 40
1
 10
237.607248
 20
448.054372
 30
0.0
 10
237.607248
 20
452.491710
 30
0.0
 10
238.652584
 20
456.523713
 30
0.0
 10
240.743256
 20
460.150380
 30
0.0
  0
SPLINE
  5
146
100
AcDbEntity
  8
etch
 62
7
100
AcDbSpline
 70
8
 71
3
 72
8
 73
4
 74
0
 40
0
 40
0
 40
0
 40
0
 40
1
 40
1
 40
1
 40
1
 10
240.743256
 20
460.150380
 30
0.0
 10
242.876589
 20
463.819702
 30
0.0
 10
245.777925
 20
466.699700
 30
0.0
 10
249.447264
 20
468.790372
 30
0.0
  0
SPLINE
  5
147
100
AcDbEntity
  8
etch
 62
7
100
AcDbSpline
 70
8
 71
3
 72
8
 73
4
 74
0
 40
0
 40
0
 40
0
 40
0
 40
1
 40
1
 40
1
 40
1
 10
249.447264
 20
468.790372
 30
0.0
 10
253.116587
 20
470.923705
 30
0.0
 10
257.169920
 20
471.990372
 30
0.0
 10
261.607264
 20
471.990372
 30
0.0
  0
SPLINE
  5
148
100
AcDbEntity
  8
etch
 62
7
100
AcDbSpline
 70
8
 71
3
 72
8
 73
4
 74
0
 40
0
 40
0
 40
0
 40
0
 40
1
 40
1
 40
1
 40
1
 10
261.607264
 20
471.990372
 30
0.0
 10
268.519264
 20
471.990372
 30
0.0
 10
274.236592
 20
469.494372
 30
0.0
 10
278.759248
 20
464.502372
 30
0.0
  0
LWPOLYLINE
  5
149
100
AcDbEntity
  8
etch
 62
7
100
AcDbPolyline
 90
6
 70
1
 10
208.945264
 20
448.694372
 30
0.0
 10
230.641264
 20
448.694372
 30
0.0
 10
230.641264
 20
441.270364
 30
0.0
 10
208.945264
 20
441.270364
 30
0.0
 10
208.945264
 20
448.694372
 30
0.0
 10
208.945264
 20
448.694372
 30
0.0
  0
SPLINE
  5
14a
100
AcDbEntity
  8
etch
 62
7
100
AcDbSpline
 70
8
 71
3
 72
8
 73
4
 74
0
 40
0
 40
0
 40
0
 40
0
 40
1
 40
1
 40
1
 40
1
 10
272.679256
 20
458.614380
 30
0.0
 10
269.735256
 20
462.070380
 30
0.0
 10
266.065920
 20
463.798380
 30
0.0
 10
261.671248
 20
463.798380
 30
0.0
  0
SPLINE
  5
14b
100
AcDbEntity
  8
etch
 62
7
100
AcDbSpline
 70
8
 71
3
 72
8
 73
4
 74
0
 40
0
 40
0
 40
0
 40
0
 40
1
 40
1
 40
1
 40
1
 10
261.671248
 20
463.798380
 30
0.0
 10
258.812587
 20
463.798380
 30
0.0
 10
256.209920
 20
463.137044
 30
0.0
 10
253.863248
 20
461.814372
 30
0.0
  0
SPLINE
  5
14c
100
AcDbEntity
  8
etch
 62
7
100
AcDbSpline
 70
8
 71
3
 72
8
 73
4
 74
0
 40
0
 40
0
 40
0
 40
0
 40
1
 40
1
 40
1
 40
1
 10
253.863248
 20
461.814372
 30
0.0
 10
251.516587
 20
460.534377
 30
0.0
 10
249.660589
 20
458.699708
 30
0.0
 10
248.295256
 20
456.310364
 30
0.0
  0
SPLINE
  5
14d
100
AcDbEntity
  8
etch
 62
7
100
AcDbSpline
 70
8
 71
3
 72
8
 73
4
 74
0
 40
0
 40
0
 40
0
 40
0
 40
1
 40
1
 40
1
 40
1
 10
248.295256
 20
456.310364
 30
0.0
 10
246.972595
 20
453.921036
 30
0.0
 10
246.311264
 20
451.169038
 30
0.0
 10
246.311264
 20
448.054372
 30
0.0
  0
SPLINE
  5
14e
100
AcDbEntity
  8
etch
 62
7
100
AcDbSpline
 70
8
 71
3
 72
8
 73
4
 74
0
 40
0
 40
0
 40
0
 40
0
 40
1
 40
1
 40
1
 40
1
 10
246.311264
 20
448.054372
 30
0.0
 10
246.311264
 20
444.939700
 30
0.0
 10
246.972595
 20
442.187700
 30
0.0
 10
248.295256
 20
439.798372
 30
0.0
  0
SPLINE
  5
14f
100
AcDbEntity
  8
etch
 62
7
100
AcDbSpline
 70
8
 71
3
 72
8
 73
4
 74
0
 40
0
 40
0
 40
0
 40
0
 40
1
 40
1
 40
1
 40
1
 10
248.295256
 20
439.798372
 30
0.0
 10
249.660589
 20
437.409038
 30
0.0
 10
251.516587
 20
435.553041
 30
0.0
 10
253.863248
 20
434.230380
 30
0.0
  0
SPLINE
  5
150
100
AcDbEntity
  8
etch
 62
7
100
AcDbSpline
 70
8
 71
3
 72
8
 73
4
 74
0
 40
0
 40
0
 40
0
 40
0
 40
1
 40
1
 40
1
 40
1
 10
253.863248
 20
434.230380
 30
0.0
 10
256.209920
 20
432.950374
 30
0.0
 10
258.812587
 20
432.310372
 30
0.0
 10
261.671248
 20
432.310372
 30
0.0
  0
SPLINE
  5
151
100
AcDbEntity
  8
etch
 62
7
100
AcDbSpline
 70
8
 71
3
 72
8
 73
4
 74
0
 40
0
 40
0
 40
0
 40
0
 40
1
 40
1
 40
1
 40
1
 10
261.671248
 20
432.310372
 30
0.0
 10
266.492581
 20
432.310372
 30
0.0
 10
270.524584
 20
434.315705
 30
0.0
 10
273.767256
 20
438.326372
 30
0.0
  0
LWPOLYLINE
  5
152
100
AcDbEntity
  8
etch
 62
7
100
AcDbPolyline
 90
2
 70
1
 10
278.759248
 20
464.502372
 30
0.0
 10
272.679256
 20
458.614380
 30
0.0
  0
SPLINE
  5
153
100
AcDbEntity
  8
etch
 62
7
100
AcDbSpline
 70
8
 71
3
 72
8
 73
4
 74
0
 40
0
 40
0
 40
0
 40
0
 40
1
 40
1
 40
1
 40
1
 10
279.911256
 20
432.502372
 30
0.0
 10
277.649923
 20
429.771705
 30
0.0
 10
274.961923
 20
427.681036
 30
0.0
 10
271.847256
 20
426.230364
 30
0.0
  0
SPLINE
  5
154
100
AcDbEntity
  8
etch
 62
7
100
AcDbSpline
 70
8
 71
3
 72
8
 73
4
 74
0
 40
0
 40
0
 40
0
 40
0
 40
1
 40
1
 40
1
 40
1
 10
271.847256
 20
426.230364
 30
0.0
 10
268.775256
 20
424.822374
 30
0.0
 10
265.361925
 20
424.118380
 30
0.0
 10
261.607264
 20
424.118380
 30
0.0
  0
LWPOLYLINE
  5
155
100
AcDbEntity
  8
etch
 62
7
100
AcDbPolyline
 90
2
 70
1
 10
273.767256
 20
438.326372
 30
0.0
 10
279.911256
 20
432.502372
 30
0.0
  0
LWPOLYLINE
  5
156
100
AcDbEntity
  8
etch
 62
7
100
AcDbPolyline
 90
2
 70
1
 10
261.607264
 20
424.118380
 30
0.0
 10
261.607264
 20
424.118380
 30
0.0
  0
SPLINE
  5
157
100
AcDbEntity
  8
etch
 62
7
100
AcDbSpline
 70
8
 71
3
 72
8
 73
4
 74
0
 40
0
 40
0
 40
0
 40
0
 40
1
 40
1
 40
1
 40
1
 10
318.125264
 20
424.118380
 30
0.0
 10
314.754592
 20
424.118380
 30
0.0
 10
311.746595
 20
424.865044
 30
0.0
 10
309.101272
 20
426.358372
 30
0.0
  0
SPLINE
  5
158
100
AcDbEntity
  8
etch
 62
7
100
AcDbSpline
 70
8
 71
3
 72
8
 73
4
 74
0
 40
0
 40
0
 40
0
 40
0
 40
1
 40
1
 40
1
 40
1
 10
309.101272
 20
426.358372
 30
0.0
 10
306.455933
 20
427.894372
 30
0.0
 10
304.386600
 20
429.963705
 30
0.0
 10
302.893272
 20
432.566372
 30
0.0
  0
SPLINE
  5
159
100
AcDbEntity
  8
etch
 62
7
100
AcDbSpline
 70
8
 71
3
 72
8
 73
4
 74
0
 40
0
 40
0
 40
0
 40
0
 40
1
 40
1
 40
1
 40
1
 10
302.893272
 20
432.566372
 30
0.0
 10
301.442600
 20
435.211710
 30
0.0
 10
300.717264
 20
438.177046
 30
0.0
 10
300.717264
 20
441.462380
 30
0.0
  0
SPLINE
  5
15a
100
AcDbEntity
  8
etch
 62
7
100
AcDbSpline
 70
8
 71
3
 72
8
 73
4
 74
0
 40
0
 40
0
 40
0
 40
0
 40
1
 40
1
 40
1
 40
1
 10
300.717264
 20
441.462380
 30
0.0
 10
300.717264
 20
444.705041
 30
0.0
 10
301.442600
 20
447.649041
 30
0.0
 10
302.893272
 20
450.294380
 30
0.0
  0
SPLINE
  5
15b
100
AcDbEntity
  8
etch
 62
7
100
AcDbSpline
 70
8
 71
3
 72
8
 73
4
 74
0
 40
0
 40
0
 40
0
 40
0
 40
1
 40
1
 40
1
 40
1
 10
302.893272
 20
450.294380
 30
0.0
 10
304.386600
 20
452.939702
 30
0.0
 10
306.455933
 20
455.009036
 30
0.0
 10
309.101272
 20
456.502380
 30
0.0
  0
SPLINE
  5
15c
100
AcDbEntity
  8
etch
 62
7
100
AcDbSpline
 70
8
 71
3
 72
8
 73
4
 74
0
 40
0
 40
0
 40
0
 40
0
 40
1
 40
1
 40
1
 40
1
 10
309.101272
 20
456.502380
 30
0.0
 10
311.746595
 20
458.038380
 30
0.0
 10
314.754592
 20
458.806380
 30
0.0
 10
318.125264
 20
458.806380
 30
0.0
  0
SPLINE
  5
15d
100
AcDbEntity
  8
etch
 62
7
100
AcDbSpline
 70
8
 71
3
 72
8
 73
4
 74
0
 40
0
 40
0
 40
0
 40
0
 40
1
 40
1
 40
1
 40
1
 10
318.125264
 20
458.806380
 30
0.0
 10
321.453269
 20
458.806380
 30
0.0
 10
324.439936
 20
458.038380
 30
0.0
 10
327.085264
 20
456.502380
 30
0.0
  0
SPLINE
  5
15e
100
AcDbEntity
  8
etch
 62
7
100
AcDbSpline
 70
8
 71
3
 72
8
 73
4
 74
0
 40
0
 40
0
 40
0
 40
0
 40
1
 40
1
 40
1
 40
1
 10
327.085264
 20
456.502380
 30
0.0
 10
329.730597
 20
455.009036
 30
0.0
 10
331.778600
 20
452.939702
 30
0.0
 10
333.229272
 20
450.294380
 30
0.0
  0
SPLINE
  5
15f
100
AcDbEntity
  8
etch
 62
7
100
AcDbSpline
 70
8
 71
3
 72
8
 73
4
 74
0
 40
0
 40
0
 40
0
 40
0
 40
1
 40
1
 40
1
 40
1
 10
333.229272
 20
450.294380
 30
0.0
 10
334.722600
 20
447.649041
 30
0.0
 10
335.469264
 20
444.705041
 30
0.0
 10
335.469264
 20
441.462380
 30
0.0
  0
SPLINE
  5
160
100
AcDbEntity
  8
etch
 62
7
100
AcDbSpline
 70
8
 71
3
 72
8
 73
4
 74
0
 40
0
 40
0
 40
0
 40
0
 40
1
 40
1
 40
1
 40
1
 10
335.469264
 20
441.462380
 30
0.0
 10
335.469264
 20
438.177046
 30
0.0
 10
334.722600
 20
435.211710
 30
0.0
 10
333.229272
 20
432.566372
 30
0.0
  0
SPLINE
  5
161
100
AcDbEntity
  8
etch
 62
7
100
AcDbSpline
 70
8
 71
3
 72
8
 73
4
 74
0
 40
0
 40
0
 40
0
 40
0
 40
1
 40
1
 40
1
 40
1
 10
333.229272
 20
432.566372
 30
0.0
 10
331.778600
 20
429.963705
 30
0.0
 10
329.730597
 20
427.894372
 30
0.0
 10
327.085264
 20
426.358372
 30
0.0
  0
SPLINE
  5
162
100
AcDbEntity
  8
etch
 62
7
100
AcDbSpline
 70
8
 71
3
 72
8
 73
4
 74
0
 40
0
 40
0
 40
0
 40
0
 40
1
 40
1
 40
1
 40
1
 10
327.085264
 20
426.358372
 30
0.0
 10
324.439936
 20
424.865044
 30
0.0
 10
321.453269
 20
424.118380
 30
0.0
 10
318.125264
 20
424.118380
 30
0.0
  0
LWPOLYLINE
  5
163
100
AcDbEntity
  8
etch
 62
7
100
AcDbPolyline
 90
6
 70
1
 10
286.259256
 20
470.966372
 30
0.0
 10
294.643248
 20
470.966372
 30
0.0
 10
294.643248
 20
425.142380
 30
0.0
 10
286.259256
 20
425.142380
 30
0.0
 10
286.259256
 20
470.966372
 30
0.0
 10
286.259256
 20
470.966372
 30
0.0
  0
SPLINE
  5
164
100
AcDbEntity
  8
etch
 62
7
100
AcDbSpline
 70
8
 71
3
 72
8
 73
4
 74
0
 40
0
 40
0
 40
0
 40
0
 40
1
 40
1
 40
1
 40
1
 10
318.125264
 20
431.862380
 30
0.0
 10
319.746603
 20
431.862380
 30
0.0
 10
321.239939
 20
432.246374
 30
0.0
 10
322.605272
 20
433.014364
 30
0.0
  0
SPLINE
  5
165
100
AcDbEntity
  8
etch
 62
7
100
AcDbSpline
 70
8
 71
3
 72
8
 73
4
 74
0
 40
0
 40
0
 40
0
 40
0
 40
1
 40
1
 40
1
 40
1
 10
322.605272
 20
433.014364
 30
0.0
 10
323.970605
 20
433.782369
 30
0.0
 10
325.058603
 20
434.891702
 30
0.0
 10
325.869264
 20
436.342364
 30
0.0
  0
SPLINE
  5
166
100
AcDbEntity
  8
etch
 62
7
100
AcDbSpline
 70
8
 71
3
 72
8
 73
4
 74
0
 40
0
 40
0
 40
0
 40
0
 40
1
 40
1
 40
1
 40
1
 10
325.869264
 20
436.342364
 30
0.0
 10
326.679931
 20
437.793036
 30
0.0
 10
327.085264
 20
439.499708
 30
0.0
 10
327.085264
 20
441.462380
 30
0.0
  0
SPLINE
  5
167
100
AcDbEntity
  8
etch
 62
7
100
AcDbSpline
 70
8
 71
3
 72
8
 73
4
 74
0
 40
0
 40
0
 40
0
 40
0
 40
1
 40
1
 40
1
 40
1
 10
327.085264
 20
441.462380
 30
0.0
 10
327.085264
 20
443.382380
 30
0.0
 10
326.679931
 20
445.067710
 30
0.0
 10
325.869264
 20
446.518372
 30
0.0
  0
SPLINE
  5
168
100
AcDbEntity
  8
etch
 62
7
100
AcDbSpline
 70
8
 71
3
 72
8
 73
4
 74
0
 40
0
 40
0
 40
0
 40
0
 40
1
 40
1
 40
1
 40
1
 10
325.869264
 20
446.518372
 30
0.0
 10
325.058603
 20
447.969038
 30
0.0
 10
323.970605
 20
449.078369
 30
0.0
 10
322.605272
 20
449.846364
 30
0.0
  0
SPLINE
  5
169
100
AcDbEntity
  8
etch
 62
7
100
AcDbSpline
 70
8
 71
3
 72
8
 73
4
 74
0
 40
0
 40
0
 40
0
 40
0
 40
1
 40
1
 40
1
 40
1
 10
322.605272
 20
449.846364
 30
0.0
 10
321.239939
 20
450.614369
 30
0.0
 10
319.746603
 20
450.998372
 30
0.0
 10
318.125264
 20
450.998372
 30
0.0
  0
SPLINE
  5
16a
100
AcDbEntity
  8
etch
 62
7
100
AcDbSpline
 70
8
 71
3
 72
8
 73
4
 74
0
 40
0
 40
0
 40
0
 40
0
 40
1
 40
1
 40
1
 40
1
 10
318.125264
 20
450.998372
 30
0.0
 10
316.503931
 20
450.998372
 30
0.0
 10
315.010597
 20
450.614369
 30
0.0
 10
313.645264
 20
449.846364
 30
0.0
  0
SPLINE
  5
16b
100
AcDbEntity
  8
etch
 62
7
100
AcDbSpline
 70
8
 71
3
 72
8
 73
4
 74
0
 40
0
 40
0
 40
0
 40
0
 40
1
 40
1
 40
1
 40
1
 10
313.645264
 20
449.846364
 30
0.0
 10
312.279931
 20
449.078369
 30
0.0
 10
311.170597
 20
447.969038
 30
0.0
 10
310.317264
 20
446.518372
 30
0.0
  0
SPLINE
  5
16c
100
AcDbEntity
  8
etch
 62
7
100
AcDbSpline
 70
8
 71
3
 72
8
 73
4
 74
0
 40
0
 40
0
 40
0
 40
0
 40
1
 40
1
 40
1
 40
1
 10
310.317264
 20
446.518372
 30
0.0
 10
309.506603
 20
445.067710
 30
0.0
 10
309.101272
 20
443.382380
 30
0.0
 10
309.101272
 20
441.462380
 30
0.0
  0
SPLINE
  5
16d
100
AcDbEntity
  8
etch
 62
7
100
AcDbSpline
 70
8
 71
3
 72
8
 73
4
 74
0
 40
0
 40
0
 40
0
 40
0
 40
1
 40
1
 40
1
 40
1
 10
309.101272
 20
441.462380
 30
0.0
 10
309.101272
 20
439.542374
 30
0.0
 10
309.506603
 20
437.835702
 30
0.0
 10
310.317264
 20
436.342364
 30
0.0
  0
SPLINE
  5
16e
100
AcDbEntity
  8
etch
 62
7
100
AcDbSpline
 70
8
 71
3
 72
8
 73
4
 74
0
 40
0
 40
0
 40
0
 40
0
 40
1
 40
1
 40
1
 40
1
 10
310.317264
 20
436.342364
 30
0.0
 10
311.170597
 20
434.891702
 30
0.0
 10
312.279931
 20
433.782369
 30
0.0
 10
313.645264
 20
433.014364
 30
0.0
  0
SPLINE
  5
16f
100
AcDbEntity
  8
etch
 62
7
100
AcDbSpline
 70
8
 71
3
 72
8
 73
4
 74
0
 40
0
 40
0
 40
0
 40
0
 40
1
 40
1
 40
1
 40
1
 10
313.645264
 20
433.014364
 30
0.0
 10
315.010597
 20
432.246374
 30
0.0
 10
316.503931
 20
431.862380
 30
0.0
 10
318.125264
 20
431.862380
 30
0.0
  0
LWPOLYLINE
  5
170
100
AcDbEntity
  8
etch
 62
7
100
AcDbPolyline
 90
2
 70
1
 10
318.125264
 20
424.118380
 30
0.0
 10
318.125264
 20
424.118380
 30
0.0
  0
SPLINE
  5
171
100
AcDbEntity
  8
etch
 62
7
100
AcDbSpline
 70
8
 71
3
 72
8
 73
4
 74
0
 40
0
 40
0
 40
0
 40
0
 40
1
 40
1
 40
1
 40
1
 10
353.160248
 20
424.118380
 30
0.0
 10
349.234920
 20
424.118380
 30
0.0
 10
346.248251
 20
425.334380
 30
0.0
 10
344.200240
 20
427.766380
 30
0.0
  0
SPLINE
  5
172
100
AcDbEntity
  8
etch
 62
7
100
AcDbSpline
 70
8
 71
3
 72
8
 73
4
 74
0
 40
0
 40
0
 40
0
 40
0
 40
1
 40
1
 40
1
 40
1
 10
344.200240
 20
427.766380
 30
0.0
 10
342.152240
 20
430.198380
 30
0.0
 10
341.128240
 20
433.590377
 30
0.0
 10
341.128240
 20
437.942372
 30
0.0
  0
LWPOLYLINE
  5
173
100
AcDbEntity
  8
etch
 62
7
100
AcDbPolyline
 90
2
 70
1
 10
318.125264
 20
431.862380
 30
0.0
 10
318.125264
 20
431.862380
 30
0.0
  0
SPLINE
  5
174
100
AcDbEntity
  8
etch
 62
7
100
AcDbSpline
 70
8
 71
3
 72
8
 73
4
 74
0
 40
0
 40
0
 40
0
 40
0
 40
1
 40
1
 40
1
 40
1
 10
349.512248
 20
438.966364
 30
0.0
 10
349.512248
 20
436.747702
 30
0.0
 10
350.045581
 20
434.998374
 30
0.0
 10
351.112248
 20
433.718380
 30
0.0
  0
SPLINE
  5
175
100
AcDbEntity
  8
etch
 62
7
100
AcDbSpline
 70
8
 71
3
 72
8
 73
4
 74
0
 40
0
 40
0
 40
0
 40
0
 40
1
 40
1
 40
1
 40
1
 10
351.112248
 20
433.718380
 30
0.0
 10
352.178920
 20
432.481046
 30
0.0
 10
353.586917
 20
431.862380
 30
0.0
 10
355.336240
 20
431.862380
 30
0.0
  0
SPLINE
  5
176
100
AcDbEntity
  8
etch
 62
7
100
AcDbSpline
 70
8
 71
3
 72
8
 73
4
 74
0
 40
0
 40
0
 40
0
 40
0
 40
1
 40
1
 40
1
 40
1
 10
355.336240
 20
431.862380
 30
0.0
 10
357.725584
 20
431.862380
 30
0.0
 10
359.624251
 20
432.737046
 30
0.0
 10
361.032240
 20
434.486380
 30
0.0
  0
SPLINE
  5
177
100
AcDbEntity
  8
etch
 62
7
100
AcDbSpline
 70
8
 71
3
 72
8
 73
4
 74
0
 40
0
 40
0
 40
0
 40
0
 40
1
 40
1
 40
1
 40
1
 10
361.032240
 20
434.486380
 30
0.0
 10
362.440240
 20
436.235713
 30
0.0
 10
363.144240
 20
438.454377
 30
0.0
 10
363.144240
 20
441.142372
 30
0.0
  0
LWPOLYLINE
  5
178
100
AcDbEntity
  8
etch
 62
7
100
AcDbPolyline
 90
4
 70
1
 10
341.128240
 20
437.942372
 30
0.0
 10
341.128240
 20
457.782380
 30
0.0
 10
349.512248
 20
457.782380
 30
0.0
 10
349.512248
 20
438.966364
 30
0.0
  0
SPLINE
  5
179
100
AcDbEntity
  8
etch
 62
7
100
AcDbSpline
 70
8
 71
3
 72
8
 73
4
 74
0
 40
0
 40
0
 40
0
 40
0
 40
1
 40
1
 40
1
 40
1
 10
363.144240
 20
429.238372
 30
0.0
 10
362.162912
 20
427.659705
 30
0.0
 10
360.776245
 20
426.401036
 30
0.0
 10
358.984240
 20
425.462364
 30
0.0
  0
SPLINE
  5
17a
100
AcDbEntity
  8
etch
 62
7
100
AcDbSpline
 70
8
 71
3
 72
8
 73
4
 74
0
 40
0
 40
0
 40
0
 40
0
 40
1
 40
1
 40
1
 40
1
 10
358.984240
 20
425.462364
 30
0.0
 10
357.234907
 20
424.566374
 30
0.0
 10
355.293576
 20
424.118380
 30
0.0
 10
353.160248
 20
424.118380
 30
0.0
  0
LWPOLYLINE
  5
17b
100
AcDbEntity
  8
etch
 62
7
100
AcDbPolyline
 90
7
 70
1
 10
363.144240
 20
441.142372
 30
0.0
 10
363.144240
 20
457.782380
 30
0.0
 10
371.528248
 20
457.782380
 30
0.0
 10
371.528248
 20
425.142380
 30
0.0
 10
363.656240
 20
425.142380
 30
0.0
 10
363.656240
 20
429.238372
 30
0.0
 10
363.144240
 20
429.238372
 30
0.0
  0
SPLINE
  5
17c
100
AcDbEntity
  8
etch
 62
7
100
AcDbSpline
 70
8
 71
3
 72
8
 73
4
 74
0
 40
0
 40
0
 40
0
 40
0
 40
1
 40
1
 40
1
 40
1
 10
393.400256
 20
424.118380
 30
0.0
 10
390.456256
 20
424.118380
 30
0.0
 10
387.768253
 20
424.843710
 30
0.0
 10
385.336248
 20
426.294372
 30
0.0
  0
SPLINE
  5
17d
100
AcDbEntity
  8
etch
 62
7
100
AcDbSpline
 70
8
 71
3
 72
8
 73
4
 74
0
 40
0
 40
0
 40
0
 40
0
 40
1
 40
1
 40
1
 40
1
 10
385.336248
 20
426.294372
 30
0.0
 10
382.946920
 20
427.787710
 30
0.0
 10
381.048256
 20
429.835713
 30
0.0
 10
379.640256
 20
432.438380
 30
0.0
  0
SPLINE
  5
17e
100
AcDbEntity
  8
etch
 62
7
100
AcDbSpline
 70
8
 71
3
 72
8
 73
4
 74
0
 40
0
 40
0
 40
0
 40
0
 40
1
 40
1
 40
1
 40
1
 10
379.640256
 20
432.438380
 30
0.0
 10
378.274923
 20
435.083708
 30
0.0
 10
377.592256
 20
438.091708
 30
0.0
 10
377.592256
 20
441.462380
 30
0.0
  0
SPLINE
  5
17f
100
AcDbEntity
  8
etch
 62
7
100
AcDbSpline
 70
8
 71
3
 72
8
 73
4
 74
0
 40
0
 40
0
 40
0
 40
0
 40
1
 40
1
 40
1
 40
1
 10
377.592256
 20
441.462380
 30
0.0
 10
377.592256
 20
444.790369
 30
0.0
 10
378.274923
 20
447.777033
 30
0.0
 10
379.640256
 20
450.422372
 30
0.0
  0
SPLINE
  5
180
100
AcDbEntity
  8
etch
 62
7
100
AcDbSpline
 70
8
 71
3
 72
8
 73
4
 74
0
 40
0
 40
0
 40
0
 40
0
 40
1
 40
1
 40
1
 40
1
 10
379.640256
 20
450.422372
 30
0.0
 10
381.048256
 20
453.067705
 30
0.0
 10
382.946920
 20
455.115702
 30
0.0
 10
385.336248
 20
456.566364
 30
0.0
  0
SPLINE
  5
181
100
AcDbEntity
  8
etch
 62
7
100
AcDbSpline
 70
8
 71
3
 72
8
 73
4
 74
0
 40
0
 40
0
 40
0
 40
0
 40
1
 40
1
 40
1
 40
1
 10
385.336248
 20
456.566364
 30
0.0
 10
387.768253
 20
458.059708
 30
0.0
 10
390.456256
 20
458.806380
 30
0.0
 10
393.400256
 20
458.806380
 30
0.0
  0
SPLINE
  5
182
100
AcDbEntity
  8
etch
 62
7
100
AcDbSpline
 70
8
 71
3
 72
8
 73
4
 74
0
 40
0
 40
0
 40
0
 40
0
 40
1
 40
1
 40
1
 40
1
 10
393.400256
 20
458.806380
 30
0.0
 10
395.618917
 20
458.806380
 30
0.0
 10
397.581581
 20
458.315713
 30
0.0
 10
399.288248
 20
457.334380
 30
0.0
  0
SPLINE
  5
183
100
AcDbEntity
  8
etch
 62
7
100
AcDbSpline
 70
8
 71
3
 72
8
 73
4
 74
0
 40
0
 40
0
 40
0
 40
0
 40
1
 40
1
 40
1
 40
1
 10
399.288248
 20
457.334380
 30
0.0
 10
400.994925
 20
456.395708
 30
0.0
 10
402.296259
 20
455.222372
 30
0.0
 10
403.192248
 20
453.814372
 30
0.0
  0
LWPOLYLINE
  5
184
100
AcDbEntity
  8
etch
 62
7
100
AcDbPolyline
 90
2
 70
1
 10
353.160248
 20
424.118380
 30
0.0
 10
353.160248
 20
424.118380
 30
0.0
  0
SPLINE
  5
185
100
AcDbEntity
  8
etch
 62
7
100
AcDbSpline
 70
8
 71
3
 72
8
 73
4
 74
0
 40
0
 40
0
 40
0
 40
0
 40
1
 40
1
 40
1
 40
1
 10
403.192248
 20
429.046380
 30
0.0
 10
402.338915
 20
427.638380
 30
0.0
 10
401.037581
 20
426.465044
 30
0.0
 10
399.288248
 20
425.526372
 30
0.0
  0
SPLINE
  5
186
100
AcDbEntity
  8
etch
 62
7
100
AcDbSpline
 70
8
 71
3
 72
8
 73
4
 74
0
 40
0
 40
0
 40
0
 40
0
 40
1
 40
1
 40
1
 40
1
 10
399.288248
 20
425.526372
 30
0.0
 10
397.581581
 20
424.587710
 30
0.0
 10
395.618917
 20
424.118380
 30
0.0
 10
393.400256
 20
424.118380
 30
0.0
  0
LWPOLYLINE
  5
187
100
AcDbEntity
  8
etch
 62
7
100
AcDbPolyline
 90
9
 70
1
 10
403.192248
 20
453.814372
 30
0.0
 10
403.704248
 20
453.814372
 30
0.0
 10
403.192248
 20
458.422372
 30
0.0
 10
403.192248
 20
470.966372
 30
0.0
 10
411.512248
 20
470.966372
 30
0.0
 10
411.512248
 20
425.142380
 30
0.0
 10
403.704248
 20
425.142380
 30
0.0
 10
403.704248
 20
429.046380
 30
0.0
 10
403.192248
 20
429.046380
 30
0.0
  0
SPLINE
  5
188
100
AcDbEntity
  8
etch
 62
7
100
AcDbSpline
 70
8
 71
3
 72
8
 73
4
 74
0
 40
0
 40
0
 40
0
 40
0
 40
1
 40
1
 40
1
 40
1
 10
394.808264
 20
431.862380
 30
0.0
 10
396.386931
 20
431.862380
 30
0.0
 10
397.858931
 20
432.267710
 30
0.0
 10
399.224264
 20
433.078372
 30
0.0
  0
SPLINE
  5
189
100
AcDbEntity
  8
etch
 62
7
100
AcDbSpline
 70
8
 71
3
 72
8
 73
4
 74
0
 40
0
 40
0
 40
0
 40
0
 40
1
 40
1
 40
1
 40
1
 10
399.224264
 20
433.078372
 30
0.0
 10
400.589592
 20
433.889033
 30
0.0
 10
401.677589
 20
435.019700
 30
0.0
 10
402.488256
 20
436.470372
 30
0.0
  0
SPLINE
  5
18a
100
AcDbEntity
  8
etch
 62
7
100
AcDbSpline
 70
8
 71
3
 72
8
 73
4
 74
0
 40
0
 40
0
 40
0
 40
0
 40
1
 40
1
 40
1
 40
1
 10
402.488256
 20
436.470372
 30
0.0
 10
403.298917
 20
437.921044
 30
0.0
 10
403.704248
 20
439.585046
 30
0.0
 10
403.704248
 20
441.462380
 30
0.0
  0
SPLINE
  5
18b
100
AcDbEntity
  8
etch
 62
7
100
AcDbSpline
 70
8
 71
3
 72
8
 73
4
 74
0
 40
0
 40
0
 40
0
 40
0
 40
1
 40
1
 40
1
 40
1
 10
403.704248
 20
441.462380
 30
0.0
 10
403.704248
 20
443.339708
 30
0.0
 10
403.298917
 20
445.003702
 30
0.0
 10
402.488256
 20
446.454364
 30
0.0
  0
SPLINE
  5
18c
100
AcDbEntity
  8
etch
 62
7
100
AcDbSpline
 70
8
 71
3
 72
8
 73
4
 74
0
 40
0
 40
0
 40
0
 40
0
 40
1
 40
1
 40
1
 40
1
 10
402.488256
 20
446.454364
 30
0.0
 10
401.677589
 20
447.905036
 30
0.0
 10
400.589592
 20
449.014374
 30
0.0
 10
399.224264
 20
449.782380
 30
0.0
  0
SPLINE
  5
18d
100
AcDbEntity
  8
etch
 62
7
100
AcDbSpline
 70
8
 71
3
 72
8
 73
4
 74
0
 40
0
 40
0
 40
0
 40
0
 40
1
 40
1
 40
1
 40
1
 10
399.224264
 20
449.782380
 30
0.0
 10
397.858931
 20
450.593041
 30
0.0
 10
396.386931
 20
450.998372
 30
0.0
 10
394.808264
 20
450.998372
 30
0.0
  0
SPLINE
  5
18e
100
AcDbEntity
  8
etch
 62
7
100
AcDbSpline
 70
8
 71
3
 72
8
 73
4
 74
0
 40
0
 40
0
 40
0
 40
0
 40
1
 40
1
 40
1
 40
1
 10
394.808264
 20
450.998372
 30
0.0
 10
393.272264
 20
450.998372
 30
0.0
 10
391.821597
 20
450.593041
 30
0.0
 10
390.456264
 20
449.782380
 30
0.0
  0
SPLINE
  5
18f
100
AcDbEntity
  8
etch
 62
7
100
AcDbSpline
 70
8
 71
3
 72
8
 73
4
 74
0
 40
0
 40
0
 40
0
 40
0
 40
1
 40
1
 40
1
 40
1
 10
390.456264
 20
449.782380
 30
0.0
 10
389.090920
 20
449.014374
 30
0.0
 10
388.002917
 20
447.905036
 30
0.0
 10
387.192256
 20
446.454364
 30
0.0
  0
SPLINE
  5
190
100
AcDbEntity
  8
etch
 62
7
100
AcDbSpline
 70
8
 71
3
 72
8
 73
4
 74
0
 40
0
 40
0
 40
0
 40
0
 40
1
 40
1
 40
1
 40
1
 10
387.192256
 20
446.454364
 30
0.0
 10
386.381589
 20
445.003702
 30
0.0
 10
385.976256
 20
443.339708
 30
0.0
 10
385.976256
 20
441.462380
 30
0.0
  0
SPLINE
  5
191
100
AcDbEntity
  8
etch
 62
7
100
AcDbSpline
 70
8
 71
3
 72
8
 73
4
 74
0
 40
0
 40
0
 40
0
 40
0
 40
1
 40
1
 40
1
 40
1
 10
385.976256
 20
441.462380
 30
0.0
 10
385.976256
 20
439.585046
 30
0.0
 10
386.381589
 20
437.921044
 30
0.0
 10
387.192256
 20
436.470372
 30
0.0
  0
SPLINE
  5
192
100
AcDbEntity
  8
etch
 62
7
100
AcDbSpline
 70
8
 71
3
 72
8
 73
4
 74
0
 40
0
 40
0
 40
0
 40
0
 40
1
 40
1
 40
1
 40
1
 10
387.192256
 20
436.470372
 30
0.0
 10
388.002917
 20
435.019700
 30
0.0
 10
389.090920
 20
433.889033
 30
0.0
 10
390.456264
 20
433.078372
 30
0.0
  0
SPLINE
  5
193
100
AcDbEntity
  8
etch
 62
7
100
AcDbSpline
 70
8
 71
3
 72
8
 73
4
 74
0
 40
0
 40
0
 40
0
 40
0
 40
1
 40
1
 40
1
 40
1
 10
390.456264
 20
433.078372
 30
0.0
 10
391.821597
 20
432.267710
 30
0.0
 10
393.272264
 20
431.862380
 30
0.0
 10
394.808264
 20
431.862380
 30
0.0
  0
LWPOLYLINE
  5
194
100
AcDbEntity
  8
etch
 62
7
100
AcDbPolyline
 90
2
 70
1
 10
393.400256
 20
424.118380
 30
0.0
 10
393.400256
 20
424.118380
 30
0.0
  0
SPLINE
  5
195
100
AcDbEntity
  8
etch
 62
7
100
AcDbSpline
 70
8
 71
3
 72
8
 73
4
 74
0
 40
0
 40
0
 40
0
 40
0
 40
1
 40
1
 40
1
 40
1
 10
58.228256
 20
484.484508
 30
0.0
 10
53.833590
 20
484.484508
 30
0.0
 10
49.780257
 20
485.508510
 30
0.0
 10
46.068257
 20
487.556516
 30
0.0
  0
SPLINE
  5
196
100
AcDbEntity
  8
etch
 62
7
100
AcDbSpline
 70
8
 71
3
 72
8
 73
4
 74
0
 40
0
 40
0
 40
0
 40
0
 40
1
 40
1
 40
1
 40
1
 10
46.068257
 20
487.556516
 30
0.0
 10
42.398923
 20
489.647188
 30
0.0
 10
39.476257
 20
492.505852
 30
0.0
 10
37.300258
 20
496.132508
 30
0.0
  0
SPLINE
  5
197
100
AcDbEntity
  8
etch
 62
7
100
AcDbSpline
 70
8
 71
3
 72
8
 73
4
 74
0
 40
0
 40
0
 40
0
 40
0
 40
1
 40
1
 40
1
 40
1
 10
37.300258
 20
496.132508
 30
0.0
 10
35.124258
 20
499.801846
 30
0.0
 10
34.036258
 20
503.897849
 30
0.0
 10
34.036258
 20
508.420516
 30
0.0
  0
SPLINE
  5
198
100
AcDbEntity
  8
etch
 62
7
100
AcDbSpline
 70
8
 71
3
 72
8
 73
4
 74
0
 40
0
 40
0
 40
0
 40
0
 40
1
 40
1
 40
1
 40
1
 10
34.036258
 20
508.420516
 30
0.0
 10
34.036258
 20
512.943182
 30
0.0
 10
35.124258
 20
517.017849
 30
0.0
 10
37.300258
 20
520.644516
 30
0.0
  0
SPLINE
  5
199
100
AcDbEntity
  8
etch
 62
7
100
AcDbSpline
 70
8
 71
3
 72
8
 73
4
 74
0
 40
0
 40
0
 40
0
 40
0
 40
1
 40
1
 40
1
 40
1
 10
37.300258
 20
520.644516
 30
0.0
 10
39.476257
 20
524.313844
 30
0.0
 10
42.398923
 20
527.172513
 30
0.0
 10
46.068257
 20
529.220524
 30
0.0
  0
SPLINE
  5
19a
100
AcDbEntity
  8
etch
 62
7
100
AcDbSpline
 70
8
 71
3
 72
8
 73
4
 74
0
 40
0
 40
0
 40
0
 40
0
 40
1
 40
1
 40
1
 40
1
 10
46.068257
 20
529.220524
 30
0.0
 10
49.780257
 20
531.311180
 30
0.0
 10
53.833590
 20
532.356508
 30
0.0
 10
58.228256
 20
532.356508
 30
0.0
  0
SPLINE
  5
19b
100
AcDbEntity
  8
etch
 62
7
100
AcDbSpline
 70
8
 71
3
 72
8
 73
4
 74
0
 40
0
 40
0
 40
0
 40
0
 40
1
 40
1
 40
1
 40
1
 10
58.228256
 20
532.356508
 30
0.0
 10
61.812257
 20
532.356508
 30
0.0
 10
65.076257
 20
531.716510
 30
0.0
 10
68.020257
 20
530.436516
 30
0.0
  0
SPLINE
  5
19c
100
AcDbEntity
  8
etch
 62
7
100
AcDbSpline
 70
8
 71
3
 72
8
 73
4
 74
0
 40
0
 40
0
 40
0
 40
0
 40
1
 40
1
 40
1
 40
1
 10
68.020257
 20
530.436516
 30
0.0
 10
71.006923
 20
529.199177
 30
0.0
 10
73.566922
 20
527.428510
 30
0.0
 10
75.700255
 20
525.124516
 30
0.0
  0
LWPOLYLINE
  5
19d
100
AcDbEntity
  8
etch
 62
7
100
AcDbPolyline
 90
2
 70
1
 10
394.808264
 20
431.862380
 30
0.0
 10
394.808264
 20
431.862380
 30
0.0
  0
SPLINE
  5
19e
100
AcDbEntity
  8
etch
 62
7
100
AcDbSpline
 70
8
 71
3
 72
8
 73
4
 74
0
 40
0
 40
0
 40
0
 40
0
 40
1
 40
1
 40
1
 40
1
 10
69.748257
 20
519.300516
 30
0.0
 10
68.212256
 20
520.921849
 30
0.0
 10
66.505589
 20
522.137846
 30
0.0
 10
64.628256
 20
522.948508
 30
0.0
  0
SPLINE
  5
19f
100
AcDbEntity
  8
etch
 62
7
100
AcDbSpline
 70
8
 71
3
 72
8
 73
4
 74
0
 40
0
 40
0
 40
0
 40
0
 40
1
 40
1
 40
1
 40
1
 10
64.628256
 20
522.948508
 30
0.0
 10
62.793590
 20
523.759180
 30
0.0
 10
60.638923
 20
524.164516
 30
0.0
 10
58.164257
 20
524.164516
 30
0.0
  0
SPLINE
  5
1a0
100
AcDbEntity
  8
etch
 62
7
100
AcDbSpline
 70
8
 71
3
 72
8
 73
4
 74
0
 40
0
 40
0
 40
0
 40
0
 40
1
 40
1
 40
1
 40
1
 10
58.164257
 20
524.164516
 30
0.0
 10
55.348257
 20
524.164516
 30
0.0
 10
52.766923
 20
523.503182
 30
0.0
 10
50.420257
 20
522.180516
 30
0.0
  0
SPLINE
  5
1a1
100
AcDbEntity
  8
etch
 62
7
100
AcDbSpline
 70
8
 71
3
 72
8
 73
4
 74
0
 40
0
 40
0
 40
0
 40
0
 40
1
 40
1
 40
1
 40
1
 10
50.420257
 20
522.180516
 30
0.0
 10
48.073591
 20
520.900516
 30
0.0
 10
46.196257
 20
519.044513
 30
0.0
 10
44.788257
 20
516.612508
 30
0.0
  0
SPLINE
  5
1a2
100
AcDbEntity
  8
etch
 62
7
100
AcDbSpline
 70
8
 71
3
 72
8
 73
4
 74
0
 40
0
 40
0
 40
0
 40
0
 40
1
 40
1
 40
1
 40
1
 10
44.788257
 20
516.612508
 30
0.0
 10
43.422923
 20
514.223174
 30
0.0
 10
42.740257
 20
511.492510
 30
0.0
 10
42.740257
 20
508.420516
 30
0.0
  0
SPLINE
  5
1a3
100
AcDbEntity
  8
etch
 62
7
100
AcDbSpline
 70
8
 71
3
 72
8
 73
4
 74
0
 40
0
 40
0
 40
0
 40
0
 40
1
 40
1
 40
1
 40
1
 10
42.740257
 20
508.420516
 30
0.0
 10
42.740257
 20
505.348510
 30
0.0
 10
43.444257
 20
502.596510
 30
0.0
 10
44.852258
 20
500.164516
 30
0.0
  0
SPLINE
  5
1a4
100
AcDbEntity
  8
etch
 62
7
100
AcDbSpline
 70
8
 71
3
 72
8
 73
4
 74
0
 40
0
 40
0
 40
0
 40
0
 40
1
 40
1
 40
1
 40
1
 10
44.852258
 20
500.164516
 30
0.0
 10
46.260258
 20
497.775182
 30
0.0
 10
48.137591
 20
495.919180
 30
0.0
 10
50.484257
 20
494.596508
 30
0.0
  0
SPLINE
  5
1a5
100
AcDbEntity
  8
etch
 62
7
100
AcDbSpline
 70
8
 71
3
 72
8
 73
4
 74
0
 40
0
 40
0
 40
0
 40
0
 40
1
 40
1
 40
1
 40
1
 10
50.484257
 20
494.596508
 30
0.0
 10
52.873590
 20
493.316513
 30
0.0
 10
55.476257
 20
492.676516
 30
0.0
 10
58.292257
 20
492.676516
 30
0.0
  0
SPLINE
  5
1a6
100
AcDbEntity
  8
etch
 62
7
100
AcDbSpline
 70
8
 71
3
 72
8
 73
4
 74
0
 40
0
 40
0
 40
0
 40
0
 40
1
 40
1
 40
1
 40
1
 10
58.292257
 20
492.676516
 30
0.0
 10
62.558923
 20
492.676516
 30
0.0
 10
66.057590
 20
493.935182
 30
0.0
 10
68.788257
 20
496.452516
 30
0.0
  0
SPLINE
  5
1a7
100
AcDbEntity
  8
etch
 62
7
100
AcDbSpline
 70
8
 71
3
 72
8
 73
4
 74
0
 40
0
 40
0
 40
0
 40
0
 40
1
 40
1
 40
1
 40
1
 10
68.788257
 20
496.452516
 30
0.0
 10
69.641590
 20
497.220510
 30
0.0
 10
70.388257
 20
498.201844
 30
0.0
 10
71.028257
 20
499.396516
 30
0.0
  0
SPLINE
  5
1a8
100
AcDbEntity
  8
etch
 62
7
100
AcDbSpline
 70
8
 71
3
 72
8
 73
4
 74
0
 40
0
 40
0
 40
0
 40
0
 40
1
 40
1
 40
1
 40
1
 10
71.028257
 20
499.396516
 30
0.0
 10
71.668256
 20
500.591177
 30
0.0
 10
72.137590
 20
501.892513
 30
0.0
 10
72.436257
 20
503.300524
 30
0.0
  0
LWPOLYLINE
  5
1a9
100
AcDbEntity
  8
etch
 62
7
100
AcDbPolyline
 90
2
 70
1
 10
75.700255
 20
525.124516
 30
0.0
 10
69.748257
 20
519.300516
 30
0.0
  0
SPLINE
  5
1aa
100
AcDbEntity
  8
etch
 62
7
100
AcDbSpline
 70
8
 71
3
 72
8
 73
4
 74
0
 40
0
 40
0
 40
0
 40
0
 40
1
 40
1
 40
1
 40
1
 10
80.500256
 20
510.660516
 30
0.0
 10
80.798923
 20
509.465844
 30
0.0
 10
80.948256
 20
508.121841
 30
0.0
 10
80.948256
 20
506.628508
 30
0.0
  0
SPLINE
  5
1ab
100
AcDbEntity
  8
etch
 62
7
100
AcDbSpline
 70
8
 71
3
 72
8
 73
4
 74
0
 40
0
 40
0
 40
0
 40
0
 40
1
 40
1
 40
1
 40
1
 10
80.948256
 20
506.628508
 30
0.0
 10
80.948256
 20
503.599180
 30
0.0
 10
80.478923
 20
500.783180
 30
0.0
 10
79.540256
 20
498.180508
 30
0.0
  0
SPLINE
  5
1ac
100
AcDbEntity
  8
etch
 62
7
100
AcDbSpline
 70
8
 71
3
 72
8
 73
4
 74
0
 40
0
 40
0
 40
0
 40
0
 40
1
 40
1
 40
1
 40
1
 10
79.540256
 20
498.180508
 30
0.0
 10
78.644255
 20
495.577852
 30
0.0
 10
77.257589
 20
493.295188
 30
0.0
 10
75.380255
 20
491.332516
 30
0.0
  0
SPLINE
  5
1ad
100
AcDbEntity
  8
etch
 62
7
100
AcDbSpline
 70
8
 71
3
 72
8
 73
4
 74
0
 40
0
 40
0
 40
0
 40
0
 40
1
 40
1
 40
1
 40
1
 10
75.380255
 20
491.332516
 30
0.0
 10
73.332256
 20
489.113849
 30
0.0
 10
70.857589
 20
487.407185
 30
0.0
 10
67.956256
 20
486.212524
 30
0.0
  0
SPLINE
  5
1ae
100
AcDbEntity
  8
etch
 62
7
100
AcDbSpline
 70
8
 71
3
 72
8
 73
4
 74
0
 40
0
 40
0
 40
0
 40
0
 40
1
 40
1
 40
1
 40
1
 10
67.956256
 20
486.212524
 30
0.0
 10
65.054923
 20
485.060513
 30
0.0
 10
61.812257
 20
484.484508
 30
0.0
 10
58.228256
 20
484.484508
 30
0.0
  0
LWPOLYLINE
  5
1af
100
AcDbEntity
  8
etch
 62
7
100
AcDbPolyline
 90
4
 70
1
 10
72.436257
 20
503.300524
 30
0.0
 10
58.036256
 20
503.300524
 30
0.0
 10
58.036256
 20
510.660516
 30
0.0
 10
80.500256
 20
510.660516
 30
0.0
  0
SPLINE
  5
1b0
100
AcDbEntity
  8
etch
 62
7
100
AcDbSpline
 70
8
 71
3
 72
8
 73
4
 74
0
 40
0
 40
0
 40
0
 40
0
 40
1
 40
1
 40
1
 40
1
 10
103.304256
 20
484.484508
 30
0.0
 10
99.933589
 20
484.484508
 30
0.0
 10
96.925589
 20
485.231174
 30
0.0
 10
94.280256
 20
486.724508
 30
0.0
  0
SPLINE
  5
1b1
100
AcDbEntity
  8
etch
 62
7
100
AcDbSpline
 70
8
 71
3
 72
8
 73
4
 74
0
 40
0
 40
0
 40
0
 40
0
 40
1
 40
1
 40
1
 40
1
 10
94.280256
 20
486.724508
 30
0.0
 10
91.634923
 20
488.260518
 30
0.0
 10
89.565589
 20
490.329852
 30
0.0
 10
88.072256
 20
492.932508
 30
0.0
  0
SPLINE
  5
1b2
100
AcDbEntity
  8
etch
 62
7
100
AcDbSpline
 70
8
 71
3
 72
8
 73
4
 74
0
 40
0
 40
0
 40
0
 40
0
 40
1
 40
1
 40
1
 40
1
 10
88.072256
 20
492.932508
 30
0.0
 10
86.621589
 20
495.577852
 30
0.0
 10
85.896256
 20
498.543188
 30
0.0
 10
85.896256
 20
501.828516
 30
0.0
  0
SPLINE
  5
1b3
100
AcDbEntity
  8
etch
 62
7
100
AcDbSpline
 70
8
 71
3
 72
8
 73
4
 74
0
 40
0
 40
0
 40
0
 40
0
 40
1
 40
1
 40
1
 40
1
 10
85.896256
 20
501.828516
 30
0.0
 10
85.896256
 20
505.071188
 30
0.0
 10
86.621589
 20
508.015188
 30
0.0
 10
88.072256
 20
510.660516
 30
0.0
  0
SPLINE
  5
1b4
100
AcDbEntity
  8
etch
 62
7
100
AcDbSpline
 70
8
 71
3
 72
8
 73
4
 74
0
 40
0
 40
0
 40
0
 40
0
 40
1
 40
1
 40
1
 40
1
 10
88.072256
 20
510.660516
 30
0.0
 10
89.565589
 20
513.305849
 30
0.0
 10
91.634923
 20
515.375182
 30
0.0
 10
94.280256
 20
516.868516
 30
0.0
  0
SPLINE
  5
1b5
100
AcDbEntity
  8
etch
 62
7
100
AcDbSpline
 70
8
 71
3
 72
8
 73
4
 74
0
 40
0
 40
0
 40
0
 40
0
 40
1
 40
1
 40
1
 40
1
 10
94.280256
 20
516.868516
 30
0.0
 10
96.925589
 20
518.404516
 30
0.0
 10
99.933589
 20
519.172516
 30
0.0
 10
103.304256
 20
519.172516
 30
0.0
  0
SPLINE
  5
1b6
100
AcDbEntity
  8
etch
 62
7
100
AcDbSpline
 70
8
 71
3
 72
8
 73
4
 74
0
 40
0
 40
0
 40
0
 40
0
 40
1
 40
1
 40
1
 40
1
 10
103.304256
 20
519.172516
 30
0.0
 10
106.632256
 20
519.172516
 30
0.0
 10
109.618923
 20
518.404516
 30
0.0
 10
112.264256
 20
516.868516
 30
0.0
  0
SPLINE
  5
1b7
100
AcDbEntity
  8
etch
 62
7
100
AcDbSpline
 70
8
 71
3
 72
8
 73
4
 74
0
 40
0
 40
0
 40
0
 40
0
 40
1
 40
1
 40
1
 40
1
 10
112.264256
 20
516.868516
 30
0.0
 10
114.909589
 20
515.375182
 30
0.0
 10
116.957592
 20
513.305849
 30
0.0
 10
118.408264
 20
510.660516
 30
0.0
  0
SPLINE
  5
1b8
100
AcDbEntity
  8
etch
 62
7
100
AcDbSpline
 70
8
 71
3
 72
8
 73
4
 74
0
 40
0
 40
0
 40
0
 40
0
 40
1
 40
1
 40
1
 40
1
 10
118.408264
 20
510.660516
 30
0.0
 10
119.901587
 20
508.015188
 30
0.0
 10
120.648248
 20
505.071188
 30
0.0
 10
120.648248
 20
501.828516
 30
0.0
  0
SPLINE
  5
1b9
100
AcDbEntity
  8
etch
 62
7
100
AcDbSpline
 70
8
 71
3
 72
8
 73
4
 74
0
 40
0
 40
0
 40
0
 40
0
 40
1
 40
1
 40
1
 40
1
 10
120.648248
 20
501.828516
 30
0.0
 10
120.648248
 20
498.543188
 30
0.0
 10
119.901587
 20
495.577852
 30
0.0
 10
118.408264
 20
492.932508
 30
0.0
  0
SPLINE
  5
1ba
100
AcDbEntity
  8
etch
 62
7
100
AcDbSpline
 70
8
 71
3
 72
8
 73
4
 74
0
 40
0
 40
0
 40
0
 40
0
 40
1
 40
1
 40
1
 40
1
 10
118.408264
 20
492.932508
 30
0.0
 10
116.957592
 20
490.329852
 30
0.0
 10
114.909589
 20
488.260518
 30
0.0
 10
112.264256
 20
486.724508
 30
0.0
  0
SPLINE
  5
1bb
100
AcDbEntity
  8
etch
 62
7
100
AcDbSpline
 70
8
 71
3
 72
8
 73
4
 74
0
 40
0
 40
0
 40
0
 40
0
 40
1
 40
1
 40
1
 40
1
 10
112.264256
 20
486.724508
 30
0.0
 10
109.618923
 20
485.231174
 30
0.0
 10
106.632256
 20
484.484508
 30
0.0
 10
103.304256
 20
484.484508
 30
0.0
  0
LWPOLYLINE
  5
1bc
100
AcDbEntity
  8
etch
 62
7
100
AcDbPolyline
 90
2
 70
1
 10
58.228256
 20
484.484508
 30
0.0
 10
58.228256
 20
484.484508
 30
0.0
  0
SPLINE
  5
1bd
100
AcDbEntity
  8
etch
 62
7
100
AcDbSpline
 70
8
 71
3
 72
8
 73
4
 74
0
 40
0
 40
0
 40
0
 40
0
 40
1
 40
1
 40
1
 40
1
 10
103.304256
 20
492.228524
 30
0.0
 10
104.925589
 20
492.228524
 30
0.0
 10
106.418923
 20
492.612521
 30
0.0
 10
107.784256
 20
493.380516
 30
0.0
  0
SPLINE
  5
1be
100
AcDbEntity
  8
etch
 62
7
100
AcDbSpline
 70
8
 71
3
 72
8
 73
4
 74
0
 40
0
 40
0
 40
0
 40
0
 40
1
 40
1
 40
1
 40
1
 10
107.784256
 20
493.380516
 30
0.0
 10
109.149589
 20
494.148516
 30
0.0
 10
110.237589
 20
495.257852
 30
0.0
 10
111.048256
 20
496.708524
 30
0.0
  0
SPLINE
  5
1bf
100
AcDbEntity
  8
etch
 62
7
100
AcDbSpline
 70
8
 71
3
 72
8
 73
4
 74
0
 40
0
 40
0
 40
0
 40
0
 40
1
 40
1
 40
1
 40
1
 10
111.048256
 20
496.708524
 30
0.0
 10
111.858923
 20
498.159185
 30
0.0
 10
112.264256
 20
499.865849
 30
0.0
 10
112.264256
 20
501.828516
 30
0.0
  0
SPLINE
  5
1c0
100
AcDbEntity
  8
etch
 62
7
100
AcDbSpline
 70
8
 71
3
 72
8
 73
4
 74
0
 40
0
 40
0
 40
0
 40
0
 40
1
 40
1
 40
1
 40
1
 10
112.264256
 20
501.828516
 30
0.0
 10
112.264256
 20
503.748516
 30
0.0
 10
111.858923
 20
505.433849
 30
0.0
 10
111.048256
 20
506.884516
 30
0.0
  0
SPLINE
  5
1c1
100
AcDbEntity
  8
etch
 62
7
100
AcDbSpline
 70
8
 71
3
 72
8
 73
4
 74
0
 40
0
 40
0
 40
0
 40
0
 40
1
 40
1
 40
1
 40
1
 10
111.048256
 20
506.884516
 30
0.0
 10
110.237589
 20
508.335177
 30
0.0
 10
109.149589
 20
509.444508
 30
0.0
 10
107.784256
 20
510.212508
 30
0.0
  0
SPLINE
  5
1c2
100
AcDbEntity
  8
etch
 62
7
100
AcDbSpline
 70
8
 71
3
 72
8
 73
4
 74
0
 40
0
 40
0
 40
0
 40
0
 40
1
 40
1
 40
1
 40
1
 10
107.784256
 20
510.212508
 30
0.0
 10
106.418923
 20
510.980518
 30
0.0
 10
104.925589
 20
511.364524
 30
0.0
 10
103.304256
 20
511.364524
 30
0.0
  0
SPLINE
  5
1c3
100
AcDbEntity
  8
etch
 62
7
100
AcDbSpline
 70
8
 71
3
 72
8
 73
4
 74
0
 40
0
 40
0
 40
0
 40
0
 40
1
 40
1
 40
1
 40
1
 10
103.304256
 20
511.364524
 30
0.0
 10
101.682923
 20
511.364524
 30
0.0
 10
100.189589
 20
510.980518
 30
0.0
 10
98.824256
 20
510.212508
 30
0.0
  0
SPLINE
  5
1c4
100
AcDbEntity
  8
etch
 62
7
100
AcDbSpline
 70
8
 71
3
 72
8
 73
4
 74
0
 40
0
 40
0
 40
0
 40
0
 40
1
 40
1
 40
1
 40
1
 10
98.824256
 20
510.212508
 30
0.0
 10
97.458923
 20
509.444508
 30
0.0
 10
96.349589
 20
508.335177
 30
0.0
 10
95.496256
 20
506.884516
 30
0.0
  0
SPLINE
  5
1c5
100
AcDbEntity
  8
etch
 62
7
100
AcDbSpline
 70
8
 71
3
 72
8
 73
4
 74
0
 40
0
 40
0
 40
0
 40
0
 40
1
 40
1
 40
1
 40
1
 10
95.496256
 20
506.884516
 30
0.0
 10
94.685589
 20
505.433849
 30
0.0
 10
94.280256
 20
503.748516
 30
0.0
 10
94.280256
 20
501.828516
 30
0.0
  0
SPLINE
  5
1c6
100
AcDbEntity
  8
etch
 62
7
100
AcDbSpline
 70
8
 71
3
 72
8
 73
4
 74
0
 40
0
 40
0
 40
0
 40
0
 40
1
 40
1
 40
1
 40
1
 10
94.280256
 20
501.828516
 30
0.0
 10
94.280256
 20
499.908510
 30
0.0
 10
94.685589
 20
498.201846
 30
0.0
 10
95.496256
 20
496.708524
 30
0.0
  0
SPLINE
  5
1c7
100
AcDbEntity
  8
etch
 62
7
100
AcDbSpline
 70
8
 71
3
 72
8
 73
4
 74
0
 40
0
 40
0
 40
0
 40
0
 40
1
 40
1
 40
1
 40
1
 10
95.496256
 20
496.708524
 30
0.0
 10
96.349589
 20
495.257852
 30
0.0
 10
97.458923
 20
494.148516
 30
0.0
 10
98.824256
 20
493.380516
 30
0.0
  0
SPLINE
  5
1c8
100
AcDbEntity
  8
etch
 62
7
100
AcDbSpline
 70
8
 71
3
 72
8
 73
4
 74
0
 40
0
 40
0
 40
0
 40
0
 40
1
 40
1
 40
1
 40
1
 10
98.824256
 20
493.380516
 30
0.0
 10
100.189589
 20
492.612521
 30
0.0
 10
101.682923
 20
492.228524
 30
0.0
 10
103.304256
 20
492.228524
 30
0.0
  0
LWPOLYLINE
  5
1c9
100
AcDbEntity
  8
etch
 62
7
100
AcDbPolyline
 90
2
 70
1
 10
103.304256
 20
484.484508
 30
0.0
 10
103.304256
 20
484.484508
 30
0.0
  0
SPLINE
  5
1ca
100
AcDbEntity
  8
etch
 62
7
100
AcDbSpline
 70
8
 71
3
 72
8
 73
4
 74
0
 40
0
 40
0
 40
0
 40
0
 40
1
 40
1
 40
1
 40
1
 10
142.554256
 20
484.484508
 30
0.0
 10
139.183589
 20
484.484508
 30
0.0
 10
136.175589
 20
485.231174
 30
0.0
 10
133.530256
 20
486.724508
 30
0.0
  0
SPLINE
  5
1cb
100
AcDbEntity
  8
etch
 62
7
100
AcDbSpline
 70
8
 71
3
 72
8
 73
4
 74
0
 40
0
 40
0
 40
0
 40
0
 40
1
 40
1
 40
1
 40
1
 10
133.530256
 20
486.724508
 30
0.0
 10
130.884923
 20
488.260518
 30
0.0
 10
128.815589
 20
490.329852
 30
0.0
 10
127.322256
 20
492.932508
 30
0.0
  0
SPLINE
  5
1cc
100
AcDbEntity
  8
etch
 62
7
100
AcDbSpline
 70
8
 71
3
 72
8
 73
4
 74
0
 40
0
 40
0
 40
0
 40
0
 40
1
 40
1
 40
1
 40
1
 10
127.322256
 20
492.932508
 30
0.0
 10
125.871584
 20
495.577852
 30
0.0
 10
125.146248
 20
498.543188
 30
0.0
 10
125.146248
 20
501.828516
 30
0.0
  0
SPLINE
  5
1cd
100
AcDbEntity
  8
etch
 62
7
100
AcDbSpline
 70
8
 71
3
 72
8
 73
4
 74
0
 40
0
 40
0
 40
0
 40
0
 40
1
 40
1
 40
1
 40
1
 10
125.146248
 20
501.828516
 30
0.0
 10
125.146248
 20
505.071188
 30
0.0
 10
125.871584
 20
508.015188
 30
0.0
 10
127.322256
 20
510.660516
 30
0.0
  0
SPLINE
  5
1ce
100
AcDbEntity
  8
etch
 62
7
100
AcDbSpline
 70
8
 71
3
 72
8
 73
4
 74
0
 40
0
 40
0
 40
0
 40
0
 40
1
 40
1
 40
1
 40
1
 10
127.322256
 20
510.660516
 30
0.0
 10
128.815589
 20
513.305849
 30
0.0
 10
130.884923
 20
515.375182
 30
0.0
 10
133.530256
 20
516.868516
 30
0.0
  0
SPLINE
  5
1cf
100
AcDbEntity
  8
etch
 62
7
100
AcDbSpline
 70
8
 71
3
 72
8
 73
4
 74
0
 40
0
 40
0
 40
0
 40
0
 40
1
 40
1
 40
1
 40
1
 10
133.530256
 20
516.868516
 30
0.0
 10
136.175589
 20
518.404516
 30
0.0
 10
139.183589
 20
519.172516
 30
0.0
 10
142.554256
 20
519.172516
 30
0.0
  0
SPLINE
  5
1d0
100
AcDbEntity
  8
etch
 62
7
100
AcDbSpline
 70
8
 71
3
 72
8
 73
4
 74
0
 40
0
 40
0
 40
0
 40
0
 40
1
 40
1
 40
1
 40
1
 10
142.554256
 20
519.172516
 30
0.0
 10
145.882251
 20
519.172516
 30
0.0
 10
148.868920
 20
518.404516
 30
0.0
 10
151.514264
 20
516.868516
 30
0.0
  0
SPLINE
  5
1d1
100
AcDbEntity
  8
etch
 62
7
100
AcDbSpline
 70
8
 71
3
 72
8
 73
4
 74
0
 40
0
 40
0
 40
0
 40
0
 40
1
 40
1
 40
1
 40
1
 10
151.514264
 20
516.868516
 30
0.0
 10
154.159592
 20
515.375182
 30
0.0
 10
156.207587
 20
513.305849
 30
0.0
 10
157.658248
 20
510.660516
 30
0.0
  0
SPLINE
  5
1d2
100
AcDbEntity
  8
etch
 62
7
100
AcDbSpline
 70
8
 71
3
 72
8
 73
4
 74
0
 40
0
 40
0
 40
0
 40
0
 40
1
 40
1
 40
1
 40
1
 10
157.658248
 20
510.660516
 30
0.0
 10
159.151581
 20
508.015188
 30
0.0
 10
159.898248
 20
505.071188
 30
0.0
 10
159.898248
 20
501.828516
 30
0.0
  0
SPLINE
  5
1d3
100
AcDbEntity
  8
etch
 62
7
100
AcDbSpline
 70
8
 71
3
 72
8
 73
4
 74
0
 40
0
 40
0
 40
0
 40
0
 40
1
 40
1
 40
1
 40
1
 10
159.898248
 20
501.828516
 30
0.0
 10
159.898248
 20
498.543188
 30
0.0
 10
159.151581
 20
495.577852
 30
0.0
 10
157.658248
 20
492.932508
 30
0.0
  0
SPLINE
  5
1d4
100
AcDbEntity
  8
etch
 62
7
100
AcDbSpline
 70
8
 71
3
 72
8
 73
4
 74
0
 40
0
 40
0
 40
0
 40
0
 40
1
 40
1
 40
1
 40
1
 10
157.658248
 20
492.932508
 30
0.0
 10
156.207587
 20
490.329852
 30
0.0
 10
154.159592
 20
488.260518
 30
0.0
 10
151.514264
 20
486.724508
 30
0.0
  0
SPLINE
  5
1d5
100
AcDbEntity
  8
etch
 62
7
100
AcDbSpline
 70
8
 71
3
 72
8
 73
4
 74
0
 40
0
 40
0
 40
0
 40
0
 40
1
 40
1
 40
1
 40
1
 10
151.514264
 20
486.724508
 30
0.0
 10
148.868920
 20
485.231174
 30
0.0
 10
145.882251
 20
484.484508
 30
0.0
 10
142.554256
 20
484.484508
 30
0.0
  0
LWPOLYLINE
  5
1d6
100
AcDbEntity
  8
etch
 62
7
100
AcDbPolyline
 90
2
 70
1
 10
103.304256
 20
492.228524
 30
0.0
 10
103.304256
 20
492.228524
 30
0.0
  0
SPLINE
  5
1d7
100
AcDbEntity
  8
etch
 62
7
100
AcDbSpline
 70
8
 71
3
 72
8
 73
4
 74
0
 40
0
 40
0
 40
0
 40
0
 40
1
 40
1
 40
1
 40
1
 10
142.554256
 20
492.228524
 30
0.0
 10
144.175589
 20
492.228524
 30
0.0
 10
145.668923
 20
492.612521
 30
0.0
 10
147.034256
 20
493.380516
 30
0.0
  0
SPLINE
  5
1d8
100
AcDbEntity
  8
etch
 62
7
100
AcDbSpline
 70
8
 71
3
 72
8
 73
4
 74
0
 40
0
 40
0
 40
0
 40
0
 40
1
 40
1
 40
1
 40
1
 10
147.034256
 20
493.380516
 30
0.0
 10
148.399595
 20
494.148516
 30
0.0
 10
149.487595
 20
495.257852
 30
0.0
 10
150.298256
 20
496.708524
 30
0.0
  0
SPLINE
  5
1d9
100
AcDbEntity
  8
etch
 62
7
100
AcDbSpline
 70
8
 71
3
 72
8
 73
4
 74
0
 40
0
 40
0
 40
0
 40
0
 40
1
 40
1
 40
1
 40
1
 10
150.298256
 20
496.708524
 30
0.0
 10
151.108928
 20
498.159185
 30
0.0
 10
151.514264
 20
499.865849
 30
0.0
 10
151.514264
 20
501.828516
 30
0.0
  0
SPLINE
  5
1da
100
AcDbEntity
  8
etch
 62
7
100
AcDbSpline
 70
8
 71
3
 72
8
 73
4
 74
0
 40
0
 40
0
 40
0
 40
0
 40
1
 40
1
 40
1
 40
1
 10
151.514264
 20
501.828516
 30
0.0
 10
151.514264
 20
503.748516
 30
0.0
 10
151.108928
 20
505.433849
 30
0.0
 10
150.298256
 20
506.884516
 30
0.0
  0
SPLINE
  5
1db
100
AcDbEntity
  8
etch
 62
7
100
AcDbSpline
 70
8
 71
3
 72
8
 73
4
 74
0
 40
0
 40
0
 40
0
 40
0
 40
1
 40
1
 40
1
 40
1
 10
150.298256
 20
506.884516
 30
0.0
 10
149.487595
 20
508.335177
 30
0.0
 10
148.399595
 20
509.444508
 30
0.0
 10
147.034256
 20
510.212508
 30
0.0
  0
SPLINE
  5
1dc
100
AcDbEntity
  8
etch
 62
7
100
AcDbSpline
 70
8
 71
3
 72
8
 73
4
 74
0
 40
0
 40
0
 40
0
 40
0
 40
1
 40
1
 40
1
 40
1
 10
147.034256
 20
510.212508
 30
0.0
 10
145.668923
 20
510.980518
 30
0.0
 10
144.175589
 20
511.364524
 30
0.0
 10
142.554256
 20
511.364524
 30
0.0
  0
SPLINE
  5
1dd
100
AcDbEntity
  8
etch
 62
7
100
AcDbSpline
 70
8
 71
3
 72
8
 73
4
 74
0
 40
0
 40
0
 40
0
 40
0
 40
1
 40
1
 40
1
 40
1
 10
142.554256
 20
511.364524
 30
0.0
 10
140.932923
 20
511.364524
 30
0.0
 10
139.439589
 20
510.980518
 30
0.0
 10
138.074256
 20
510.212508
 30
0.0
  0
SPLINE
  5
1de
100
AcDbEntity
  8
etch
 62
7
100
AcDbSpline
 70
8
 71
3
 72
8
 73
4
 74
0
 40
0
 40
0
 40
0
 40
0
 40
1
 40
1
 40
1
 40
1
 10
138.074256
 20
510.212508
 30
0.0
 10
136.708923
 20
509.444508
 30
0.0
 10
135.599587
 20
508.335177
 30
0.0
 10
134.746248
 20
506.884516
 30
0.0
  0
SPLINE
  5
1df
100
AcDbEntity
  8
etch
 62
7
100
AcDbSpline
 70
8
 71
3
 72
8
 73
4
 74
0
 40
0
 40
0
 40
0
 40
0
 40
1
 40
1
 40
1
 40
1
 10
134.746248
 20
506.884516
 30
0.0
 10
133.935587
 20
505.433849
 30
0.0
 10
133.530256
 20
503.748516
 30
0.0
 10
133.530256
 20
501.828516
 30
0.0
  0
SPLINE
  5
1e0
100
AcDbEntity
  8
etch
 62
7
100
AcDbSpline
 70
8
 71
3
 72
8
 73
4
 74
0
 40
0
 40
0
 40
0
 40
0
 40
1
 40
1
 40
1
 40
1
 10
133.530256
 20
501.828516
 30
0.0
 10
133.530256
 20
499.908510
 30
0.0
 10
133.935587
 20
498.201846
 30
0.0
 10
134.746248
 20
496.708524
 30
0.0
  0
SPLINE
  5
1e1
100
AcDbEntity
  8
etch
 62
7
100
AcDbSpline
 70
8
 71
3
 72
8
 73
4
 74
0
 40
0
 40
0
 40
0
 40
0
 40
1
 40
1
 40
1
 40
1
 10
134.746248
 20
496.708524
 30
0.0
 10
135.599587
 20
495.257852
 30
0.0
 10
136.708923
 20
494.148516
 30
0.0
 10
138.074256
 20
493.380516
 30
0.0
  0
SPLINE
  5
1e2
100
AcDbEntity
  8
etch
 62
7
100
AcDbSpline
 70
8
 71
3
 72
8
 73
4
 74
0
 40
0
 40
0
 40
0
 40
0
 40
1
 40
1
 40
1
 40
1
 10
138.074256
 20
493.380516
 30
0.0
 10
139.439589
 20
492.612521
 30
0.0
 10
140.932923
 20
492.228524
 30
0.0
 10
142.554256
 20
492.228524
 30
0.0
  0
LWPOLYLINE
  5
1e3
100
AcDbEntity
  8
etch
 62
7
100
AcDbPolyline
 90
2
 70
1
 10
142.554256
 20
484.484508
 30
0.0
 10
142.554256
 20
484.484508
 30
0.0
  0
SPLINE
  5
1e4
100
AcDbEntity
  8
etch
 62
7
100
AcDbSpline
 70
8
 71
3
 72
8
 73
4
 74
0
 40
0
 40
0
 40
0
 40
0
 40
1
 40
1
 40
1
 40
1
 10
181.228240
 20
470.660516
 30
0.0
 10
177.089579
 20
470.660516
 30
0.0
 10
173.654917
 20
471.599182
 30
0.0
 10
170.924256
 20
473.476516
 30
0.0
  0
SPLINE
  5
1e5
100
AcDbEntity
  8
etch
 62
7
100
AcDbSpline
 70
8
 71
3
 72
8
 73
4
 74
0
 40
0
 40
0
 40
0
 40
0
 40
1
 40
1
 40
1
 40
1
 10
170.924256
 20
473.476516
 30
0.0
 10
168.193589
 20
475.311188
 30
0.0
 10
166.358920
 20
477.529852
 30
0.0
 10
165.420248
 20
480.132508
 30
0.0
  0
LWPOLYLINE
  5
1e6
100
AcDbEntity
  8
etch
 62
7
100
AcDbPolyline
 90
2
 70
1
 10
142.554256
 20
492.228524
 30
0.0
 10
142.554256
 20
492.228524
 30
0.0
  0
SPLINE
  5
1e7
100
AcDbEntity
  8
etch
 62
7
100
AcDbSpline
 70
8
 71
3
 72
8
 73
4
 74
0
 40
0
 40
0
 40
0
 40
0
 40
1
 40
1
 40
1
 40
1
 10
173.292248
 20
483.332508
 30
0.0
 10
173.974920
 20
481.711174
 30
0.0
 10
175.020256
 20
480.431177
 30
0.0
 10
176.428256
 20
479.492516
 30
0.0
  0
SPLINE
  5
1e8
100
AcDbEntity
  8
etch
 62
7
100
AcDbSpline
 70
8
 71
3
 72
8
 73
4
 74
0
 40
0
 40
0
 40
0
 40
0
 40
1
 40
1
 40
1
 40
1
 10
176.428256
 20
479.492516
 30
0.0
 10
177.836251
 20
478.553844
 30
0.0
 10
179.436245
 20
478.084508
 30
0.0
 10
181.228240
 20
478.084508
 30
0.0
  0
SPLINE
  5
1e9
100
AcDbEntity
  8
etch
 62
7
100
AcDbSpline
 70
8
 71
3
 72
8
 73
4
 74
0
 40
0
 40
0
 40
0
 40
0
 40
1
 40
1
 40
1
 40
1
 10
181.228240
 20
478.084508
 30
0.0
 10
183.873584
 20
478.084508
 30
0.0
 10
185.964256
 20
478.895174
 30
0.0
 10
187.500256
 20
480.516508
 30
0.0
  0
SPLINE
  5
1ea
100
AcDbEntity
  8
etch
 62
7
100
AcDbSpline
 70
8
 71
3
 72
8
 73
4
 74
0
 40
0
 40
0
 40
0
 40
0
 40
1
 40
1
 40
1
 40
1
 10
187.500256
 20
480.516508
 30
0.0
 10
189.078912
 20
482.137841
 30
0.0
 10
189.868240
 20
484.441844
 30
0.0
 10
189.868240
 20
487.428516
 30
0.0
  0
LWPOLYLINE
  5
1eb
100
AcDbEntity
  8
etch
 62
7
100
AcDbPolyline
 90
2
 70
1
 10
165.420248
 20
480.132508
 30
0.0
 10
173.292248
 20
483.332508
 30
0.0
  0
SPLINE
  5
1ec
100
AcDbEntity
  8
etch
 62
7
100
AcDbSpline
 70
8
 71
3
 72
8
 73
4
 74
0
 40
0
 40
0
 40
0
 40
0
 40
1
 40
1
 40
1
 40
1
 10
189.356256
 20
489.988516
 30
0.0
 10
188.332256
 20
488.537849
 30
0.0
 10
186.988253
 20
487.428516
 30
0.0
 10
185.324248
 20
486.660516
 30
0.0
  0
SPLINE
  5
1ed
100
AcDbEntity
  8
etch
 62
7
100
AcDbSpline
 70
8
 71
3
 72
8
 73
4
 74
0
 40
0
 40
0
 40
0
 40
0
 40
1
 40
1
 40
1
 40
1
 10
185.324248
 20
486.660516
 30
0.0
 10
183.660248
 20
485.892516
 30
0.0
 10
181.761584
 20
485.508516
 30
0.0
 10
179.628256
 20
485.508516
 30
0.0
  0
SPLINE
  5
1ee
100
AcDbEntity
  8
etch
 62
7
100
AcDbSpline
 70
8
 71
3
 72
8
 73
4
 74
0
 40
0
 40
0
 40
0
 40
0
 40
1
 40
1
 40
1
 40
1
 10
179.628256
 20
485.508516
 30
0.0
 10
176.940245
 20
485.508516
 30
0.0
 10
174.422912
 20
486.191182
 30
0.0
 10
172.076256
 20
487.556516
 30
0.0
  0
SPLINE
  5
1ef
100
AcDbEntity
  8
etch
 62
7
100
AcDbSpline
 70
8
 71
3
 72
8
 73
4
 74
0
 40
0
 40
0
 40
0
 40
0
 40
1
 40
1
 40
1
 40
1
 10
172.076256
 20
487.556516
 30
0.0
 10
169.772251
 20
488.964516
 30
0.0
 10
167.916248
 20
490.927182
 30
0.0
 10
166.508248
 20
493.444516
 30
0.0
  0
SPLINE
  5
1f0
100
AcDbEntity
  8
etch
 62
7
100
AcDbSpline
 70
8
 71
3
 72
8
 73
4
 74
0
 40
0
 40
0
 40
0
 40
0
 40
1
 40
1
 40
1
 40
1
 10
166.508248
 20
493.444516
 30
0.0
 10
165.100253
 20
496.004521
 30
0.0
 10
164.396256
 20
498.969852
 30
0.0
 10
164.396256
 20
502.340508
 30
0.0
  0
SPLINE
  5
1f1
100
AcDbEntity
  8
etch
 62
7
100
AcDbSpline
 70
8
 71
3
 72
8
 73
4
 74
0
 40
0
 40
0
 40
0
 40
0
 40
1
 40
1
 40
1
 40
1
 10
164.396256
 20
502.340508
 30
0.0
 10
164.396256
 20
505.711174
 30
0.0
 10
165.100253
 20
508.655180
 30
0.0
 10
166.508248
 20
511.172524
 30
0.0
  0
SPLINE
  5
1f2
100
AcDbEntity
  8
etch
 62
7
100
AcDbSpline
 70
8
 71
3
 72
8
 73
4
 74
0
 40
0
 40
0
 40
0
 40
0
 40
1
 40
1
 40
1
 40
1
 10
166.508248
 20
511.172524
 30
0.0
 10
167.916248
 20
513.732518
 30
0.0
 10
169.772251
 20
515.695182
 30
0.0
 10
172.076256
 20
517.060516
 30
0.0
  0
SPLINE
  5
1f3
100
AcDbEntity
  8
etch
 62
7
100
AcDbSpline
 70
8
 71
3
 72
8
 73
4
 74
0
 40
0
 40
0
 40
0
 40
0
 40
1
 40
1
 40
1
 40
1
 10
172.076256
 20
517.060516
 30
0.0
 10
174.422912
 20
518.468516
 30
0.0
 10
176.940245
 20
519.172516
 30
0.0
 10
179.628256
 20
519.172516
 30
0.0
  0
SPLINE
  5
1f4
100
AcDbEntity
  8
etch
 62
7
100
AcDbSpline
 70
8
 71
3
 72
8
 73
4
 74
0
 40
0
 40
0
 40
0
 40
0
 40
1
 40
1
 40
1
 40
1
 10
179.628256
 20
519.172516
 30
0.0
 10
181.761584
 20
519.172516
 30
0.0
 10
183.660248
 20
518.788516
 30
0.0
 10
185.324248
 20
518.020516
 30
0.0
  0
SPLINE
  5
1f5
100
AcDbEntity
  8
etch
 62
7
100
AcDbSpline
 70
8
 71
3
 72
8
 73
4
 74
0
 40
0
 40
0
 40
0
 40
0
 40
1
 40
1
 40
1
 40
1
 10
185.324248
 20
518.020516
 30
0.0
 10
186.988253
 20
517.252516
 30
0.0
 10
188.332256
 20
516.143180
 30
0.0
 10
189.356256
 20
514.692508
 30
0.0
  0
LWPOLYLINE
  5
1f6
100
AcDbEntity
  8
etch
 62
7
100
AcDbPolyline
 90
3
 70
1
 10
189.868240
 20
487.428516
 30
0.0
 10
189.868240
 20
489.988516
 30
0.0
 10
189.356256
 20
489.988516
 30
0.0
  0
SPLINE
  5
1f7
100
AcDbEntity
  8
etch
 62
7
100
AcDbSpline
 70
8
 71
3
 72
8
 73
4
 74
0
 40
0
 40
0
 40
0
 40
0
 40
1
 40
1
 40
1
 40
1
 10
197.932248
 20
487.748516
 30
0.0
 10
197.932248
 20
484.249849
 30
0.0
 10
197.249579
 20
481.220513
 30
0.0
 10
195.884240
 20
478.660508
 30
0.0
  0
SPLINE
  5
1f8
100
AcDbEntity
  8
etch
 62
7
100
AcDbSpline
 70
8
 71
3
 72
8
 73
4
 74
0
 40
0
 40
0
 40
0
 40
0
 40
1
 40
1
 40
1
 40
1
 10
195.884240
 20
478.660508
 30
0.0
 10
194.518917
 20
476.100513
 30
0.0
 10
192.577584
 20
474.137849
 30
0.0
 10
190.060240
 20
472.772516
 30
0.0
  0
SPLINE
  5
1f9
100
AcDbEntity
  8
etch
 62
7
100
AcDbSpline
 70
8
 71
3
 72
8
 73
4
 74
0
 40
0
 40
0
 40
0
 40
0
 40
1
 40
1
 40
1
 40
1
 10
190.060240
 20
472.772516
 30
0.0
 10
187.542912
 20
471.364516
 30
0.0
 10
184.598912
 20
470.660516
 30
0.0
 10
181.228240
 20
470.660516
 30
0.0
  0
LWPOLYLINE
  5
1fa
100
AcDbEntity
  8
etch
 62
7
100
AcDbPolyline
 90
5
 70
1
 10
189.356256
 20
514.692508
 30
0.0
 10
189.868240
 20
514.692508
 30
0.0
 10
189.868240
 20
518.148524
 30
0.0
 10
197.932248
 20
518.148524
 30
0.0
 10
197.932248
 20
487.748516
 30
0.0
  0
SPLINE
  5
1fb
100
AcDbEntity
  8
etch
 62
7
100
AcDbSpline
 70
8
 71
3
 72
8
 73
4
 74
0
 40
0
 40
0
 40
0
 40
0
 40
1
 40
1
 40
1
 40
1
 10
181.356328
 20
493.124508
 30
0.0
 10
183.703000
 20
493.124508
 30
0.0
 10
185.708333
 20
493.935174
 30
0.0
 10
187.372328
 20
495.556508
 30
0.0
  0
SPLINE
  5
1fc
100
AcDbEntity
  8
etch
 62
7
100
AcDbSpline
 70
8
 71
3
 72
8
 73
4
 74
0
 40
0
 40
0
 40
0
 40
0
 40
1
 40
1
 40
1
 40
1
 10
187.372328
 20
495.556508
 30
0.0
 10
189.036328
 20
497.220518
 30
0.0
 10
189.868328
 20
499.481852
 30
0.0
 10
189.868328
 20
502.340508
 30
0.0
  0
SPLINE
  5
1fd
100
AcDbEntity
  8
etch
 62
7
100
AcDbSpline
 70
8
 71
3
 72
8
 73
4
 74
0
 40
0
 40
0
 40
0
 40
0
 40
1
 40
1
 40
1
 40
1
 10
189.868328
 20
502.340508
 30
0.0
 10
189.868328
 20
505.284513
 30
0.0
 10
189.036328
 20
507.545852
 30
0.0
 10
187.372328
 20
509.124524
 30
0.0
  0
SPLINE
  5
1fe
100
AcDbEntity
  8
etch
 62
7
100
AcDbSpline
 70
8
 71
3
 72
8
 73
4
 74
0
 40
0
 40
0
 40
0
 40
0
 40
1
 40
1
 40
1
 40
1
 10
187.372328
 20
509.124524
 30
0.0
 10
185.750995
 20
510.745857
 30
0.0
 10
183.745661
 20
511.556524
 30
0.0
 10
181.356328
 20
511.556524
 30
0.0
  0
SPLINE
  5
1ff
100
AcDbEntity
  8
etch
 62
7
100
AcDbSpline
 70
8
 71
3
 72
8
 73
4
 74
0
 40
0
 40
0
 40
0
 40
0
 40
1
 40
1
 40
1
 40
1
 10
181.356328
 20
511.556524
 30
0.0
 10
178.967000
 20
511.556524
 30
0.0
 10
176.940336
 20
510.745857
 30
0.0
 10
175.276336
 20
509.124524
 30
0.0
  0
SPLINE
  5
200
100
AcDbEntity
  8
etch
 62
7
100
AcDbSpline
 70
8
 71
3
 72
8
 73
4
 74
0
 40
0
 40
0
 40
0
 40
0
 40
1
 40
1
 40
1
 40
1
 10
175.276336
 20
509.124524
 30
0.0
 10
173.612331
 20
507.503190
 30
0.0
 10
172.780328
 20
505.241852
 30
0.0
 10
172.780328
 20
502.340508
 30
0.0
  0
SPLINE
  5
201
100
AcDbEntity
  8
etch
 62
7
100
AcDbSpline
 70
8
 71
3
 72
8
 73
4
 74
0
 40
0
 40
0
 40
0
 40
0
 40
1
 40
1
 40
1
 40
1
 10
172.780328
 20
502.340508
 30
0.0
 10
172.780328
 20
499.439174
 30
0.0
 10
173.612331
 20
497.177841
 30
0.0
 10
175.276336
 20
495.556508
 30
0.0
  0
SPLINE
  5
202
100
AcDbEntity
  8
etch
 62
7
100
AcDbSpline
 70
8
 71
3
 72
8
 73
4
 74
0
 40
0
 40
0
 40
0
 40
0
 40
1
 40
1
 40
1
 40
1
 10
175.276336
 20
495.556508
 30
0.0
 10
176.940336
 20
493.935174
 30
0.0
 10
178.967000
 20
493.124508
 30
0.0
 10
181.356328
 20
493.124508
 30
0.0
  0
LWPOLYLINE
  5
203
100
AcDbEntity
  8
etch
 62
7
100
AcDbPolyline
 90
2
 70
1
 10
181.228240
 20
470.660516
 30
0.0
 10
181.228240
 20
470.660516
 30
0.0
  0
LWPOLYLINE
  5
204
100
AcDbEntity
  8
etch
 62
7
100
AcDbPolyline
 90
2
 70
1
 10
181.356328
 20
493.124508
 30
0.0
 10
181.356328
 20
493.124508
 30
0.0
  0
SPLINE
  5
205
100
AcDbEntity
  8
etch
 62
7
100
AcDbSpline
 70
8
 71
3
 72
8
 73
4
 74
0
 40
0
 40
0
 40
0
 40
0
 40
1
 40
1
 40
1
 40
1
 10
237.734264
 20
484.484508
 30
0.0
 10
234.491592
 20
484.484508
 30
0.0
 10
231.568923
 20
485.231174
 30
0.0
 10
228.966256
 20
486.724508
 30
0.0
  0
SPLINE
  5
206
100
AcDbEntity
  8
etch
 62
7
100
AcDbSpline
 70
8
 71
3
 72
8
 73
4
 74
0
 40
0
 40
0
 40
0
 40
0
 40
1
 40
1
 40
1
 40
1
 10
228.966256
 20
486.724508
 30
0.0
 10
226.363589
 20
488.217841
 30
0.0
 10
224.315587
 20
490.265844
 30
0.0
 10
222.822248
 20
492.868516
 30
0.0
  0
SPLINE
  5
207
100
AcDbEntity
  8
etch
 62
7
100
AcDbSpline
 70
8
 71
3
 72
8
 73
4
 74
0
 40
0
 40
0
 40
0
 40
0
 40
1
 40
1
 40
1
 40
1
 10
222.822248
 20
492.868516
 30
0.0
 10
221.371592
 20
495.513844
 30
0.0
 10
220.646264
 20
498.479174
 30
0.0
 10
220.646264
 20
501.764508
 30
0.0
  0
SPLINE
  5
208
100
AcDbEntity
  8
etch
 62
7
100
AcDbSpline
 70
8
 71
3
 72
8
 73
4
 74
0
 40
0
 40
0
 40
0
 40
0
 40
1
 40
1
 40
1
 40
1
 10
220.646264
 20
501.764508
 30
0.0
 10
220.646264
 20
504.879174
 30
0.0
 10
221.371592
 20
507.759174
 30
0.0
 10
222.822248
 20
510.404508
 30
0.0
  0
SPLINE
  5
209
100
AcDbEntity
  8
etch
 62
7
100
AcDbSpline
 70
8
 71
3
 72
8
 73
4
 74
0
 40
0
 40
0
 40
0
 40
0
 40
1
 40
1
 40
1
 40
1
 10
222.822248
 20
510.404508
 30
0.0
 10
224.272920
 20
513.092513
 30
0.0
 10
226.278253
 20
515.225846
 30
0.0
 10
228.838248
 20
516.804508
 30
0.0
  0
SPLINE
  5
20a
100
AcDbEntity
  8
etch
 62
7
100
AcDbSpline
 70
8
 71
3
 72
8
 73
4
 74
0
 40
0
 40
0
 40
0
 40
0
 40
1
 40
1
 40
1
 40
1
 10
228.838248
 20
516.804508
 30
0.0
 10
231.398253
 20
518.383180
 30
0.0
 10
234.256923
 20
519.172516
 30
0.0
 10
237.414256
 20
519.172516
 30
0.0
  0
SPLINE
  5
20b
100
AcDbEntity
  8
etch
 62
7
100
AcDbSpline
 70
8
 71
3
 72
8
 73
4
 74
0
 40
0
 40
0
 40
0
 40
0
 40
1
 40
1
 40
1
 40
1
 10
237.414256
 20
519.172516
 30
0.0
 10
240.784923
 20
519.172516
 30
0.0
 10
243.686253
 20
518.447180
 30
0.0
 10
246.118248
 20
516.996508
 30
0.0
  0
SPLINE
  5
20c
100
AcDbEntity
  8
etch
 62
7
100
AcDbSpline
 70
8
 71
3
 72
8
 73
4
 74
0
 40
0
 40
0
 40
0
 40
0
 40
1
 40
1
 40
1
 40
1
 10
246.118248
 20
516.996508
 30
0.0
 10
248.550253
 20
515.545846
 30
0.0
 10
250.384925
 20
513.561849
 30
0.0
 10
251.622264
 20
511.044516
 30
0.0
  0
SPLINE
  5
20d
100
AcDbEntity
  8
etch
 62
7
100
AcDbSpline
 70
8
 71
3
 72
8
 73
4
 74
0
 40
0
 40
0
 40
0
 40
0
 40
1
 40
1
 40
1
 40
1
 10
251.622264
 20
511.044516
 30
0.0
 10
252.902259
 20
508.527182
 30
0.0
 10
253.542256
 20
505.732513
 30
0.0
 10
253.542256
 20
502.660508
 30
0.0
  0
SPLINE
  5
20e
100
AcDbEntity
  8
etch
 62
7
100
AcDbSpline
 70
8
 71
3
 72
8
 73
4
 74
0
 40
0
 40
0
 40
0
 40
0
 40
1
 40
1
 40
1
 40
1
 10
253.542256
 20
502.660508
 30
0.0
 10
253.542256
 20
501.679174
 30
0.0
 10
253.478256
 20
500.740508
 30
0.0
 10
253.350256
 20
499.844508
 30
0.0
  0
LWPOLYLINE
  5
20f
100
AcDbEntity
  8
etch
 62
7
100
AcDbPolyline
 90
6
 70
1
 10
206.188264
 20
531.332516
 30
0.0
 10
214.572248
 20
531.332516
 30
0.0
 10
214.572248
 20
485.508516
 30
0.0
 10
206.188264
 20
485.508516
 30
0.0
 10
206.188264
 20
531.332516
 30
0.0
 10
206.188264
 20
531.332516
 30
0.0
  0
SPLINE
  5
210
100
AcDbEntity
  8
etch
 62
7
100
AcDbSpline
 70
8
 71
3
 72
8
 73
4
 74
0
 40
0
 40
0
 40
0
 40
0
 40
1
 40
1
 40
1
 40
1
 10
228.838248
 20
499.844508
 30
0.0
 10
229.264925
 20
497.241841
 30
0.0
 10
230.288931
 20
495.257846
 30
0.0
 10
231.910264
 20
493.892524
 30
0.0
  0
SPLINE
  5
211
100
AcDbEntity
  8
etch
 62
7
100
AcDbSpline
 70
8
 71
3
 72
8
 73
4
 74
0
 40
0
 40
0
 40
0
 40
0
 40
1
 40
1
 40
1
 40
1
 10
231.910264
 20
493.892524
 30
0.0
 10
233.574259
 20
492.569852
 30
0.0
 10
235.558253
 20
491.908516
 30
0.0
 10
237.862248
 20
491.908516
 30
0.0
  0
SPLINE
  5
212
100
AcDbEntity
  8
etch
 62
7
100
AcDbSpline
 70
8
 71
3
 72
8
 73
4
 74
0
 40
0
 40
0
 40
0
 40
0
 40
1
 40
1
 40
1
 40
1
 10
237.862248
 20
491.908516
 30
0.0
 10
239.782259
 20
491.908516
 30
0.0
 10
241.424931
 20
492.313846
 30
0.0
 10
242.790264
 20
493.124508
 30
0.0
  0
SPLINE
  5
213
100
AcDbEntity
  8
etch
 62
7
100
AcDbSpline
 70
8
 71
3
 72
8
 73
4
 74
0
 40
0
 40
0
 40
0
 40
0
 40
1
 40
1
 40
1
 40
1
 10
242.790264
 20
493.124508
 30
0.0
 10
244.198259
 20
493.977841
 30
0.0
 10
245.307587
 20
495.108508
 30
0.0
 10
246.118248
 20
496.516508
 30
0.0
  0
LWPOLYLINE
  5
214
100
AcDbEntity
  8
etch
 62
7
100
AcDbPolyline
 90
2
 70
1
 10
253.350256
 20
499.844508
 30
0.0
 10
228.838248
 20
499.844508
 30
0.0
  0
SPLINE
  5
215
100
AcDbEntity
  8
etch
 62
7
100
AcDbSpline
 70
8
 71
3
 72
8
 73
4
 74
0
 40
0
 40
0
 40
0
 40
0
 40
1
 40
1
 40
1
 40
1
 10
252.902248
 20
493.188516
 30
0.0
 10
249.574253
 20
487.385844
 30
0.0
 10
244.518259
 20
484.484508
 30
0.0
 10
237.734264
 20
484.484508
 30
0.0
  0
LWPOLYLINE
  5
216
100
AcDbEntity
  8
etch
 62
7
100
AcDbPolyline
 90
2
 70
1
 10
246.118248
 20
496.516508
 30
0.0
 10
252.902248
 20
493.188516
 30
0.0
  0
SPLINE
  5
217
100
AcDbEntity
  8
etch
 62
7
100
AcDbSpline
 70
8
 71
3
 72
8
 73
4
 74
0
 40
0
 40
0
 40
0
 40
0
 40
1
 40
1
 40
1
 40
1
 10
245.478256
 20
505.796516
 30
0.0
 10
245.392864
 20
506.820516
 30
0.0
 10
245.008864
 20
507.823182
 30
0.0
 10
244.326256
 20
508.804516
 30
0.0
  0
SPLINE
  5
218
100
AcDbEntity
  8
etch
 62
7
100
AcDbSpline
 70
8
 71
3
 72
8
 73
4
 74
0
 40
0
 40
0
 40
0
 40
0
 40
1
 40
1
 40
1
 40
1
 10
244.326256
 20
508.804516
 30
0.0
 10
243.686261
 20
509.828516
 30
0.0
 10
242.768928
 20
510.660513
 30
0.0
 10
241.574256
 20
511.300508
 30
0.0
  0
SPLINE
  5
219
100
AcDbEntity
  8
etch
 62
7
100
AcDbSpline
 70
8
 71
3
 72
8
 73
4
 74
0
 40
0
 40
0
 40
0
 40
0
 40
1
 40
1
 40
1
 40
1
 10
241.574256
 20
511.300508
 30
0.0
 10
240.422256
 20
511.983185
 30
0.0
 10
239.056920
 20
512.324524
 30
0.0
 10
237.478248
 20
512.324524
 30
0.0
  0
SPLINE
  5
21a
100
AcDbEntity
  8
etch
 62
7
100
AcDbSpline
 70
8
 71
3
 72
8
 73
4
 74
0
 40
0
 40
0
 40
0
 40
0
 40
1
 40
1
 40
1
 40
1
 10
237.478248
 20
512.324524
 30
0.0
 10
235.472915
 20
512.324524
 30
0.0
 10
233.744920
 20
511.727188
 30
0.0
 10
232.294264
 20
510.532516
 30
0.0
  0
SPLINE
  5
21b
100
AcDbEntity
  8
etch
 62
7
100
AcDbSpline
 70
8
 71
3
 72
8
 73
4
 74
0
 40
0
 40
0
 40
0
 40
0
 40
1
 40
1
 40
1
 40
1
 10
232.294264
 20
510.532516
 30
0.0
 10
230.886253
 20
509.380516
 30
0.0
 10
229.862248
 20
507.801849
 30
0.0
 10
229.222248
 20
505.796516
 30
0.0
  0
LWPOLYLINE
  5
21c
100
AcDbEntity
  8
etch
 62
7
100
AcDbPolyline
 90
2
 70
1
 10
237.734264
 20
484.484508
 30
0.0
 10
237.734264
 20
484.484508
 30
0.0
  0
LWPOLYLINE
  5
21d
100
AcDbEntity
  8
etch
 62
7
100
AcDbPolyline
 90
3
 70
1
 10
229.222248
 20
505.796516
 30
0.0
 10
245.478256
 20
505.796516
 30
0.0
 10
245.478256
 20
505.796516
 30
0.0
  0
LWPOLYLINE
  5
21e
100
AcDbEntity
  8
cut
 62
7
100
AcDbPolyline
 90
2
 70
0
 10
413.930824
 20
822.362932
 30
0.0
 10
492.491008
 20
822.362932
 30
0.0
  0
LWPOLYLINE
  5
21f
100
AcDbEntity
  8
cut
 62
7
100
AcDbPolyline
 90
2
 70
0
 10
413.930824
 20
822.362932
 30
0.0
 10
413.930824
 20
830.866868
 30
0.0
  0
LWPOLYLINE
  5
220
100
AcDbEntity
  8
cut
 62
7
100
AcDbPolyline
 90
2
 70
0
 10
335.370640
 20
830.866868
 30
0.0
 10
413.930824
 20
830.866868
 30
0.0
  0
LWPOLYLINE
  5
221
100
AcDbEntity
  8
cut
 62
7
100
AcDbPolyline
 90
2
 70
0
 10
335.370640
 20
822.362932
 30
0.0
 10
335.370640
 20
830.866868
 30
0.0
  0
LWPOLYLINE
  5
222
100
AcDbEntity
  8
cut
 62
7
100
AcDbPolyline
 90
2
 70
0
 10
256.810480
 20
822.362932
 30
0.0
 10
335.370640
 20
822.362932
 30
0.0
  0
LWPOLYLINE
  5
223
100
AcDbEntity
  8
cut
 62
7
100
AcDbPolyline
 90
2
 70
0
 10
256.810480
 20
822.362932
 30
0.0
 10
256.810480
 20
830.866868
 30
0.0
  0
LWPOLYLINE
  5
224
100
AcDbEntity
  8
cut
 62
7
100
AcDbPolyline
 90
2
 70
0
 10
178.250320
 20
830.866868
 30
0.0
 10
256.810480
 20
830.866868
 30
0.0
  0
LWPOLYLINE
  5
225
100
AcDbEntity
  8
cut
 62
7
100
AcDbPolyline
 90
2
 70
0
 10
178.250320
 20
822.362932
 30
0.0
 10
178.250320
 20
830.866868
 30
0.0
  0
LWPOLYLINE
  5
226
100
AcDbEntity
  8
cut
 62
7
100
AcDbPolyline
 90
2
 70
0
 10
99.690080
 20
822.362932
 30
0.0
 10
178.250320
 20
822.362932
 30
0.0
  0
LWPOLYLINE
  5
227
100
AcDbEntity
  8
cut
 62
7
100
AcDbPolyline
 90
2
 70
0
 10
99.690080
 20
822.362932
 30
0.0
 10
99.690080
 20
830.866868
 30
0.0
  0
LWPOLYLINE
  5
228
100
AcDbEntity
  8
cut
 62
7
100
AcDbPolyline
 90
2
 70
0
 10
21.129920
 20
830.866868
 30
0.0
 10
99.690080
 20
830.866868
 30
0.0
  0
LWPOLYLINE
  5
229
100
AcDbEntity
  8
cut
 62
7
100
AcDbPolyline
 90
2
 70
0
 10
21.129920
 20
767.046844
 30
0.0
 10
21.129920
 20
830.866868
 30
0.0
  0
LWPOLYLINE
  5
22a
100
AcDbEntity
  8
cut
 62
7
100
AcDbPolyline
 90
2
 70
0
 10
21.129920
 20
767.046844
 30
0.0
 10
12.626000
 20
767.046844
 30
0.0
  0
LWPOLYLINE
  5
22b
100
AcDbEntity
  8
cut
 62
7
100
AcDbPolyline
 90
2
 70
0
 10
12.626000
 20
701.526036
 30
0.0
 10
12.626000
 20
767.046844
 30
0.0
  0
LWPOLYLINE
  5
22c
100
AcDbEntity
  8
cut
 62
7
100
AcDbPolyline
 90
2
 70
0
 10
21.129920
 20
701.526036
 30
0.0
 10
12.626000
 20
701.526036
 30
0.0
  0
LWPOLYLINE
  5
22d
100
AcDbEntity
  8
cut
 62
7
100
AcDbPolyline
 90
2
 70
0
 10
21.129920
 20
638.272948
 30
0.0
 10
21.129920
 20
701.526036
 30
0.0
  0
LWPOLYLINE
  5
22e
100
AcDbEntity
  8
cut
 62
7
100
AcDbPolyline
 90
2
 70
0
 10
21.129920
 20
638.272948
 30
0.0
 10
12.626000
 20
638.272948
 30
0.0
  0
LWPOLYLINE
  5
22f
100
AcDbEntity
  8
cut
 62
7
100
AcDbPolyline
 90
2
 70
0
 10
12.626000
 20
572.752132
 30
0.0
 10
12.626000
 20
638.272948
 30
0.0
  0
LWPOLYLINE
  5
230
100
AcDbEntity
  8
cut
 62
7
100
AcDbPolyline
 90
2
 70
0
 10
21.129920
 20
572.752132
 30
0.0
 10
12.626000
 20
572.752132
 30
0.0
  0
LWPOLYLINE
  5
231
100
AcDbEntity
  8
cut
 62
7
100
AcDbPolyline
 90
2
 70
0
 10
21.129920
 20
509.499044
 30
0.0
 10
21.129920
 20
572.752132
 30
0.0
  0
LWPOLYLINE
  5
232
100
AcDbEntity
  8
cut
 62
7
100
AcDbPolyline
 90
2
 70
0
 10
21.129920
 20
509.499044
 30
0.0
 10
12.626000
 20
509.499044
 30
0.0
  0
LWPOLYLINE
  5
233
100
AcDbEntity
  8
cut
 62
7
100
AcDbPolyline
 90
2
 70
0
 10
12.626000
 20
443.978228
 30
0.0
 10
12.626000
 20
509.499044
 30
0.0
  0
LWPOLYLINE
  5
234
100
AcDbEntity
  8
cut
 62
7
100
AcDbPolyline
 90
2
 70
0
 10
21.129920
 20
443.978228
 30
0.0
 10
12.626000
 20
443.978228
 30
0.0
  0
LWPOLYLINE
  5
235
100
AcDbEntity
  8
cut
 62
7
100
AcDbPolyline
 90
2
 70
0
 10
21.129920
 20
380.158212
 30
0.0
 10
21.129920
 20
443.978228
 30
0.0
  0
LWPOLYLINE
  5
236
100
AcDbEntity
  8
cut
 62
7
100
AcDbPolyline
 90
2
 70
0
 10
571.051184
 20
380.158212
 30
0.0
 10
21.129920
 20
380.158212
 30
0.0
  0
LWPOLYLINE
  5
237
100
AcDbEntity
  8
cut
 62
7
100
AcDbPolyline
 90
2
 70
0
 10
571.051184
 20
380.158212
 30
0.0
 10
571.051184
 20
443.978228
 30
0.0
  0
LWPOLYLINE
  5
238
100
AcDbEntity
  8
cut
 62
7
100
AcDbPolyline
 90
2
 70
0
 10
579.555120
 20
443.978228
 30
0.0
 10
571.051184
 20
443.978228
 30
0.0
  0
LWPOLYLINE
  5
239
100
AcDbEntity
  8
cut
 62
7
100
AcDbPolyline
 90
4
 70
0
 10
579.555120
 20
443.978228
 30
0.0
 10
579.555120
 20
509.499044
 30
0.0
 10
571.051184
 20
509.499044
 30
0.0
 10
571.051184
 20
572.752132
 30
0.0
  0
LWPOLYLINE
  5
23a
100
AcDbEntity
  8
cut
 62
7
100
AcDbPolyline
 90
2
 70
0
 10
579.555120
 20
572.752132
 30
0.0
 10
571.051184
 20
572.752132
 30
0.0
  0
LWPOLYLINE
  5
23b
100
AcDbEntity
  8
cut
 62
7
100
AcDbPolyline
 90
4
 70
0
 10
579.555120
 20
572.752132
 30
0.0
 10
579.555120
 20
638.272948
 30
0.0
 10
571.051184
 20
638.272948
 30
0.0
 10
571.051184
 20
701.526036
 30
0.0
  0
LWPOLYLINE
  5
23c
100
AcDbEntity
  8
cut
 62
7
100
AcDbPolyline
 90
2
 70
0
 10
579.555120
 20
701.526036
 30
0.0
 10
571.051184
 20
701.526036
 30
0.0
  0
LWPOLYLINE
  5
23d
100
AcDbEntity
  8
cut
 62
7
100
AcDbPolyline
 90
4
 70
0
 10
579.555120
 20
701.526036
 30
0.0
 10
579.555120
 20
767.046844
 30
0.0
 10
571.051184
 20
767.046844
 30
0.0
 10
571.051184
 20
830.866868
 30
0.0
  0
LWPOLYLINE
  5
23e
100
AcDbEntity
  8
cut
 62
7
100
AcDbPolyline
 90
2
 70
0
 10
492.491008
 20
830.866868
 30
0.0
 10
571.051184
 20
830.866868
 30
0.0
  0
SPLINE
  5
23f
100
AcDbEntity
  8
cut
 62
7
100
AcDbSpline
 70
8
 71
3
 72
8
 73
4
 74
0
 40
0
 40
0
 40
0
 40
0
 40
1
 40
1
 40
1
 40
1
 10
347.114176
 20
513.953484
 30
0.0
 10
345.234688
 20
513.953484
 30
0.0
 10
343.432180
 20
513.206861
 30
0.0
 10
342.103181
 20
511.877862
 30
0.0
  0
SPLINE
  5
240
100
AcDbEntity
  8
cut
 62
7
100
AcDbSpline
 70
8
 71
3
 72
8
 73
4
 74
0
 40
0
 40
0
 40
0
 40
0
 40
1
 40
1
 40
1
 40
1
 10
342.103181
 20
511.877862
 30
0.0
 10
340.774183
 20
510.548864
 30
0.0
 10
340.027560
 20
508.746355
 30
0.0
 10
340.027560
 20
506.866868
 30
0.0
  0
LWPOLYLINE
  5
241
100
AcDbEntity
  8
cut
 62
7
100
AcDbPolyline
 90
2
 70
0
 10
492.491008
 20
822.362932
 30
0.0
 10
492.491008
 20
830.866868
 30
0.0
  0
SPLINE
  5
242
100
AcDbEntity
  8
cut
 62
7
100
AcDbSpline
 70
8
 71
3
 72
8
 73
4
 74
0
 40
0
 40
0
 40
0
 40
0
 40
1
 40
1
 40
1
 40
1
 10
538.452760
 20
506.866868
 30
0.0
 10
538.452760
 20
508.746355
 30
0.0
 10
537.706137
 20
510.548864
 30
0.0
 10
536.377139
 20
511.877862
 30
0.0
  0
SPLINE
  5
243
100
AcDbEntity
  8
cut
 62
7
100
AcDbSpline
 70
8
 71
3
 72
8
 73
4
 74
0
 40
0
 40
0
 40
0
 40
0
 40
1
 40
1
 40
1
 40
1
 10
536.377139
 20
511.877862
 30
0.0
 10
535.048140
 20
513.206861
 30
0.0
 10
533.245632
 20
513.953484
 30
0.0
 10
531.366144
 20
513.953484
 30
0.0
  0
LWPOLYLINE
  5
244
100
AcDbEntity
  8
cut
 62
7
100
AcDbPolyline
 90
2
 70
0
 10
347.114176
 20
513.953484
 30
0.0
 10
531.366144
 20
513.953484
 30
0.0
  0
SPLINE
  5
245
100
AcDbEntity
  8
cut
 62
7
100
AcDbSpline
 70
8
 71
3
 72
8
 73
4
 74
0
 40
0
 40
0
 40
0
 40
0
 40
1
 40
1
 40
1
 40
1
 10
531.366144
 20
485.607028
 30
0.0
 10
533.245632
 20
485.607027
 30
0.0
 10
535.048140
 20
486.353651
 30
0.0
 10
536.377139
 20
487.682649
 30
0.0
  0
SPLINE
  5
246
100
AcDbEntity
  8
cut
 62
7
100
AcDbSpline
 70
8
 71
3
 72
8
 73
4
 74
0
 40
0
 40
0
 40
0
 40
0
 40
1
 40
1
 40
1
 40
1
 10
536.377139
 20
487.682649
 30
0.0
 10
537.706137
 20
489.011647
 30
0.0
 10
538.452760
 20
490.814156
 30
0.0
 10
538.452760
 20
492.693644
 30
0.0
  0
LWPOLYLINE
  5
247
100
AcDbEntity
  8
cut
 62
7
100
AcDbPolyline
 90
2
 70
0
 10
538.452760
 20
492.693644
 30
0.0
 10
538.452760
 20
506.866868
 30
0.0
  0
SPLINE
  5
248
100
AcDbEntity
  8
cut
 62
7
100
AcDbSpline
 70
8
 71
3
 72
8
 73
4
 74
0
 40
0
 40
0
 40
0
 40
0
 40
1
 40
1
 40
1
 40
1
 10
340.027560
 20
492.693644
 30
0.0
 10
340.027560
 20
490.814156
 30
0.0
 10
340.774183
 20
489.011647
 30
0.0
 10
342.103181
 20
487.682649
 30
0.0
  0
SPLINE
  5
249
100
AcDbEntity
  8
cut
 62
7
100
AcDbSpline
 70
8
 71
3
 72
8
 73
4
 74
0
 40
0
 40
0
 40
0
 40
0
 40
1
 40
1
 40
1
 40
1
 10
342.103181
 20
487.682649
 30
0.0
 10
343.432180
 20
486.353651
 30
0.0
 10
345.234688
 20
485.607027
 30
0.0
 10
347.114176
 20
485.607028
 30
0.0
  0
LWPOLYLINE
  5
24a
100
AcDbEntity
  8
cut
 62
7
100
AcDbPolyline
 90
2
 70
0
 10
347.114176
 20
485.607028
 30
0.0
 10
531.366144
 20
485.607028
 30
0.0
  0
SPLINE
  5
24b
100
AcDbEntity
  8
cut
 62
7
100
AcDbSpline
 70
8
 71
3
 72
8
 73
4
 74
0
 40
0
 40
0
 40
0
 40
0
 40
1
 40
1
 40
1
 40
1
 10
457.665360
 20
521.040100
 30
0.0
 10
460.198552
 20
521.038015
 30
0.0
 10
462.540210
 20
522.388259
 30
0.0
 10
463.807408
 20
524.581721
 30
0.0
  0
SPLINE
  5
24c
100
AcDbEntity
  8
cut
 62
7
100
AcDbSpline
 70
8
 71
3
 72
8
 73
4
 74
0
 40
0
 40
0
 40
0
 40
0
 40
1
 40
1
 40
1
 40
1
 10
463.807408
 20
524.581721
 30
0.0
 10
465.074606
 20
526.775183
 30
0.0
 10
465.074606
 20
529.478241
 30
0.0
 10
463.807408
 20
531.671702
 30
0.0
  0
SPLINE
  5
24d
100
AcDbEntity
  8
cut
 62
7
100
AcDbSpline
 70
8
 71
3
 72
8
 73
4
 74
0
 40
0
 40
0
 40
0
 40
0
 40
1
 40
1
 40
1
 40
1
 10
463.807408
 20
531.671702
 30
0.0
 10
462.540210
 20
533.865164
 30
0.0
 10
460.198552
 20
535.215409
 30
0.0
 10
457.665360
 20
535.213324
 30
0.0
  0
SPLINE
  5
24e
100
AcDbEntity
  8
cut
 62
7
100
AcDbSpline
 70
8
 71
3
 72
8
 73
4
 74
0
 40
0
 40
0
 40
0
 40
0
 40
1
 40
1
 40
1
 40
1
 10
457.665360
 20
535.213324
 30
0.0
 10
455.132168
 20
535.215409
 30
0.0
 10
452.790510
 20
533.865164
 30
0.0
 10
451.523312
 20
531.671702
 30
0.0
  0
SPLINE
  5
24f
100
AcDbEntity
  8
cut
 62
7
100
AcDbSpline
 70
8
 71
3
 72
8
 73
4
 74
0
 40
0
 40
0
 40
0
 40
0
 40
1
 40
1
 40
1
 40
1
 10
451.523312
 20
531.671702
 30
0.0
 10
450.256114
 20
529.478241
 30
0.0
 10
450.256114
 20
526.775183
 30
0.0
 10
451.523312
 20
524.581721
 30
0.0
  0
SPLINE
  5
250
100
AcDbEntity
  8
cut
 62
7
100
AcDbSpline
 70
8
 71
3
 72
8
 73
4
 74
0
 40
0
 40
0
 40
0
 40
0
 40
1
 40
1
 40
1
 40
1
 10
451.523312
 20
524.581721
 30
0.0
 10
452.790510
 20
522.388259
 30
0.0
 10
455.132168
 20
521.038015
 30
0.0
 10
457.665360
 20
521.040100
 30
0.0
  0
LWPOLYLINE
  5
251
100
AcDbEntity
  8
cut
 62
7
100
AcDbPolyline
 90
2
 70
0
 10
340.027560
 20
506.866868
 30
0.0
 10
340.027560
 20
492.693644
 30
0.0
  0
SPLINE
  5
252
100
AcDbEntity
  8
cut
 62
7
100
AcDbSpline
 70
8
 71
3
 72
8
 73
4
 74
0
 40
0
 40
0
 40
0
 40
0
 40
1
 40
1
 40
1
 40
1
 10
514.358272
 20
596.441676
 30
0.0
 10
516.891464
 20
596.439591
 30
0.0
 10
519.233122
 20
597.789835
 30
0.0
 10
520.500320
 20
599.983297
 30
0.0
  0
SPLINE
  5
253
100
AcDbEntity
  8
cut
 62
7
100
AcDbSpline
 70
8
 71
3
 72
8
 73
4
 74
0
 40
0
 40
0
 40
0
 40
0
 40
1
 40
1
 40
1
 40
1
 10
520.500320
 20
599.983297
 30
0.0
 10
521.767518
 20
602.176759
 30
0.0
 10
521.767518
 20
604.879817
 30
0.0
 10
520.500320
 20
607.073278
 30
0.0
  0
SPLINE
  5
254
100
AcDbEntity
  8
cut
 62
7
100
AcDbSpline
 70
8
 71
3
 72
8
 73
4
 74
0
 40
0
 40
0
 40
0
 40
0
 40
1
 40
1
 40
1
 40
1
 10
520.500320
 20
607.073278
 30
0.0
 10
519.233122
 20
609.266740
 30
0.0
 10
516.891464
 20
610.616985
 30
0.0
 10
514.358272
 20
610.614900
 30
0.0
  0
SPLINE
  5
255
100
AcDbEntity
  8
cut
 62
7
100
AcDbSpline
 70
8
 71
3
 72
8
 73
4
 74
0
 40
0
 40
0
 40
0
 40
0
 40
1
 40
1
 40
1
 40
1
 10
514.358272
 20
610.614900
 30
0.0
 10
511.825080
 20
610.616985
 30
0.0
 10
509.483422
 20
609.266740
 30
0.0
 10
508.216224
 20
607.073278
 30
0.0
  0
SPLINE
  5
256
100
AcDbEntity
  8
cut
 62
7
100
AcDbSpline
 70
8
 71
3
 72
8
 73
4
 74
0
 40
0
 40
0
 40
0
 40
0
 40
1
 40
1
 40
1
 40
1
 10
508.216224
 20
607.073278
 30
0.0
 10
506.949026
 20
604.879817
 30
0.0
 10
506.949026
 20
602.176759
 30
0.0
 10
508.216224
 20
599.983297
 30
0.0
  0
SPLINE
  5
257
100
AcDbEntity
  8
cut
 62
7
100
AcDbSpline
 70
8
 71
3
 72
8
 73
4
 74
0
 40
0
 40
0
 40
0
 40
0
 40
1
 40
1
 40
1
 40
1
 10
508.216224
 20
599.983297
 30
0.0
 10
509.483422
 20
597.789835
 30
0.0
 10
511.825080
 20
596.439591
 30
0.0
 10
514.358272
 20
596.441676
 30
0.0
  0
LWPOLYLINE
  5
258
100
AcDbEntity
  8
cut
 62
7
100
AcDbPolyline
 90
2
 70
1
 10
457.665360
 20
521.040100
 30
0.0
 10
457.665360
 20
521.040100
 30
0.0
  0
SPLINE
  5
259
100
AcDbEntity
  8
cut
 62
7
100
AcDbSpline
 70
8
 71
3
 72
8
 73
4
 74
0
 40
0
 40
0
 40
0
 40
0
 40
1
 40
1
 40
1
 40
1
 10
486.011816
 20
596.441676
 30
0.0
 10
488.545008
 20
596.439591
 30
0.0
 10
490.886666
 20
597.789835
 30
0.0
 10
492.153864
 20
599.983297
 30
0.0
  0
SPLINE
  5
25a
100
AcDbEntity
  8
cut
 62
7
100
AcDbSpline
 70
8
 71
3
 72
8
 73
4
 74
0
 40
0
 40
0
 40
0
 40
0
 40
1
 40
1
 40
1
 40
1
 10
492.153864
 20
599.983297
 30
0.0
 10
493.421062
 20
602.176759
 30
0.0
 10
493.421062
 20
604.879817
 30
0.0
 10
492.153864
 20
607.073278
 30
0.0
  0
SPLINE
  5
25b
100
AcDbEntity
  8
cut
 62
7
100
AcDbSpline
 70
8
 71
3
 72
8
 73
4
 74
0
 40
0
 40
0
 40
0
 40
0
 40
1
 40
1
 40
1
 40
1
 10
492.153864
 20
607.073278
 30
0.0
 10
490.886666
 20
609.266740
 30
0.0
 10
488.545008
 20
610.616985
 30
0.0
 10
486.011816
 20
610.614900
 30
0.0
  0
SPLINE
  5
25c
100
AcDbEntity
  8
cut
 62
7
100
AcDbSpline
 70
8
 71
3
 72
8
 73
4
 74
0
 40
0
 40
0
 40
0
 40
0
 40
1
 40
1
 40
1
 40
1
 10
486.011816
 20
610.614900
 30
0.0
 10
483.478624
 20
610.616985
 30
0.0
 10
481.136966
 20
609.266740
 30
0.0
 10
479.869768
 20
607.073278
 30
0.0
  0
SPLINE
  5
25d
100
AcDbEntity
  8
cut
 62
7
100
AcDbSpline
 70
8
 71
3
 72
8
 73
4
 74
0
 40
0
 40
0
 40
0
 40
0
 40
1
 40
1
 40
1
 40
1
 10
479.869768
 20
607.073278
 30
0.0
 10
478.602570
 20
604.879817
 30
0.0
 10
478.602570
 20
602.176759
 30
0.0
 10
479.869768
 20
599.983297
 30
0.0
  0
SPLINE
  5
25e
100
AcDbEntity
  8
cut
 62
7
100
AcDbSpline
 70
8
 71
3
 72
8
 73
4
 74
0
 40
0
 40
0
 40
0
 40
0
 40
1
 40
1
 40
1
 40
1
 10
479.869768
 20
599.983297
 30
0.0
 10
481.136966
 20
597.789835
 30
0.0
 10
483.478624
 20
596.439591
 30
0.0
 10
486.011816
 20
596.441676
 30
0.0
  0
LWPOLYLINE
  5
25f
100
AcDbEntity
  8
cut
 62
7
100
AcDbPolyline
 90
2
 70
1
 10
514.358272
 20
596.441676
 30
0.0
 10
514.358272
 20
596.441676
 30
0.0
  0
SPLINE
  5
260
100
AcDbEntity
  8
cut
 62
7
100
AcDbSpline
 70
8
 71
3
 72
8
 73
4
 74
0
 40
0
 40
0
 40
0
 40
0
 40
1
 40
1
 40
1
 40
1
 10
457.665360
 20
596.441676
 30
0.0
 10
460.198552
 20
596.439591
 30
0.0
 10
462.540210
 20
597.789835
 30
0.0
 10
463.807408
 20
599.983297
 30
0.0
  0
SPLINE
  5
261
100
AcDbEntity
  8
cut
 62
7
100
AcDbSpline
 70
8
 71
3
 72
8
 73
4
 74
0
 40
0
 40
0
 40
0
 40
0
 40
1
 40
1
 40
1
 40
1
 10
463.807408
 20
599.983297
 30
0.0
 10
465.074606
 20
602.176759
 30
0.0
 10
465.074606
 20
604.879817
 30
0.0
 10
463.807408
 20
607.073278
 30
0.0
  0
SPLINE
  5
262
100
AcDbEntity
  8
cut
 62
7
100
AcDbSpline
 70
8
 71
3
 72
8
 73
4
 74
0
 40
0
 40
0
 40
0
 40
0
 40
1
 40
1
 40
1
 40
1
 10
463.807408
 20
607.073278
 30
0.0
 10
462.540210
 20
609.266740
 30
0.0
 10
460.198552
 20
610.616985
 30
0.0
 10
457.665360
 20
610.614900
 30
0.0
  0
SPLINE
  5
263
100
AcDbEntity
  8
cut
 62
7
100
AcDbSpline
 70
8
 71
3
 72
8
 73
4
 74
0
 40
0
 40
0
 40
0
 40
0
 40
1
 40
1
 40
1
 40
1
 10
457.665360
 20
610.614900
 30
0.0
 10
455.132168
 20
610.616985
 30
0.0
 10
452.790510
 20
609.266740
 30
0.0
 10
451.523312
 20
607.073278
 30
0.0
  0
SPLINE
  5
264
100
AcDbEntity
  8
cut
 62
7
100
AcDbSpline
 70
8
 71
3
 72
8
 73
4
 74
0
 40
0
 40
0
 40
0
 40
0
 40
1
 40
1
 40
1
 40
1
 10
451.523312
 20
607.073278
 30
0.0
 10
450.256114
 20
604.879817
 30
0.0
 10
450.256114
 20
602.176759
 30
0.0
 10
451.523312
 20
599.983297
 30
0.0
  0
SPLINE
  5
265
100
AcDbEntity
  8
cut
 62
7
100
AcDbSpline
 70
8
 71
3
 72
8
 73
4
 74
0
 40
0
 40
0
 40
0
 40
0
 40
1
 40
1
 40
1
 40
1
 10
451.523312
 20
599.983297
 30
0.0
 10
452.790510
 20
597.789835
 30
0.0
 10
455.132168
 20
596.439591
 30
0.0
 10
457.665360
 20
596.441676
 30
0.0
  0
LWPOLYLINE
  5
266
100
AcDbEntity
  8
cut
 62
7
100
AcDbPolyline
 90
2
 70
1
 10
486.011816
 20
596.441676
 30
0.0
 10
486.011816
 20
596.441676
 30
0.0
  0
SPLINE
  5
267
100
AcDbEntity
  8
cut
 62
7
100
AcDbSpline
 70
8
 71
3
 72
8
 73
4
 74
0
 40
0
 40
0
 40
0
 40
0
 40
1
 40
1
 40
1
 40
1
 10
457.665360
 20
671.843252
 30
0.0
 10
460.198552
 20
671.841167
 30
0.0
 10
462.540210
 20
673.191411
 30
0.0
 10
463.807408
 20
675.384873
 30
0.0
  0
SPLINE
  5
268
100
AcDbEntity
  8
cut
 62
7
100
AcDbSpline
 70
8
 71
3
 72
8
 73
4
 74
0
 40
0
 40
0
 40
0
 40
0
 40
1
 40
1
 40
1
 40
1
 10
463.807408
 20
675.384873
 30
0.0
 10
465.074606
 20
677.578335
 30
0.0
 10
465.074606
 20
680.281393
 30
0.0
 10
463.807408
 20
682.474854
 30
0.0
  0
SPLINE
  5
269
100
AcDbEntity
  8
cut
 62
7
100
AcDbSpline
 70
8
 71
3
 72
8
 73
4
 74
0
 40
0
 40
0
 40
0
 40
0
 40
1
 40
1
 40
1
 40
1
 10
463.807408
 20
682.474854
 30
0.0
 10
462.540210
 20
684.668316
 30
0.0
 10
460.198552
 20
686.018561
 30
0.0
 10
457.665360
 20
686.016476
 30
0.0
  0
SPLINE
  5
26a
100
AcDbEntity
  8
cut
 62
7
100
AcDbSpline
 70
8
 71
3
 72
8
 73
4
 74
0
 40
0
 40
0
 40
0
 40
0
 40
1
 40
1
 40
1
 40
1
 10
457.665360
 20
686.016476
 30
0.0
 10
455.132168
 20
686.018561
 30
0.0
 10
452.790510
 20
684.668316
 30
0.0
 10
451.523312
 20
682.474854
 30
0.0
  0
SPLINE
  5
26b
100
AcDbEntity
  8
cut
 62
7
100
AcDbSpline
 70
8
 71
3
 72
8
 73
4
 74
0
 40
0
 40
0
 40
0
 40
0
 40
1
 40
1
 40
1
 40
1
 10
451.523312
 20
682.474854
 30
0.0
 10
450.256114
 20
680.281393
 30
0.0
 10
450.256114
 20
677.578335
 30
0.0
 10
451.523312
 20
675.384873
 30
0.0
  0
SPLINE
  5
26c
100
AcDbEntity
  8
cut
 62
7
100
AcDbSpline
 70
8
 71
3
 72
8
 73
4
 74
0
 40
0
 40
0
 40
0
 40
0
 40
1
 40
1
 40
1
 40
1
 10
451.523312
 20
675.384873
 30
0.0
 10
452.790510
 20
673.191411
 30
0.0
 10
455.132168
 20
671.841167
 30
0.0
 10
457.665360
 20
671.843252
 30
0.0
  0
LWPOLYLINE
  5
26d
100
AcDbEntity
  8
cut
 62
7
100
AcDbPolyline
 90
2
 70
1
 10
457.665360
 20
596.441676
 30
0.0
 10
457.665360
 20
596.441676
 30
0.0
  0
SPLINE
  5
26e
100
AcDbEntity
  8
cut
 62
7
100
AcDbSpline
 70
8
 71
3
 72
8
 73
4
 74
0
 40
0
 40
0
 40
0
 40
0
 40
1
 40
1
 40
1
 40
1
 10
486.011816
 20
671.843252
 30
0.0
 10
488.545008
 20
671.841167
 30
0.0
 10
490.886666
 20
673.191411
 30
0.0
 10
492.153864
 20
675.384873
 30
0.0
  0
SPLINE
  5
26f
100
AcDbEntity
  8
cut
 62
7
100
AcDbSpline
 70
8
 71
3
 72
8
 73
4
 74
0
 40
0
 40
0
 40
0
 40
0
 40
1
 40
1
 40
1
 40
1
 10
492.153864
 20
675.384873
 30
0.0
 10
493.421062
 20
677.578335
 30
0.0
 10
493.421062
 20
680.281393
 30
0.0
 10
492.153864
 20
682.474854
 30
0.0
  0
SPLINE
  5
270
100
AcDbEntity
  8
cut
 62
7
100
AcDbSpline
 70
8
 71
3
 72
8
 73
4
 74
0
 40
0
 40
0
 40
0
 40
0
 40
1
 40
1
 40
1
 40
1
 10
492.153864
 20
682.474854
 30
0.0
 10
490.886666
 20
684.668316
 30
0.0
 10
488.545008
 20
686.018561
 30
0.0
 10
486.011816
 20
686.016476
 30
0.0
  0
SPLINE
  5
271
100
AcDbEntity
  8
cut
 62
7
100
AcDbSpline
 70
8
 71
3
 72
8
 73
4
 74
0
 40
0
 40
0
 40
0
 40
0
 40
1
 40
1
 40
1
 40
1
 10
486.011816
 20
686.016476
 30
0.0
 10
483.478624
 20
686.018561
 30
0.0
 10
481.136966
 20
684.668316
 30
0.0
 10
479.869768
 20
682.474854
 30
0.0
  0
SPLINE
  5
272
100
AcDbEntity
  8
cut
 62
7
100
AcDbSpline
 70
8
 71
3
 72
8
 73
4
 74
0
 40
0
 40
0
 40
0
 40
0
 40
1
 40
1
 40
1
 40
1
 10
479.869768
 20
682.474854
 30
0.0
 10
478.602570
 20
680.281393
 30
0.0
 10
478.602570
 20
677.578335
 30
0.0
 10
479.869768
 20
675.384873
 30
0.0
  0
SPLINE
  5
273
100
AcDbEntity
  8
cut
 62
7
100
AcDbSpline
 70
8
 71
3
 72
8
 73
4
 74
0
 40
0
 40
0
 40
0
 40
0
 40
1
 40
1
 40
1
 40
1
 10
479.869768
 20
675.384873
 30
0.0
 10
481.136966
 20
673.191411
 30
0.0
 10
483.478624
 20
671.841167
 30
0.0
 10
486.011816
 20
671.843252
 30
0.0
  0
LWPOLYLINE
  5
274
100
AcDbEntity
  8
cut
 62
7
100
AcDbPolyline
 90
2
 70
1
 10
457.665360
 20
671.843252
 30
0.0
 10
457.665360
 20
671.843252
 30
0.0
  0
SPLINE
  5
275
100
AcDbEntity
  8
cut
 62
7
100
AcDbSpline
 70
8
 71
3
 72
8
 73
4
 74
0
 40
0
 40
0
 40
0
 40
0
 40
1
 40
1
 40
1
 40
1
 10
514.358272
 20
671.843252
 30
0.0
 10
516.891464
 20
671.841167
 30
0.0
 10
519.233122
 20
673.191411
 30
0.0
 10
520.500320
 20
675.384873
 30
0.0
  0
SPLINE
  5
276
100
AcDbEntity
  8
cut
 62
7
100
AcDbSpline
 70
8
 71
3
 72
8
 73
4
 74
0
 40
0
 40
0
 40
0
 40
0
 40
1
 40
1
 40
1
 40
1
 10
520.500320
 20
675.384873
 30
0.0
 10
521.767518
 20
677.578335
 30
0.0
 10
521.767518
 20
680.281393
 30
0.0
 10
520.500320
 20
682.474854
 30
0.0
  0
SPLINE
  5
277
100
AcDbEntity
  8
cut
 62
7
100
AcDbSpline
 70
8
 71
3
 72
8
 73
4
 74
0
 40
0
 40
0
 40
0
 40
0
 40
1
 40
1
 40
1
 40
1
 10
520.500320
 20
682.474854
 30
0.0
 10
519.233122
 20
684.668316
 30
0.0
 10
516.891464
 20
686.018561
 30
0.0
 10
514.358272
 20
686.016476
 30
0.0
  0
SPLINE
  5
278
100
AcDbEntity
  8
cut
 62
7
100
AcDbSpline
 70
8
 71
3
 72
8
 73
4
 74
0
 40
0
 40
0
 40
0
 40
0
 40
1
 40
1
 40
1
 40
1
 10
514.358272
 20
686.016476
 30
0.0
 10
511.825080
 20
686.018561
 30
0.0
 10
509.483422
 20
684.668316
 30
0.0
 10
508.216224
 20
682.474854
 30
0.0
  0
SPLINE
  5
279
100
AcDbEntity
  8
cut
 62
7
100
AcDbSpline
 70
8
 71
3
 72
8
 73
4
 74
0
 40
0
 40
0
 40
0
 40
0
 40
1
 40
1
 40
1
 40
1
 10
508.216224
 20
682.474854
 30
0.0
 10
506.949026
 20
680.281393
 30
0.0
 10
506.949026
 20
677.578335
 30
0.0
 10
508.216224
 20
675.384873
 30
0.0
  0
SPLINE
  5
27a
100
AcDbEntity
  8
cut
 62
7
100
AcDbSpline
 70
8
 71
3
 72
8
 73
4
 74
0
 40
0
 40
0
 40
0
 40
0
 40
1
 40
1
 40
1
 40
1
 10
508.216224
 20
675.384873
 30
0.0
 10
509.483422
 20
673.191411
 30
0.0
 10
511.825080
 20
671.841167
 30
0.0
 10
514.358272
 20
671.843252
 30
0.0
  0
LWPOLYLINE
  5
27b
100
AcDbEntity
  8
cut
 62
7
100
AcDbPolyline
 90
2
 70
1
 10
486.011816
 20
671.843252
 30
0.0
 10
486.011816
 20
671.843252
 30
0.0
  0
SPLINE
  5
27c
100
AcDbEntity
  8
cut
 62
7
100
AcDbSpline
 70
8
 71
3
 72
8
 73
4
 74
0
 40
0
 40
0
 40
0
 40
0
 40
1
 40
1
 40
1
 40
1
 10
514.358272
 20
747.244820
 30
0.0
 10
516.890076
 20
747.244820
 30
0.0
 10
519.229559
 20
748.595521
 30
0.0
 10
520.495461
 20
750.788128
 30
0.0
  0
SPLINE
  5
27d
100
AcDbEntity
  8
cut
 62
7
100
AcDbSpline
 70
8
 71
3
 72
8
 73
4
 74
0
 40
0
 40
0
 40
0
 40
0
 40
1
 40
1
 40
1
 40
1
 10
520.495461
 20
750.788128
 30
0.0
 10
521.761364
 20
752.980734
 30
0.0
 10
521.761364
 20
755.682137
 30
0.0
 10
520.495461
 20
757.874744
 30
0.0
  0
SPLINE
  5
27e
100
AcDbEntity
  8
cut
 62
7
100
AcDbSpline
 70
8
 71
3
 72
8
 73
4
 74
0
 40
0
 40
0
 40
0
 40
0
 40
1
 40
1
 40
1
 40
1
 10
520.495461
 20
757.874744
 30
0.0
 10
519.229559
 20
760.067350
 30
0.0
 10
516.890076
 20
761.418052
 30
0.0
 10
514.358272
 20
761.418052
 30
0.0
  0
SPLINE
  5
27f
100
AcDbEntity
  8
cut
 62
7
100
AcDbSpline
 70
8
 71
3
 72
8
 73
4
 74
0
 40
0
 40
0
 40
0
 40
0
 40
1
 40
1
 40
1
 40
1
 10
514.358272
 20
761.418052
 30
0.0
 10
511.826468
 20
761.418052
 30
0.0
 10
509.486985
 20
760.067350
 30
0.0
 10
508.221083
 20
757.874744
 30
0.0
  0
SPLINE
  5
280
100
AcDbEntity
  8
cut
 62
7
100
AcDbSpline
 70
8
 71
3
 72
8
 73
4
 74
0
 40
0
 40
0
 40
0
 40
0
 40
1
 40
1
 40
1
 40
1
 10
508.221083
 20
757.874744
 30
0.0
 10
506.955180
 20
755.682137
 30
0.0
 10
506.955180
 20
752.980734
 30
0.0
 10
508.221083
 20
750.788128
 30
0.0
  0
SPLINE
  5
281
100
AcDbEntity
  8
cut
 62
7
100
AcDbSpline
 70
8
 71
3
 72
8
 73
4
 74
0
 40
0
 40
0
 40
0
 40
0
 40
1
 40
1
 40
1
 40
1
 10
508.221083
 20
750.788128
 30
0.0
 10
509.486985
 20
748.595521
 30
0.0
 10
511.826468
 20
747.244820
 30
0.0
 10
514.358272
 20
747.244820
 30
0.0
  0
LWPOLYLINE
  5
282
100
AcDbEntity
  8
cut
 62
7
100
AcDbPolyline
 90
2
 70
1
 10
514.358272
 20
671.843252
 30
0.0
 10
514.358272
 20
671.843252
 30
0.0
  0
SPLINE
  5
283
100
AcDbEntity
  8
cut
 62
7
100
AcDbSpline
 70
8
 71
3
 72
8
 73
4
 74
0
 40
0
 40
0
 40
0
 40
0
 40
1
 40
1
 40
1
 40
1
 10
486.011816
 20
747.244820
 30
0.0
 10
488.543620
 20
747.244820
 30
0.0
 10
490.883103
 20
748.595521
 30
0.0
 10
492.149005
 20
750.788128
 30
0.0
  0
SPLINE
  5
284
100
AcDbEntity
  8
cut
 62
7
100
AcDbSpline
 70
8
 71
3
 72
8
 73
4
 74
0
 40
0
 40
0
 40
0
 40
0
 40
1
 40
1
 40
1
 40
1
 10
492.149005
 20
750.788128
 30
0.0
 10
493.414908
 20
752.980734
 30
0.0
 10
493.414908
 20
755.682137
 30
0.0
 10
492.149005
 20
757.874744
 30
0.0
  0
SPLINE
  5
285
100
AcDbEntity
  8
cut
 62
7
100
AcDbSpline
 70
8
 71
3
 72
8
 73
4
 74
0
 40
0
 40
0
 40
0
 40
0
 40
1
 40
1
 40
1
 40
1
 10
492.149005
 20
757.874744
 30
0.0
 10
490.883103
 20
760.067350
 30
0.0
 10
488.543620
 20
761.418052
 30
0.0
 10
486.011816
 20
761.418052
 30
0.0
  0
SPLINE
  5
286
100
AcDbEntity
  8
cut
 62
7
100
AcDbSpline
 70
8
 71
3
 72
8
 73
4
 74
0
 40
0
 40
0
 40
0
 40
0
 40
1
 40
1
 40
1
 40
1
 10
486.011816
 20
761.418052
 30
0.0
 10
483.480012
 20
761.418052
 30
0.0
 10
481.140529
 20
760.067350
 30
0.0
 10
479.874627
 20
757.874744
 30
0.0
  0
SPLINE
  5
287
100
AcDbEntity
  8
cut
 62
7
100
AcDbSpline
 70
8
 71
3
 72
8
 73
4
 74
0
 40
0
 40
0
 40
0
 40
0
 40
1
 40
1
 40
1
 40
1
 10
479.874627
 20
757.874744
 30
0.0
 10
478.608724
 20
755.682137
 30
0.0
 10
478.608724
 20
752.980734
 30
0.0
 10
479.874627
 20
750.788128
 30
0.0
  0
SPLINE
  5
288
100
AcDbEntity
  8
cut
 62
7
100
AcDbSpline
 70
8
 71
3
 72
8
 73
4
 74
0
 40
0
 40
0
 40
0
 40
0
 40
1
 40
1
 40
1
 40
1
 10
479.874627
 20
750.788128
 30
0.0
 10
481.140529
 20
748.595521
 30
0.0
 10
483.480012
 20
747.244820
 30
0.0
 10
486.011816
 20
747.244820
 30
0.0
  0
LWPOLYLINE
  5
289
100
AcDbEntity
  8
cut
 62
7
100
AcDbPolyline
 90
2
 70
1
 10
514.358272
 20
747.244820
 30
0.0
 10
514.358272
 20
747.244820
 30
0.0
  0
SPLINE
  5
28a
100
AcDbEntity
  8
cut
 62
7
100
AcDbSpline
 70
8
 71
3
 72
8
 73
4
 74
0
 40
0
 40
0
 40
0
 40
0
 40
1
 40
1
 40
1
 40
1
 10
457.665360
 20
747.244820
 30
0.0
 10
460.197164
 20
747.244820
 30
0.0
 10
462.536647
 20
748.595521
 30
0.0
 10
463.802549
 20
750.788128
 30
0.0
  0
SPLINE
  5
28b
100
AcDbEntity
  8
cut
 62
7
100
AcDbSpline
 70
8
 71
3
 72
8
 73
4
 74
0
 40
0
 40
0
 40
0
 40
0
 40
1
 40
1
 40
1
 40
1
 10
463.802549
 20
750.788128
 30
0.0
 10
465.068452
 20
752.980734
 30
0.0
 10
465.068452
 20
755.682137
 30
0.0
 10
463.802549
 20
757.874744
 30
0.0
  0
SPLINE
  5
28c
100
AcDbEntity
  8
cut
 62
7
100
AcDbSpline
 70
8
 71
3
 72
8
 73
4
 74
0
 40
0
 40
0
 40
0
 40
0
 40
1
 40
1
 40
1
 40
1
 10
463.802549
 20
757.874744
 30
0.0
 10
462.536647
 20
760.067350
 30
0.0
 10
460.197164
 20
761.418052
 30
0.0
 10
457.665360
 20
761.418052
 30
0.0
  0
SPLINE
  5
28d
100
AcDbEntity
  8
cut
 62
7
100
AcDbSpline
 70
8
 71
3
 72
8
 73
4
 74
0
 40
0
 40
0
 40
0
 40
0
 40
1
 40
1
 40
1
 40
1
 10
457.665360
 20
761.418052
 30
0.0
 10
455.133556
 20
761.418052
 30
0.0
 10
452.794073
 20
760.067350
 30
0.0
 10
451.528171
 20
757.874744
 30
0.0
  0
SPLINE
  5
28e
100
AcDbEntity
  8
cut
 62
7
100
AcDbSpline
 70
8
 71
3
 72
8
 73
4
 74
0
 40
0
 40
0
 40
0
 40
0
 40
1
 40
1
 40
1
 40
1
 10
451.528171
 20
757.874744
 30
0.0
 10
450.262268
 20
755.682137
 30
0.0
 10
450.262268
 20
752.980734
 30
0.0
 10
451.528171
 20
750.788128
 30
0.0
  0
SPLINE
  5
28f
100
AcDbEntity
  8
cut
 62
7
100
AcDbSpline
 70
8
 71
3
 72
8
 73
4
 74
0
 40
0
 40
0
 40
0
 40
0
 40
1
 40
1
 40
1
 40
1
 10
451.528171
 20
750.788128
 30
0.0
 10
452.794073
 20
748.595521
 30
0.0
 10
455.133556
 20
747.244820
 30
0.0
 10
457.665360
 20
747.244820
 30
0.0
  0
LWPOLYLINE
  5
290
100
AcDbEntity
  8
cut
 62
7
100
AcDbPolyline
 90
2
 70
1
 10
486.011816
 20
747.244820
 30
0.0
 10
486.011816
 20
747.244820
 30
0.0
  0
SPLINE
  5
291
100
AcDbEntity
  8
cut
 62
7
100
AcDbSpline
 70
8
 71
3
 72
8
 73
4
 74
0
 40
0
 40
0
 40
0
 40
0
 40
1
 40
1
 40
1
 40
1
 10
340.027560
 20
718.898364
 30
0.0
 10
340.027560
 20
717.018876
 30
0.0
 10
340.774183
 20
715.216367
 30
0.0
 10
342.103181
 20
713.887369
 30
0.0
  0
SPLINE
  5
292
100
AcDbEntity
  8
cut
 62
7
100
AcDbSpline
 70
8
 71
3
 72
8
 73
4
 74
0
 40
0
 40
0
 40
0
 40
0
 40
1
 40
1
 40
1
 40
1
 10
342.103181
 20
713.887369
 30
0.0
 10
343.432180
 20
712.558371
 30
0.0
 10
345.234688
 20
711.811747
 30
0.0
 10
347.114176
 20
711.811748
 30
0.0
  0
LWPOLYLINE
  5
293
100
AcDbEntity
  8
cut
 62
7
100
AcDbPolyline
 90
2
 70
1
 10
457.665360
 20
747.244820
 30
0.0
 10
457.665360
 20
747.244820
 30
0.0
  0
SPLINE
  5
294
100
AcDbEntity
  8
cut
 62
7
100
AcDbSpline
 70
8
 71
3
 72
8
 73
4
 74
0
 40
0
 40
0
 40
0
 40
0
 40
1
 40
1
 40
1
 40
1
 10
347.114176
 20
740.158212
 30
0.0
 10
345.234688
 20
740.158212
 30
0.0
 10
343.432180
 20
739.411589
 30
0.0
 10
342.103181
 20
738.082590
 30
0.0
  0
SPLINE
  5
295
100
AcDbEntity
  8
cut
 62
7
100
AcDbSpline
 70
8
 71
3
 72
8
 73
4
 74
0
 40
0
 40
0
 40
0
 40
0
 40
1
 40
1
 40
1
 40
1
 10
342.103181
 20
738.082590
 30
0.0
 10
340.774183
 20
736.753592
 30
0.0
 10
340.027560
 20
734.951083
 30
0.0
 10
340.027560
 20
733.071596
 30
0.0
  0
LWPOLYLINE
  5
296
100
AcDbEntity
  8
cut
 62
7
100
AcDbPolyline
 90
2
 70
0
 10
340.027560
 20
733.071596
 30
0.0
 10
340.027560
 20
718.898364
 30
0.0
  0
SPLINE
  5
297
100
AcDbEntity
  8
cut
 62
7
100
AcDbSpline
 70
8
 71
3
 72
8
 73
4
 74
0
 40
0
 40
0
 40
0
 40
0
 40
1
 40
1
 40
1
 40
1
 10
538.452760
 20
733.071596
 30
0.0
 10
538.452760
 20
734.951083
 30
0.0
 10
537.706137
 20
736.753592
 30
0.0
 10
536.377139
 20
738.082590
 30
0.0
  0
SPLINE
  5
298
100
AcDbEntity
  8
cut
 62
7
100
AcDbSpline
 70
8
 71
3
 72
8
 73
4
 74
0
 40
0
 40
0
 40
0
 40
0
 40
1
 40
1
 40
1
 40
1
 10
536.377139
 20
738.082590
 30
0.0
 10
535.048140
 20
739.411589
 30
0.0
 10
533.245632
 20
740.158212
 30
0.0
 10
531.366144
 20
740.158212
 30
0.0
  0
LWPOLYLINE
  5
299
100
AcDbEntity
  8
cut
 62
7
100
AcDbPolyline
 90
2
 70
0
 10
347.114176
 20
740.158212
 30
0.0
 10
531.366144
 20
740.158212
 30
0.0
  0
SPLINE
  5
29a
100
AcDbEntity
  8
cut
 62
7
100
AcDbSpline
 70
8
 71
3
 72
8
 73
4
 74
0
 40
0
 40
0
 40
0
 40
0
 40
1
 40
1
 40
1
 40
1
 10
531.366144
 20
711.811748
 30
0.0
 10
533.245632
 20
711.811747
 30
0.0
 10
535.048140
 20
712.558371
 30
0.0
 10
536.377139
 20
713.887369
 30
0.0
  0
SPLINE
  5
29b
100
AcDbEntity
  8
cut
 62
7
100
AcDbSpline
 70
8
 71
3
 72
8
 73
4
 74
0
 40
0
 40
0
 40
0
 40
0
 40
1
 40
1
 40
1
 40
1
 10
536.377139
 20
713.887369
 30
0.0
 10
537.706137
 20
715.216367
 30
0.0
 10
538.452760
 20
717.018876
 30
0.0
 10
538.452760
 20
718.898364
 30
0.0
  0
LWPOLYLINE
  5
29c
100
AcDbEntity
  8
cut
 62
7
100
AcDbPolyline
 90
2
 70
0
 10
538.452760
 20
718.898364
 30
0.0
 10
538.452760
 20
733.071596
 30
0.0
  0
SPLINE
  5
29d
100
AcDbEntity
  8
cut
 62
7
100
AcDbSpline
 70
8
 71
3
 72
8
 73
4
 74
0
 40
0
 40
0
 40
0
 40
0
 40
1
 40
1
 40
1
 40
1
 10
340.027560
 20
643.496788
 30
0.0
 10
340.027564
 20
639.582961
 30
0.0
 10
343.200349
 20
636.410179
 30
0.0
 10
347.114176
 20
636.410180
 30
0.0
  0
LWPOLYLINE
  5
29e
100
AcDbEntity
  8
cut
 62
7
100
AcDbPolyline
 90
2
 70
0
 10
347.114176
 20
711.811748
 30
0.0
 10
531.366144
 20
711.811748
 30
0.0
  0
SPLINE
  5
29f
100
AcDbEntity
  8
cut
 62
7
100
AcDbSpline
 70
8
 71
3
 72
8
 73
4
 74
0
 40
0
 40
0
 40
0
 40
0
 40
1
 40
1
 40
1
 40
1
 10
347.114176
 20
664.756636
 30
0.0
 10
345.234688
 20
664.756636
 30
0.0
 10
343.432180
 20
664.010013
 30
0.0
 10
342.103181
 20
662.681014
 30
0.0
  0
SPLINE
  5
2a0
100
AcDbEntity
  8
cut
 62
7
100
AcDbSpline
 70
8
 71
3
 72
8
 73
4
 74
0
 40
0
 40
0
 40
0
 40
0
 40
1
 40
1
 40
1
 40
1
 10
342.103181
 20
662.681014
 30
0.0
 10
340.774183
 20
661.352016
 30
0.0
 10
340.027560
 20
659.549507
 30
0.0
 10
340.027560
 20
657.670020
 30
0.0
  0
LWPOLYLINE
  5
2a1
100
AcDbEntity
  8
cut
 62
7
100
AcDbPolyline
 90
2
 70
0
 10
340.027560
 20
657.670020
 30
0.0
 10
340.027560
 20
643.496788
 30
0.0
  0
SPLINE
  5
2a2
100
AcDbEntity
  8
cut
 62
7
100
AcDbSpline
 70
8
 71
3
 72
8
 73
4
 74
0
 40
0
 40
0
 40
0
 40
0
 40
1
 40
1
 40
1
 40
1
 10
538.452760
 20
657.670020
 30
0.0
 10
538.452760
 20
659.549507
 30
0.0
 10
537.706137
 20
661.352016
 30
0.0
 10
536.377139
 20
662.681014
 30
0.0
  0
SPLINE
  5
2a3
100
AcDbEntity
  8
cut
 62
7
100
AcDbSpline
 70
8
 71
3
 72
8
 73
4
 74
0
 40
0
 40
0
 40
0
 40
0
 40
1
 40
1
 40
1
 40
1
 10
536.377139
 20
662.681014
 30
0.0
 10
535.048140
 20
664.010013
 30
0.0
 10
533.245632
 20
664.756636
 30
0.0
 10
531.366144
 20
664.756636
 30
0.0
  0
LWPOLYLINE
  5
2a4
100
AcDbEntity
  8
cut
 62
7
100
AcDbPolyline
 90
2
 70
0
 10
347.114176
 20
664.756636
 30
0.0
 10
531.366144
 20
664.756636
 30
0.0
  0
SPLINE
  5
2a5
100
AcDbEntity
  8
cut
 62
7
100
AcDbSpline
 70
8
 71
3
 72
8
 73
4
 74
0
 40
0
 40
0
 40
0
 40
0
 40
1
 40
1
 40
1
 40
1
 10
531.366144
 20
636.410180
 30
0.0
 10
535.279971
 20
636.410179
 30
0.0
 10
538.452756
 20
639.582961
 30
0.0
 10
538.452760
 20
643.496788
 30
0.0
  0
LWPOLYLINE
  5
2a6
100
AcDbEntity
  8
cut
 62
7
100
AcDbPolyline
 90
2
 70
0
 10
538.452760
 20
643.496788
 30
0.0
 10
538.452760
 20
657.670020
 30
0.0
  0
SPLINE
  5
2a7
100
AcDbEntity
  8
cut
 62
7
100
AcDbSpline
 70
8
 71
3
 72
8
 73
4
 74
0
 40
0
 40
0
 40
0
 40
0
 40
1
 40
1
 40
1
 40
1
 10
486.011816
 20
521.040100
 30
0.0
 10
488.545008
 20
521.038015
 30
0.0
 10
490.886666
 20
522.388259
 30
0.0
 10
492.153864
 20
524.581721
 30
0.0
  0
SPLINE
  5
2a8
100
AcDbEntity
  8
cut
 62
7
100
AcDbSpline
 70
8
 71
3
 72
8
 73
4
 74
0
 40
0
 40
0
 40
0
 40
0
 40
1
 40
1
 40
1
 40
1
 10
492.153864
 20
524.581721
 30
0.0
 10
493.421062
 20
526.775183
 30
0.0
 10
493.421062
 20
529.478241
 30
0.0
 10
492.153864
 20
531.671702
 30
0.0
  0
SPLINE
  5
2a9
100
AcDbEntity
  8
cut
 62
7
100
AcDbSpline
 70
8
 71
3
 72
8
 73
4
 74
0
 40
0
 40
0
 40
0
 40
0
 40
1
 40
1
 40
1
 40
1
 10
492.153864
 20
531.671702
 30
0.0
 10
490.886666
 20
533.865164
 30
0.0
 10
488.545008
 20
535.215409
 30
0.0
 10
486.011816
 20
535.213324
 30
0.0
  0
SPLINE
  5
2aa
100
AcDbEntity
  8
cut
 62
7
100
AcDbSpline
 70
8
 71
3
 72
8
 73
4
 74
0
 40
0
 40
0
 40
0
 40
0
 40
1
 40
1
 40
1
 40
1
 10
486.011816
 20
535.213324
 30
0.0
 10
483.478624
 20
535.215409
 30
0.0
 10
481.136966
 20
533.865164
 30
0.0
 10
479.869768
 20
531.671702
 30
0.0
  0
SPLINE
  5
2ab
100
AcDbEntity
  8
cut
 62
7
100
AcDbSpline
 70
8
 71
3
 72
8
 73
4
 74
0
 40
0
 40
0
 40
0
 40
0
 40
1
 40
1
 40
1
 40
1
 10
479.869768
 20
531.671702
 30
0.0
 10
478.602570
 20
529.478241
 30
0.0
 10
478.602570
 20
526.775183
 30
0.0
 10
479.869768
 20
524.581721
 30
0.0
  0
SPLINE
  5
2ac
100
AcDbEntity
  8
cut
 62
7
100
AcDbSpline
 70
8
 71
3
 72
8
 73
4
 74
0
 40
0
 40
0
 40
0
 40
0
 40
1
 40
1
 40
1
 40
1
 10
479.869768
 20
524.581721
 30
0.0
 10
481.136966
 20
522.388259
 30
0.0
 10
483.478624
 20
521.038015
 30
0.0
 10
486.011816
 20
521.040100
 30
0.0
  0
LWPOLYLINE
  5
2ad
100
AcDbEntity
  8
cut
 62
7
100
AcDbPolyline
 90
2
 70
0
 10
347.114176
 20
636.410180
 30
0.0
 10
531.366144
 20
636.410180
 30
0.0
  0
SPLINE
  5
2ae
100
AcDbEntity
  8
cut
 62
7
100
AcDbSpline
 70
8
 71
3
 72
8
 73
4
 74
0
 40
0
 40
0
 40
0
 40
0
 40
1
 40
1
 40
1
 40
1
 10
514.358272
 20
521.040100
 30
0.0
 10
516.891464
 20
521.038015
 30
0.0
 10
519.233122
 20
522.388259
 30
0.0
 10
520.500320
 20
524.581721
 30
0.0
  0
SPLINE
  5
2af
100
AcDbEntity
  8
cut
 62
7
100
AcDbSpline
 70
8
 71
3
 72
8
 73
4
 74
0
 40
0
 40
0
 40
0
 40
0
 40
1
 40
1
 40
1
 40
1
 10
520.500320
 20
524.581721
 30
0.0
 10
521.767518
 20
526.775183
 30
0.0
 10
521.767518
 20
529.478241
 30
0.0
 10
520.500320
 20
531.671702
 30
0.0
  0
SPLINE
  5
2b0
100
AcDbEntity
  8
cut
 62
7
100
AcDbSpline
 70
8
 71
3
 72
8
 73
4
 74
0
 40
0
 40
0
 40
0
 40
0
 40
1
 40
1
 40
1
 40
1
 10
520.500320
 20
531.671702
 30
0.0
 10
519.233122
 20
533.865164
 30
0.0
 10
516.891464
 20
535.215409
 30
0.0
 10
514.358272
 20
535.213324
 30
0.0
  0
SPLINE
  5
2b1
100
AcDbEntity
  8
cut
 62
7
100
AcDbSpline
 70
8
 71
3
 72
8
 73
4
 74
0
 40
0
 40
0
 40
0
 40
0
 40
1
 40
1
 40
1
 40
1
 10
514.358272
 20
535.213324
 30
0.0
 10
511.825080
 20
535.215409
 30
0.0
 10
509.483422
 20
533.865164
 30
0.0
 10
508.216224
 20
531.671702
 30
0.0
  0
SPLINE
  5
2b2
100
AcDbEntity
  8
cut
 62
7
100
AcDbSpline
 70
8
 71
3
 72
8
 73
4
 74
0
 40
0
 40
0
 40
0
 40
0
 40
1
 40
1
 40
1
 40
1
 10
508.216224
 20
531.671702
 30
0.0
 10
506.949026
 20
529.478241
 30
0.0
 10
506.949026
 20
526.775183
 30
0.0
 10
508.216224
 20
524.581721
 30
0.0
  0
SPLINE
  5
2b3
100
AcDbEntity
  8
cut
 62
7
100
AcDbSpline
 70
8
 71
3
 72
8
 73
4
 74
0
 40
0
 40
0
 40
0
 40
0
 40
1
 40
1
 40
1
 40
1
 10
508.216224
 20
524.581721
 30
0.0
 10
509.483422
 20
522.388259
 30
0.0
 10
511.825080
 20
521.038015
 30
0.0
 10
514.358272
 20
521.040100
 30
0.0
  0
LWPOLYLINE
  5
2b4
100
AcDbEntity
  8
cut
 62
7
100
AcDbPolyline
 90
2
 70
1
 10
486.011816
 20
521.040100
 30
0.0
 10
486.011816
 20
521.040100
 30
0.0
  0
SPLINE
  5
2b5
100
AcDbEntity
  8
cut
 62
7
100
AcDbSpline
 70
8
 71
3
 72
8
 73
4
 74
0
 40
0
 40
0
 40
0
 40
0
 40
1
 40
1
 40
1
 40
1
 10
340.027560
 20
568.095220
 30
0.0
 10
340.027560
 20
566.215732
 30
0.0
 10
340.774183
 20
564.413223
 30
0.0
 10
342.103181
 20
563.084225
 30
0.0
  0
SPLINE
  5
2b6
100
AcDbEntity
  8
cut
 62
7
100
AcDbSpline
 70
8
 71
3
 72
8
 73
4
 74
0
 40
0
 40
0
 40
0
 40
0
 40
1
 40
1
 40
1
 40
1
 10
342.103181
 20
563.084225
 30
0.0
 10
343.432180
 20
561.755227
 30
0.0
 10
345.234688
 20
561.008603
 30
0.0
 10
347.114176
 20
561.008604
 30
0.0
  0
LWPOLYLINE
  5
2b7
100
AcDbEntity
  8
cut
 62
7
100
AcDbPolyline
 90
2
 70
1
 10
514.358272
 20
521.040100
 30
0.0
 10
514.358272
 20
521.040100
 30
0.0
  0
SPLINE
  5
2b8
100
AcDbEntity
  8
cut
 62
7
100
AcDbSpline
 70
8
 71
3
 72
8
 73
4
 74
0
 40
0
 40
0
 40
0
 40
0
 40
1
 40
1
 40
1
 40
1
 10
347.114176
 20
589.355060
 30
0.0
 10
345.234688
 20
589.355060
 30
0.0
 10
343.432180
 20
588.608437
 30
0.0
 10
342.103181
 20
587.279438
 30
0.0
  0
SPLINE
  5
2b9
100
AcDbEntity
  8
cut
 62
7
100
AcDbSpline
 70
8
 71
3
 72
8
 73
4
 74
0
 40
0
 40
0
 40
0
 40
0
 40
1
 40
1
 40
1
 40
1
 10
342.103181
 20
587.279438
 30
0.0
 10
340.774183
 20
585.950440
 30
0.0
 10
340.027560
 20
584.147931
 30
0.0
 10
340.027560
 20
582.268444
 30
0.0
  0
LWPOLYLINE
  5
2ba
100
AcDbEntity
  8
cut
 62
7
100
AcDbPolyline
 90
2
 70
0
 10
340.027560
 20
582.268444
 30
0.0
 10
340.027560
 20
568.095220
 30
0.0
  0
SPLINE
  5
2bb
100
AcDbEntity
  8
cut
 62
7
100
AcDbSpline
 70
8
 71
3
 72
8
 73
4
 74
0
 40
0
 40
0
 40
0
 40
0
 40
1
 40
1
 40
1
 40
1
 10
538.452760
 20
582.268444
 30
0.0
 10
538.452760
 20
584.147931
 30
0.0
 10
537.706137
 20
585.950440
 30
0.0
 10
536.377139
 20
587.279438
 30
0.0
  0
SPLINE
  5
2bc
100
AcDbEntity
  8
cut
 62
7
100
AcDbSpline
 70
8
 71
3
 72
8
 73
4
 74
0
 40
0
 40
0
 40
0
 40
0
 40
1
 40
1
 40
1
 40
1
 10
536.377139
 20
587.279438
 30
0.0
 10
535.048140
 20
588.608437
 30
0.0
 10
533.245632
 20
589.355060
 30
0.0
 10
531.366144
 20
589.355060
 30
0.0
  0
LWPOLYLINE
  5
2bd
100
AcDbEntity
  8
cut
 62
7
100
AcDbPolyline
 90
2
 70
0
 10
347.114176
 20
589.355060
 30
0.0
 10
531.366144
 20
589.355060
 30
0.0
  0
SPLINE
  5
2be
100
AcDbEntity
  8
cut
 62
7
100
AcDbSpline
 70
8
 71
3
 72
8
 73
4
 74
0
 40
0
 40
0
 40
0
 40
0
 40
1
 40
1
 40
1
 40
1
 10
531.366144
 20
561.008604
 30
0.0
 10
533.245632
 20
561.008603
 30
0.0
 10
535.048140
 20
561.755227
 30
0.0
 10
536.377139
 20
563.084225
 30
0.0
  0
SPLINE
  5
2bf
100
AcDbEntity
  8
cut
 62
7
100
AcDbSpline
 70
8
 71
3
 72
8
 73
4
 74
0
 40
0
 40
0
 40
0
 40
0
 40
1
 40
1
 40
1
 40
1
 10
536.377139
 20
563.084225
 30
0.0
 10
537.706137
 20
564.413223
 30
0.0
 10
538.452760
 20
566.215732
 30
0.0
 10
538.452760
 20
568.095220
 30
0.0
  0
LWPOLYLINE
  5
2c0
100
AcDbEntity
  8
cut
 62
7
100
AcDbPolyline
 90
2
 70
0
 10
538.452760
 20
568.095220
 30
0.0
 10
538.452760
 20
582.268444
 30
0.0
  0
LWPOLYLINE
  5
2c1
100
AcDbEntity
  8
cut
 62
7
100
AcDbPolyline
 90
2
 70
0
 10
347.114176
 20
561.008604
 30
0.0
 10
531.366144
 20
561.008604
 30
0.0
  0
LWPOLYLINE
  5
2c2
100
AcDbEntity
  8
cut
 62
7
100
AcDbPolyline
 90
3
 70
0
 10
99.690080
 20
405.670020
 30
0.0
 10
99.690080
 20
414.173956
 30
0.0
 10
178.250320
 20
414.173956
 30
0.0
  0
LWPOLYLINE
  5
2c3
100
AcDbEntity
  8
cut
 62
7
100
AcDbPolyline
 90
2
 70
0
 10
178.250320
 20
405.670020
 30
0.0
 10
178.250320
 20
414.173956
 30
0.0
  0
LWPOLYLINE
  5
2c4
100
AcDbEntity
  8
cut
 62
7
100
AcDbPolyline
 90
2
 70
0
 10
99.690080
 20
405.670020
 30
0.0
 10
178.250320
 20
405.670020
 30
0.0
  0
LWPOLYLINE
  5
2c5
100
AcDbEntity
  8
cut
 62
7
100
AcDbPolyline
 90
3
 70
0
 10
256.810480
 20
405.670020
 30
0.0
 10
256.810480
 20
414.173956
 30
0.0
 10
335.370640
 20
414.173956
 30
0.0
  0
LWPOLYLINE
  5
2c6
100
AcDbEntity
  8
cut
 62
7
100
AcDbPolyline
 90
2
 70
0
 10
335.370640
 20
405.670020
 30
0.0
 10
335.370640
 20
414.173956
 30
0.0
  0
LWPOLYLINE
  5
2c7
100
AcDbEntity
  8
cut
 62
7
100
AcDbPolyline
 90
2
 70
0
 10
256.810480
 20
405.670020
 30
0.0
 10
335.370640
 20
405.670020
 30
0.0
  0
LWPOLYLINE
  5
2c8
100
AcDbEntity
  8
cut
 62
7
100
AcDbPolyline
 90
3
 70
0
 10
413.930824
 20
405.670020
 30
0.0
 10
413.930824
 20
414.173956
 30
0.0
 10
492.491008
 20
414.173956
 30
0.0
  0
LWPOLYLINE
  5
2c9
100
AcDbEntity
  8
cut
 62
7
100
AcDbPolyline
 90
2
 70
0
 10
492.491008
 20
405.670020
 30
0.0
 10
492.491008
 20
414.173956
 30
0.0
  0
LWPOLYLINE
  5
2ca
100
AcDbEntity
  8
cut
 62
7
100
AcDbPolyline
 90
2
 70
0
 10
413.930824
 20
405.670020
 30
0.0
 10
492.491008
 20
405.670020
 30
0.0
  0
LWPOLYLINE
  5
2cb
100
AcDbEntity
  8
cut
 62
7
100
AcDbPolyline
 90
2
 70
0
 10
134.232320
 20
604.095220
 30
0.0
 10
255.271680
 20
604.095220
 30
0.0
  0
LWPOLYLINE
  5
2cc
100
AcDbEntity
  8
cut
 62
7
100
AcDbPolyline
 90
2
 70
0
 10
134.232320
 20
774.173956
 30
0.0
 10
134.232320
 20
604.095220
 30
0.0
  0
LWPOLYLINE
  5
2cd
100
AcDbEntity
  8
cut
 62
7
100
AcDbPolyline
 90
3
 70
0
 10
134.232320
 20
774.173956
 30
0.0
 10
255.271680
 20
774.173956
 30
0.0
 10
255.271680
 20
604.095220
 30
0.0
  0
ENDSEC
  0
SECTION
  2
OBJECTS
  0
DICTIONARY
  5
C
330
0
100
AcDbDictionary
  3
ACAD_GROUP
350
D
  3
ACAD_MLINESTYLE
350
17
  0
DICTIONARY
  5
D
330
C
100
AcDbDictionary
  0
DICTIONARY
  5
1A
330
C
100
AcDbDictionary
  0
DICTIONARY
  5
17
330
C
100
AcDbDictionary
  3
STANDARD
350
18
  0
DICTIONARY
  5
19
330
C
100
AcDbDictionary
  0
ENDSEC
  0
EOF
